<svg width="855" height="650" viewBox="0 0 855 650" fill="none" xmlns="http://www.w3.org/2000/svg">
<g id="2023 1" clip-path="url(#clip0_1_2)">
<path id="Vector" d="M338.438 455.791L360.8 457.834L388.572 472.075L393.152 455.56L397.152 434.651L388.819 424.741L374.424 434.651L344.327 431.347L338.438 455.791Z" fill="#FDADB0"/>
<path id="Vector_2" d="M154.87 424.092L137.681 474.83L261.343 439.156L341.168 461.617L352.945 435.853L264.615 398.198L196.185 426.268L154.87 424.092Z" fill="#2F2E41"/>
<path id="Vector_3" d="M391.081 433.756L393.699 435.738L377.449 466.79C377.449 466.79 388.426 473.256 391.697 473.256C394.969 473.256 406.13 409.313 404.822 399.869C403.513 390.425 395.007 393.458 395.007 393.458L376.646 432.621L391.081 433.756Z" fill="#2F2E41"/>
<g id="Group">
<path id="uuid-2097ce6a-60e4-4070-b039-3848d94fc891-44" d="M231.874 262.921L216.517 291.793L227.726 298.265L243.865 269.606C246.401 267.842 248.481 265.49 249.933 262.748C253.659 255.935 253.198 248.474 248.905 246.08C244.612 243.687 238.113 247.268 234.389 254.08C232.864 256.782 232.001 259.813 231.874 262.921Z" fill="#FDADB0"/>
<path id="Vector_4" d="M118.662 336.496L196.589 351.499L244.662 275.282L225.51 263.386L188.536 313.5L118.265 304.608L118.662 336.496Z" fill="#E6E6E6"/>
</g>
<path id="Vector_5" d="M684.17 262.627H186.412V473.481H684.17V262.627Z" fill="#6C63FF"/>
<path id="Vector_6" d="M104.065 316.71L112.571 286.321L133.509 286.982L140.706 311.425L104.065 316.71Z" fill="#FDADB0"/>
<path id="Vector_7" opacity="0.1" d="M104.065 316.71L112.571 286.321L133.509 286.982L140.706 311.425L104.065 316.71Z" fill="black"/>
<g id="Group_2">
<path id="Vector_8" d="M125.7 294.299C141.057 294.299 153.506 281.729 153.506 266.224C153.506 250.719 141.057 238.15 125.7 238.15C110.343 238.15 97.8943 250.719 97.8943 266.224C97.8943 281.729 110.343 294.299 125.7 294.299Z" fill="#FDADB0"/>
<path id="Vector_9" d="M123.481 228.48L123.06 229.208C128.499 228.117 143.612 227.411 147.338 231.558C151.064 235.705 152.439 241.87 150.834 247.23C153.473 248.787 155.338 251.616 155.741 254.677C156.144 257.737 155.076 260.96 152.93 263.159C153.759 258.819 151.446 254.254 147.874 251.699C144.302 249.145 139.698 248.393 135.34 248.808C127.428 249.561 119.952 254.1 115.584 260.803C111.963 266.36 110.045 273.617 104.279 276.835C103.087 277.5 106.217 280.057 105.415 281.169C104.144 282.931 105.196 280.109 106.453 281.881C107.71 283.653 106.256 285.881 107.271 287.805C108.286 289.728 106.608 295.023 104.762 296.153C96.4961 287.88 83.821 277.072 83.3999 265.328C82.9787 253.585 85.646 243.716 93.2976 234.861C87.9288 231.257 86.6639 223.196 89.6351 217.419C92.6062 211.642 98.911 208.148 105.301 207.283C110.277 206.609 115.805 207.539 119.283 211.194C121.587 213.616 122.716 216.909 123.78 220.091C124.28 221.587 124.781 223.082 125.281 224.578C125.579 225.469 125.879 226.429 125.621 227.333C125.363 228.237 124.285 228.954 123.481 228.48Z" fill="#2F2E41"/>
<path id="Vector_10" d="M122.636 248.971L122.132 249.323C123.794 254.526 120.401 259.929 116.788 264C113.175 268.071 108.925 272.262 108.446 277.707C107.902 283.888 112.493 289.79 111.451 295.905C110.555 301.158 104.949 305.084 99.7619 304.091C105.011 299.566 107.16 291.71 104.955 285.107C103.606 281.067 100.783 277.411 100.719 273.149C100.655 268.932 103.307 265.229 105.839 261.875C110.231 256.057 115.432 249.756 122.636 248.971Z" fill="#2F2E41"/>
</g>
<path id="Vector_11" d="M840.655 470.655H1.91103C0.851182 470.655 0 471.199 0 471.876C0 472.553 0.851172 473.097 1.91103 473.097H840.655C841.715 473.097 842.566 472.553 842.566 471.876C842.566 471.199 841.715 470.655 840.655 470.655Z" fill="#3F3D56"/>
<path id="Vector_12" d="M637.553 93.6449L641.489 68.8071L614.921 57.8784L610.985 95.632L637.553 93.6449Z" fill="#A0616A"/>
<g id="Group_3">
<path id="uuid-c40af7bd-5eb1-4e7e-b95c-4d1ae58f7257-45" d="M709.101 252.968C718.087 258.902 728.404 259.031 732.143 253.256C735.883 247.481 731.629 237.991 722.639 232.055C719.08 229.635 714.998 228.11 710.736 227.608L672.345 202.95L661.269 221.386L700.291 243.738C702.455 247.481 705.476 250.646 709.101 252.968Z" fill="#A0616A"/>
<path id="Vector_13" d="M623.222 97.8711C609.149 99.0375 599.357 112.511 602.477 126.415L618.495 197.799L692.216 241.314L701.289 218.029L651.008 180.24L648.316 120.176C647.721 106.905 636.334 96.7842 623.222 97.8711Z" fill="#E6E6E6"/>
</g>
<g id="Group_4">
<path id="Vector_14" d="M762.259 351.323L777.87 374.901L780.776 382.288L789.336 387.753L821.807 372.535L814.772 356.981L793.692 358.386L785.029 344.967L762.259 351.323Z" fill="#A0616A"/>
<path id="Vector_15" d="M816.247 368.293L815.923 371.543L778.468 381.712C778.468 381.712 788.469 395.151 790.141 397.947C791.814 400.743 844.434 368.66 851.683 362.714C858.932 356.768 852.041 351.048 852.041 351.048L809.818 355.375L816.247 368.293Z" fill="#2F2E43"/>
</g>
<path id="Vector_16" d="M589.548 219.706L585.389 229.631C585.389 229.631 576.316 257.877 622.817 267.802C669.318 277.726 693.513 273.528 693.513 273.528L773.662 370.483L794.077 352.542L730.222 254.794C726.027 248.372 719.878 243.5 712.702 240.913L616.512 206.233L589.548 219.706Z" fill="#2F2E41"/>
<g id="Group_5">
<path id="Vector_17" d="M712.071 392.387L722.345 418.783L723.624 426.625L730.833 433.808L765.771 425.929L762.183 409.218L741.29 406.053L735.66 391.078L712.071 392.387Z" fill="#A0616A"/>
<path id="Vector_18" d="M761.235 420.587L760.232 423.693L721.491 425.566C721.491 425.566 728.424 440.848 729.468 443.94C730.512 447.032 788.696 427.014 797.034 422.765C805.372 418.516 799.847 411.444 799.847 411.444L757.682 406.583L761.235 420.587Z" fill="#2F2E43"/>
</g>
<path id="Vector_19" d="M567.404 219.495L561.245 228.296C561.245 228.296 546.416 253.941 589.752 273.647C633.089 293.353 657.615 294.459 657.615 294.459L715.447 406.437L739.181 393.304L693.209 272.999L648.396 231.479L567.404 219.495Z" fill="#2F2E41"/>
<g id="Group_6">
<path id="Vector_20" d="M234.588 598.124L244.862 624.52L246.142 632.362L253.351 639.545L288.289 631.665L284.7 614.955L263.808 611.79L258.177 596.815L234.588 598.124Z" fill="#FDADB0"/>
<path id="Vector_21" d="M283.752 626.324L282.749 629.43L244.008 631.303C244.008 631.303 250.942 646.585 251.985 649.677C253.029 652.769 311.213 632.751 319.551 628.502C327.889 624.252 322.364 617.181 322.364 617.181L280.199 612.319L283.752 626.324Z" fill="#2F2E43"/>
</g>
<path id="Vector_22" d="M94.314 430.35L88.1553 439.151C88.1553 439.151 73.3261 464.795 116.662 484.501C159.999 504.208 184.525 505.314 184.525 505.314L242.358 617.292L266.092 604.158L220.119 483.854L161.73 423.465L94.314 430.35Z" fill="#2F2E41"/>
<path id="Vector_23" d="M643.806 86.6L609.403 75.1486L576.992 110.965C566.915 122.101 561.051 136.47 560.433 151.541L556.853 238.903L642.672 223.253C642.672 223.253 643.806 86.6 643.806 86.6Z" fill="#E6E6E6"/>
<g id="Group_7">
<path id="uuid-95e9a552-5b77-4d28-a5fe-15ca0c9b439e-46" d="M678.838 259.718C687.824 265.652 698.141 265.781 701.881 260.006C705.62 254.231 701.366 244.741 692.376 238.806C688.817 236.385 684.735 234.86 680.473 234.359L642.082 209.701L631.006 228.137L670.028 250.488C672.192 254.231 675.213 257.396 678.838 259.718Z" fill="#A0616A"/>
<path id="Vector_24" d="M592.959 104.622C578.886 105.788 569.094 119.261 572.214 133.166L588.232 204.549L661.953 248.064L671.026 224.78L620.745 186.99L618.053 126.926C617.458 113.655 606.072 103.535 592.959 104.622Z" fill="#E6E6E6"/>
</g>
<path id="Vector_25" d="M629.871 79.2956C646.653 79.2956 660.257 65.5597 660.257 48.6157C660.257 31.6716 646.653 17.9357 629.871 17.9357C613.09 17.9357 599.485 31.6716 599.485 48.6157C599.485 65.5597 613.09 79.2956 629.871 79.2956Z" fill="#A0616A"/>
<path id="Vector_26" d="M644.328 8.86742C651.021 11.2425 654.851 12.6016 658.359 16.014C664.285 21.7781 665.263 29.4809 666.171 36.6381C666.882 42.2372 667.801 49.4764 664.554 57.7474C663.446 60.57 658.07 73.1457 647.781 74.7349C645.76 75.047 641.016 75.1291 642.383 74.1097C655.039 64.6762 660.44 58.9811 659.997 44.4424C659.722 35.4087 646.05 25.6553 637.932 23.9019C634.512 23.1634 629.96 23.8381 626.695 26.5441C619.872 32.1995 620.163 55.5857 612.969 60.4744C610.01 62.4849 611.982 48.3326 609.897 50.6277C605.783 55.1561 608.422 62.0909 609.161 64.732C612.667 77.2592 619.278 78.4853 622.703 89.183C626.4 100.733 621.747 111.606 620.643 114.185C618.723 118.671 615.429 126.369 607.902 130.062C598.348 134.75 590.817 128.645 586.376 133.879C583.893 136.804 585.236 139.903 580.751 149.002C579.287 151.973 578.555 153.458 577.907 153.406C574.841 153.156 569.876 128.372 577.906 105.291C581.276 95.6043 584.577 86.1141 593.427 78.6931C598.106 74.7697 602.03 73.3579 603.147 68.7762C604.743 62.2307 598.117 59.437 596.789 49.1093C595.88 42.0462 595.243 31.9445 597.713 25.4699C600.045 19.3556 602.07 14.0479 607.37 9.23556C608.643 8.07967 618.918 0.222753 629.812 0.00111571C634.828 -0.100767 638.513 6.80387 644.328 8.86742Z" fill="#2F2E43"/>
<g id="Group_8">
<path id="Vector_27" d="M332.583 341.658C332.598 341.665 332.612 341.672 332.627 341.679C332.616 341.673 332.605 341.668 332.595 341.663C332.591 341.661 332.587 341.659 332.583 341.658Z" fill="white"/>
<path id="Vector_28" d="M309.797 360.085C309.635 360.06 309.484 360.124 309.39 360.198C309.534 360.157 309.662 360.125 309.758 360.109C309.771 360.101 309.784 360.093 309.797 360.085Z" fill="white"/>
<path id="Vector_29" d="M356.727 409.639C343.593 408.233 330.46 406.828 317.326 405.422C323.205 400.583 328.576 395.114 333.284 389.116C337.249 384.066 340.849 378.754 343.907 373.093C347.179 367.035 349.978 360.5 350.26 353.509C350.517 347.121 348.019 340.53 343.118 336.37C338.616 332.55 333.214 330.66 327.438 329.94C315.759 328.485 301.13 332.643 295.355 343.833C291.797 350.728 291.704 359.198 296.877 365.287C301.299 370.493 309.623 372.517 315.477 368.602C317.69 367.122 318.844 364.002 317.3 361.583C315.877 359.355 312.718 358.158 310.348 359.743C310.169 359.863 309.981 359.97 309.798 360.085C309.831 360.09 309.864 360.09 309.897 360.103C309.874 360.094 309.822 360.099 309.759 360.109C309.73 360.127 309.7 360.144 309.672 360.163C309.245 360.449 309.237 360.321 309.39 360.198C309.159 360.265 308.91 360.349 308.742 360.406C308.576 360.407 308.41 360.416 308.244 360.412C308.132 360.409 307.762 360.348 307.662 360.339C307.565 360.316 307.482 360.296 307.45 360.287C307.238 360.232 306.643 359.925 306.366 359.902C306.346 359.892 306.325 359.882 306.305 359.872C306.116 359.77 305.929 359.663 305.746 359.55C305.566 359.44 305.395 359.314 305.215 359.203C305.212 359.201 305.211 359.199 305.209 359.197C304.842 358.833 304.481 358.472 304.127 358.097C304.022 357.88 303.841 357.665 303.723 357.46C303.614 357.269 303.521 357.069 303.414 356.877C303.319 356.707 303.276 356.633 303.254 356.599C303.135 356.15 303.053 355.581 303.009 355.369C302.982 355.239 302.924 355.03 302.895 354.844C302.908 354.643 302.919 354.418 302.917 354.304C302.904 353.754 302.934 353.21 302.972 352.663C302.973 352.659 302.974 352.658 302.975 352.654C303.052 352.348 303.095 352.03 303.169 351.722C303.303 351.165 303.467 350.614 303.657 350.073C303.681 350.005 303.707 349.911 303.731 349.818C303.845 349.54 304 349.262 304.13 349.011C304.394 348.501 304.682 348.004 304.992 347.521C305.09 347.369 305.198 347.157 305.319 346.978C305.356 346.945 305.393 346.91 305.428 346.869C305.844 346.396 306.249 345.926 306.7 345.487C306.899 345.294 307.102 345.105 307.308 344.921C307.455 344.79 307.664 344.618 307.783 344.52C308.753 343.809 309.774 343.172 310.844 342.624C311.069 342.508 311.906 342.145 312.026 342.079C312.674 341.83 313.323 341.585 313.986 341.378C315.162 341.011 316.358 340.714 317.565 340.475C318.124 340.363 318.712 340.229 319.286 340.167C319.314 340.164 319.329 340.163 319.363 340.159C319.693 340.125 320.022 340.087 320.352 340.058C322.55 339.866 324.717 339.95 326.91 340.137C327.083 340.166 327.257 340.193 327.43 340.223C327.985 340.321 328.538 340.435 329.086 340.565C330.17 340.824 331.241 341.147 332.284 341.543C332.258 341.533 332.419 341.594 332.583 341.658C332.376 341.557 332.227 341.475 332.595 341.663C332.748 341.722 332.9 341.782 332.899 341.787C332.894 341.803 332.761 341.743 332.628 341.68C332.667 341.699 332.689 341.711 332.739 341.736C333.175 341.96 333.617 342.169 334.045 342.41C334.515 342.675 334.976 342.958 335.423 343.261C335.587 343.372 335.746 343.49 335.908 343.603C335.917 343.611 335.922 343.616 335.932 343.625C336.657 344.291 337.293 345.018 337.979 345.714C338.087 345.884 338.205 346.048 338.313 346.219C338.671 346.784 338.964 347.374 339.268 347.97C339.273 347.979 339.274 347.981 339.278 347.989C339.35 348.198 339.431 348.448 339.451 348.508C339.676 349.197 339.826 349.891 339.985 350.596C340.004 350.681 340.016 350.734 340.03 350.792C340.058 351.052 340.069 351.32 340.083 351.573C340.127 352.362 340.123 353.153 340.076 353.942C340.059 354.231 340.027 354.518 340.008 354.807C340.004 354.879 340.001 354.934 339.998 354.987C339.986 355.041 339.974 355.101 339.959 355.176C339.843 355.754 339.744 356.333 339.611 356.907C339.257 358.432 338.786 359.928 338.239 361.393C338.108 361.743 337.971 362.089 337.834 362.437C337.831 362.445 337.829 362.449 337.825 362.457C337.526 363.138 337.219 363.814 336.896 364.484C336.278 365.769 335.615 367.032 334.933 368.283C333.664 370.608 332.308 372.885 330.868 375.108C330.15 376.216 329.412 377.311 328.653 378.391C328.294 378.903 327.93 379.411 327.562 379.915C327.358 380.195 327.152 380.474 326.945 380.753C326.893 380.822 326.584 381.23 326.434 381.43C326.286 381.619 326.1 381.86 326.099 381.861C325.842 382.188 325.584 382.513 325.324 382.837C324.847 383.43 324.363 384.017 323.874 384.599C322.941 385.709 321.985 386.8 321.007 387.87C318.964 390.105 316.824 392.25 314.594 394.295C313.483 395.315 312.349 396.31 311.194 397.279C310.67 397.718 310.141 398.153 309.608 398.582C309.377 398.768 309.144 398.951 308.911 399.135C308.812 399.211 308.556 399.409 308.375 399.546C305.985 401.359 303.513 403.057 300.972 404.647C299.126 405.803 297.937 408.256 298.637 410.44C299.38 412.758 301.206 413.957 303.537 414.207C321.267 416.104 338.997 418.001 356.727 419.899C359.379 420.182 361.922 417.337 361.808 414.769C361.674 411.747 359.568 409.943 356.727 409.639ZM303.532 357.188C303.428 357.133 303.339 356.913 303.264 356.642C303.341 356.804 303.538 357.192 303.532 357.188ZM339.157 347.686C339.169 347.684 339.22 347.822 339.276 347.984C339.207 347.841 339.139 347.688 339.157 347.686ZM339.297 348.026C339.456 348.34 339.388 348.214 339.297 348.026ZM337.836 362.433C338.209 361.585 337.913 362.24 337.836 362.433Z" fill="white"/>
<path id="Vector_30" d="M474.961 341.658C474.975 341.665 474.989 341.672 475.004 341.679C474.993 341.673 474.982 341.668 474.972 341.663C474.968 341.661 474.965 341.66 474.961 341.658Z" fill="white"/>
<path id="Vector_31" d="M452.174 360.085C452.012 360.06 451.862 360.124 451.768 360.198C451.911 360.157 452.04 360.125 452.135 360.109C452.148 360.101 452.161 360.093 452.174 360.085Z" fill="white"/>
<path id="Vector_32" d="M499.105 409.639C485.971 408.233 472.837 406.828 459.703 405.422C465.582 400.583 470.954 395.114 475.662 389.116C479.626 384.066 483.227 378.754 486.284 373.093C489.557 367.035 492.355 360.5 492.637 353.509C492.895 347.121 490.396 340.53 485.495 336.37C480.993 332.55 475.591 330.66 469.816 329.94C458.136 328.485 443.508 332.643 437.733 343.833C434.174 350.728 434.082 359.198 439.255 365.287C443.677 370.493 452.001 372.517 457.855 368.602C460.067 367.122 461.222 364.002 459.677 361.583C458.255 359.355 455.096 358.158 452.726 359.743C452.546 359.863 452.358 359.97 452.175 360.085C452.208 360.09 452.241 360.09 452.274 360.103C452.252 360.094 452.199 360.099 452.136 360.109C452.107 360.127 452.077 360.144 452.049 360.163C451.622 360.449 451.614 360.321 451.768 360.198C451.537 360.265 451.287 360.349 451.12 360.406C450.954 360.407 450.788 360.416 450.622 360.412C450.51 360.409 450.139 360.348 450.039 360.339C449.943 360.316 449.859 360.296 449.827 360.287C449.615 360.232 449.02 359.925 448.743 359.902C448.723 359.892 448.702 359.882 448.682 359.872C448.493 359.77 448.307 359.663 448.124 359.55C447.943 359.44 447.772 359.314 447.592 359.203C447.59 359.201 447.589 359.199 447.586 359.197C447.22 358.833 446.859 358.472 446.504 358.097C446.4 357.88 446.218 357.665 446.101 357.46C445.991 357.269 445.898 357.069 445.791 356.877C445.697 356.707 445.654 356.633 445.631 356.599C445.512 356.15 445.431 355.581 445.387 355.369C445.359 355.239 445.302 355.03 445.272 354.844C445.286 354.642 445.297 354.418 445.294 354.304C445.281 353.754 445.312 353.21 445.35 352.663C445.351 352.659 445.351 352.658 445.352 352.654C445.429 352.348 445.473 352.03 445.547 351.722C445.681 351.164 445.845 350.614 446.034 350.073C446.058 350.005 446.085 349.911 446.109 349.818C446.223 349.54 446.378 349.261 446.507 349.011C446.771 348.501 447.059 348.004 447.37 347.521C447.468 347.368 447.575 347.157 447.697 346.978C447.733 346.945 447.77 346.909 447.806 346.869C448.222 346.396 448.627 345.926 449.078 345.487C449.276 345.294 449.48 345.105 449.686 344.921C449.832 344.79 450.042 344.618 450.16 344.52C451.131 343.809 452.152 343.172 453.222 342.624C453.447 342.508 454.284 342.144 454.404 342.079C455.052 341.829 455.7 341.585 456.364 341.378C457.539 341.011 458.736 340.714 459.943 340.475C460.502 340.363 461.089 340.229 461.663 340.167C461.692 340.164 461.706 340.163 461.74 340.159C462.07 340.125 462.399 340.087 462.73 340.058C464.928 339.866 467.094 339.95 469.287 340.137C469.461 340.166 469.634 340.193 469.808 340.223C470.363 340.321 470.915 340.435 471.464 340.565C472.548 340.824 473.618 341.147 474.661 341.543C474.635 341.533 474.797 341.594 474.961 341.658C474.754 341.557 474.605 341.475 474.973 341.663C475.126 341.722 475.278 341.782 475.277 341.787C475.272 341.803 475.138 341.743 475.005 341.679C475.044 341.699 475.067 341.711 475.116 341.736C475.553 341.96 475.995 342.169 476.423 342.41C476.893 342.675 477.353 342.958 477.801 343.261C477.964 343.372 478.124 343.49 478.286 343.603C478.295 343.611 478.3 343.616 478.31 343.625C479.035 344.291 479.67 345.018 480.356 345.714C480.465 345.884 480.583 346.048 480.691 346.219C481.049 346.784 481.342 347.374 481.646 347.97C481.65 347.979 481.651 347.981 481.656 347.989C481.728 348.198 481.809 348.448 481.828 348.508C482.053 349.197 482.203 349.891 482.362 350.596C482.381 350.681 482.394 350.735 482.407 350.793C482.436 351.053 482.447 351.32 482.461 351.573C482.505 352.362 482.501 353.153 482.454 353.942C482.437 354.231 482.404 354.518 482.386 354.807C482.381 354.879 482.379 354.934 482.376 354.987C482.364 355.041 482.351 355.101 482.336 355.176C482.22 355.754 482.122 356.333 481.989 356.907C481.635 358.432 481.164 359.928 480.616 361.393C480.485 361.743 480.348 362.09 480.211 362.438C480.208 362.446 480.207 362.449 480.203 362.457C479.904 363.138 479.596 363.814 479.274 364.484C478.655 365.769 477.993 367.032 477.31 368.282C476.041 370.608 474.685 372.885 473.246 375.108C472.528 376.216 471.789 377.311 471.03 378.391C470.671 378.902 470.308 379.411 469.94 379.915C469.736 380.195 469.53 380.474 469.323 380.753C469.271 380.822 468.964 381.227 468.813 381.428C468.665 381.618 468.478 381.86 468.476 381.861C468.22 382.188 467.962 382.513 467.701 382.837C467.224 383.43 466.741 384.017 466.252 384.599C465.318 385.709 464.363 386.8 463.385 387.87C461.341 390.104 459.201 392.25 456.972 394.295C455.86 395.315 454.727 396.31 453.572 397.279C453.047 397.718 452.519 398.153 451.986 398.582C451.754 398.768 451.521 398.952 451.288 399.136C451.187 399.213 450.933 399.41 450.753 399.546C448.362 401.359 445.89 403.057 443.35 404.647C441.504 405.803 440.315 408.255 441.015 410.44C441.758 412.758 443.584 413.957 445.914 414.207C463.645 416.104 481.375 418.001 499.105 419.899C501.757 420.182 504.3 417.336 504.186 414.769C504.052 411.747 501.946 409.943 499.105 409.639ZM445.91 357.188C445.806 357.133 445.717 356.914 445.642 356.642C445.719 356.805 445.916 357.192 445.91 357.188ZM481.534 347.686C481.546 347.684 481.598 347.822 481.654 347.984C481.585 347.841 481.516 347.688 481.534 347.686ZM481.675 348.027C481.833 348.339 481.766 348.215 481.675 348.027ZM480.213 362.435C480.588 361.58 480.288 362.244 480.213 362.435Z" fill="white"/>
<path id="Vector_33" d="M397.622 333.628C395.679 333.484 393.791 333.704 391.867 333.975C391.102 334.083 390.422 334.461 389.855 334.995C384.425 336.159 379.383 339.087 375.412 343.007C369.817 348.531 366.456 356.096 365.277 363.846C364.042 371.958 364.457 380.291 366.331 388.28C368.081 395.738 371.434 402.969 376.737 408.529C381.946 413.991 389.167 417.322 396.647 417.809C404.097 418.293 411.49 415.107 416.296 409.341C421.094 403.584 423.714 396.431 425.497 389.208C427.572 380.804 428.408 372.172 427.112 363.583C424.844 348.556 413.235 334.783 397.622 333.628ZM378.297 392.476C378.197 392.247 378.017 391.748 378.297 392.476ZM417.434 376.516C417.366 377.329 417.276 378.14 417.176 378.95C417.141 379.192 417.079 379.639 417.067 379.717C416.973 380.324 416.871 380.929 416.761 381.534C416.159 384.851 415.352 388.14 414.344 391.355C413.921 392.705 413.503 394.128 412.915 395.425C412.882 395.491 412.849 395.558 412.827 395.606C412.665 395.959 412.51 396.315 412.344 396.666C411.959 397.48 411.546 398.28 411.101 399.062C410.724 399.726 410.324 400.377 409.897 401.009C409.756 401.219 409.605 401.422 409.466 401.632C409.436 401.677 409.415 401.709 409.393 401.744C409.377 401.762 409.366 401.775 409.349 401.795C408.863 402.368 408.382 402.938 407.855 403.474C407.593 403.74 407.324 404 407.048 404.252C406.865 404.42 406.678 404.584 406.488 404.745C406.055 405.099 406.106 405.066 406.639 404.644C406.721 404.957 404.118 406.314 403.317 406.653C403.184 406.685 403.051 406.72 402.976 406.746C402.634 406.865 402.288 406.974 401.939 407.072C401.477 407.202 400.269 407.683 399.822 407.534C400.034 407.507 400.245 407.479 400.457 407.451C400.217 407.48 399.977 407.504 399.736 407.524C399.375 407.555 399.012 407.575 398.65 407.586C397.921 407.607 397.192 407.59 396.465 407.537C396.203 407.517 395.943 407.487 395.683 407.462C395.664 407.458 395.651 407.455 395.63 407.451C394.783 407.274 393.94 407.111 393.107 406.873C392.388 406.667 391.694 406.406 390.989 406.162C390.951 406.15 390.925 406.141 390.894 406.13C390.645 406.014 390.394 405.903 390.147 405.782C388.959 405.2 387.362 404.49 386.321 403.549C386.236 403.452 386.107 403.316 386.007 403.233C385.769 403.033 385.534 402.83 385.304 402.622C384.726 402.1 384.174 401.549 383.644 400.978C383.167 400.464 382.721 399.925 382.278 399.382C382.146 399.213 381.941 398.95 381.888 398.874C381.653 398.544 381.426 398.21 381.204 397.872C380.314 396.516 379.524 395.094 378.824 393.629C378.648 393.261 378.485 392.888 378.314 392.517C378.311 392.509 378.306 392.497 378.301 392.488C377.975 391.635 377.647 390.786 377.359 389.919C376.341 386.853 375.447 383.529 375.154 380.299C375.142 380.171 375.131 380.056 375.125 380.003C375.094 379.731 375.065 379.459 375.038 379.187C374.948 378.303 374.875 377.418 374.821 376.531C374.712 374.751 374.677 372.966 374.729 371.183C374.759 370.145 374.819 369.107 374.912 368.072C374.952 367.63 375.002 367.189 375.049 366.747C375.09 366.47 375.133 366.193 375.18 365.917C375.495 364.033 375.934 362.17 376.517 360.351C376.651 359.933 376.792 359.517 376.942 359.104C376.997 358.949 377.432 357.901 377.405 357.933C377.715 357.249 378.038 356.572 378.393 355.911C378.828 355.1 379.301 354.311 379.813 353.547C380.01 353.253 380.222 352.838 380.48 352.596C380.303 352.762 380.209 352.85 380.154 352.903C380.273 352.788 380.535 352.533 380.637 352.409C381.793 351.002 383.088 349.761 384.465 348.579C384.492 348.556 384.509 348.54 384.532 348.521C384.57 348.496 384.607 348.471 384.657 348.438C384.975 348.223 385.283 347.992 385.604 347.78C386.348 347.288 387.117 346.835 387.91 346.426C388.226 346.262 388.549 346.113 388.87 345.959C389.071 345.88 389.272 345.803 389.475 345.73C390.185 345.476 390.908 345.256 391.641 345.078C392.007 344.989 392.375 344.91 392.746 344.841C392.846 344.823 392.946 344.808 393.046 344.791C393.105 344.785 393.173 344.778 393.262 344.768C394.152 344.732 395.025 344.682 395.917 344.719C396.825 344.756 397.716 344.479 398.495 343.997C398.654 344.026 398.814 344.053 398.973 344.086C399.746 344.247 400.51 344.449 401.263 344.691C401.611 344.803 401.956 344.924 402.299 345.052C402.355 345.073 402.437 345.096 402.524 345.119C403.109 345.273 403.744 345.71 404.263 345.994C404.862 346.321 405.447 346.67 406.019 347.042C406.333 347.246 406.642 347.456 406.947 347.673C407.118 347.793 407.286 347.917 407.454 348.042C408.502 348.928 409.511 349.843 410.449 350.851C410.967 351.409 411.451 351.993 411.938 352.579C411.957 352.602 411.969 352.616 411.986 352.635C412.009 352.671 412.032 352.706 412.064 352.752C412.313 353.12 412.574 353.478 412.818 353.849C413.616 355.063 414.329 356.335 414.942 357.654C414.966 357.706 415.017 357.807 415.072 357.915C415.248 358.287 415.377 358.705 415.514 359.088C415.819 359.941 416.092 360.805 416.333 361.677C416.574 362.547 416.782 363.426 416.961 364.311C417.051 364.753 417.132 365.197 417.207 365.642C417.221 365.726 417.281 366.159 417.316 366.394C417.511 368.087 417.619 369.79 417.632 371.494C417.644 373.17 417.574 374.846 417.434 376.516Z" fill="white"/>
<path id="Vector_34" d="M561.616 360.903C563.261 354.255 561.255 347.468 556.579 342.571C552.186 337.972 546.078 335.515 539.873 334.868C531.559 334.001 523.292 336.793 515.554 339.506C513.049 340.384 511.122 343.06 512.005 345.816C512.807 348.319 515.567 350.342 518.255 349.399C521.229 348.357 524.209 347.32 527.249 346.49C528.722 346.088 530.209 345.732 531.71 345.454C532.024 345.395 532.34 345.345 532.654 345.289C532.758 345.27 532.84 345.255 532.912 345.241C532.929 345.24 532.94 345.239 532.961 345.236C533.832 345.147 534.699 345.056 535.575 345.017C537.016 344.952 538.437 345.02 539.873 345.128C540.039 345.141 540.125 345.145 540.182 345.148C540.367 345.195 540.547 345.249 540.655 345.271C541.247 345.392 541.834 345.537 542.414 345.706C542.961 345.865 543.492 346.062 544.03 346.246C543.999 346.223 543.974 346.207 543.938 346.18C543.992 346.221 544.073 346.253 544.149 346.288C544.227 346.315 544.288 346.346 544.338 346.376C544.43 346.412 544.526 346.447 544.6 346.483C545.688 347.002 546.736 347.611 547.721 348.309C547.818 348.379 547.915 348.449 548.012 348.52C548.073 348.565 548.101 348.586 548.143 348.618C548.247 348.716 548.342 348.815 548.372 348.842C548.769 349.195 549.15 349.566 549.514 349.954C549.715 350.169 549.902 350.395 550.1 350.611C550.737 351.308 550.02 350.44 549.958 350.398C550.361 350.668 550.768 351.599 550.999 352.011C551.141 352.266 551.264 352.529 551.402 352.785C551.576 353.109 551.61 353.156 551.583 353.088C551.707 353.5 551.798 354.007 551.846 354.2C551.904 354.431 551.948 354.665 552.001 354.897C552.004 354.909 552.005 354.916 552.008 354.928C552.033 355.597 552.078 356.251 552.037 356.924C552.03 357.053 551.978 357.31 551.965 357.498C551.956 357.539 551.95 357.58 551.941 357.621C551.826 358.179 551.679 358.729 551.504 359.271C551.499 359.285 551.47 359.38 551.434 359.495C551.464 359.355 551.188 360.105 551.158 360.166C550.878 360.742 550.565 361.302 550.225 361.844C550.055 362.115 549.858 362.372 549.69 362.644C549.682 362.657 549.683 362.657 549.677 362.669C549.672 362.674 549.671 362.675 549.666 362.68C549.326 363.067 548.996 363.461 548.636 363.831C548.523 363.946 548.002 364.564 547.608 364.908C547.636 364.867 547.582 364.88 547.339 365.046C547.023 365.263 546.713 365.487 546.389 365.692C545.682 366.139 544.947 366.508 544.203 366.883C544.197 366.886 544.187 366.89 544.18 366.893C544.21 366.883 544.227 366.876 544.26 366.865C544.23 366.875 544.2 366.887 544.17 366.898C544.017 366.968 543.737 367.061 543.784 367.038C543.55 367.126 543.316 367.215 543.078 367.295C542.348 367.538 541.605 367.741 540.854 367.909C540.512 367.986 540.169 368.057 539.824 368.119C539.616 368.157 539.408 368.192 539.2 368.223C538.821 368.281 538.922 368.267 539.505 368.181C538.954 368.406 538.09 368.328 537.481 368.341C534.957 367.784 532.366 367.557 529.791 367.7C527.249 367.842 525.147 369.544 524.801 372.148C524.488 374.498 525.951 377.291 528.44 377.777C530.994 378.275 533.557 378.548 536.102 378.554C536.541 378.671 536.978 378.797 537.41 378.937C537.886 379.092 538.626 379.248 539.063 379.53C539.128 379.57 539.191 379.607 539.243 379.631C539.573 379.788 539.898 379.951 540.221 380.121C540.757 380.404 541.283 380.707 541.798 381.029C542.106 381.222 542.41 381.421 542.71 381.627C542.969 381.805 544.334 382.563 543.138 381.908C544.196 382.488 545.229 383.758 546.02 384.654C546.216 384.876 546.607 385.208 546.719 385.484C546.601 385.329 546.484 385.173 546.367 385.018C546.512 385.211 546.653 385.407 546.791 385.605C547.205 386.2 547.591 386.816 547.943 387.45C548.12 387.768 548.288 388.091 548.448 388.419C548.5 388.529 548.552 388.638 548.605 388.748C548.837 389.27 548.81 389.191 548.521 388.51C548.824 388.876 548.95 389.669 549.091 390.135C549.29 390.794 549.453 391.464 549.582 392.14C549.603 392.253 549.623 392.366 549.644 392.479C549.661 392.588 549.674 392.664 549.683 392.723C549.699 392.922 549.711 393.109 549.715 393.167C549.742 393.525 549.868 397.292 549.626 397.303C549.599 397.304 549.853 395.967 549.665 396.966C549.6 397.305 549.546 397.646 549.474 397.984C549.309 398.771 549.1 399.549 548.851 400.314C548.761 400.586 548.666 400.856 548.567 401.125C548.476 401.37 548.467 401.499 548.488 401.547C548.271 402.019 547.869 402.59 547.723 402.854C547.446 403.35 547.15 403.835 546.834 404.306C546.681 404.533 546.467 404.977 546.244 405.136C546.697 404.549 546.751 404.469 546.407 404.895C546.262 405.069 546.114 405.239 545.963 405.407C545.547 405.869 545.109 406.309 544.649 406.725C544.604 406.766 544.515 406.86 544.419 406.959C544.265 407.074 544.111 407.187 543.953 407.297C543.403 407.681 542.83 408.033 542.237 408.347C542.055 408.443 541.868 408.528 541.686 408.623C541.588 408.66 541.49 408.7 541.391 408.735C540.787 408.952 540.171 409.132 539.546 409.278C539.332 409.328 539.116 409.367 538.9 409.409C538.935 409.415 538.965 409.418 539.002 409.426C538.962 409.417 538.91 409.422 538.866 409.416C538.779 409.433 538.691 409.451 538.604 409.47C538.277 409.539 538.235 409.456 538.394 409.408C537.947 409.443 537.452 409.548 537.078 409.553C536.436 409.561 535.794 409.536 535.154 409.479C534.868 409.333 534.244 409.328 533.951 409.262C533.323 409.12 532.701 408.946 532.09 408.742C531.817 408.651 531.549 408.547 531.279 408.448C531.162 408.393 531.045 408.34 530.929 408.283C530.356 408 529.797 407.687 529.256 407.345C528.987 407.174 528.73 406.986 528.463 406.812C528.437 406.793 528.431 406.789 528.409 406.773C528.353 406.726 528.296 406.681 528.241 406.633C527.721 406.183 527.229 405.701 526.77 405.188C526.702 405.111 526.454 404.752 526.322 404.635C526.253 404.533 526.183 404.433 526.117 404.33C525.708 403.696 525.358 403.033 525.043 402.347C523.923 399.904 520.246 399.104 518.091 400.507C515.598 402.13 515.07 404.913 516.269 407.525C519.042 413.572 525.186 417.892 531.565 419.224C538.66 420.706 545.736 419.131 551.323 414.425C556.71 409.888 559.596 402.72 559.912 395.754C560.243 388.451 557.252 381.292 552.084 376.218C551.655 375.797 551.209 375.394 550.755 375C555.998 372.038 560.161 366.779 561.616 360.903ZM539.59 345.081C539.692 345.05 539.864 345.077 540.043 345.116C539.857 345.095 539.616 345.073 539.59 345.081ZM547.831 348.378C547.895 348.394 548.016 348.497 548.128 348.603C548.052 348.546 547.959 348.474 547.831 348.378ZM551.309 352.521C551.412 352.6 551.504 352.825 551.583 353.088C551.537 352.971 551.322 352.531 551.309 352.521ZM544.008 407.279C544.14 407.177 544.272 407.075 544.405 406.973C544.256 407.124 544.09 407.281 544.008 407.279ZM549.614 392.137C549.63 392.138 549.65 392.323 549.668 392.537C549.654 392.431 549.637 392.302 549.614 392.137Z" fill="white"/>
<path id="Vector_35" d="M538.866 409.416C538.877 409.414 538.888 409.411 538.9 409.409C538.665 409.368 538.491 409.379 538.394 409.408C538.564 409.395 538.72 409.398 538.866 409.416Z" fill="white"/>
<path id="Vector_36" d="M544.179 366.893C543.923 366.983 543.807 367.027 543.784 367.038C543.912 366.99 544.04 366.944 544.169 366.898C544.172 366.896 544.176 366.894 544.179 366.893Z" fill="white"/>
<path id="Vector_37" d="M544.14 346.284C544.103 346.271 544.067 346.258 544.03 346.246C544.489 346.575 544.532 346.492 544.338 346.375C544.268 346.348 544.215 346.317 544.149 346.288C544.146 346.287 544.144 346.285 544.14 346.284Z" fill="white"/>
</g>
<path id="Vector_38" d="M108.565 308.022C108.565 308.022 102.349 306.371 90.5719 321.565C78.7945 336.76 84.0289 445.102 84.0289 445.102L169.415 425.613L153.138 328.601L142.589 306.701L108.565 308.022Z" fill="#E6E6E6"/>
<g id="Group_9">
<path id="uuid-e9673029-d207-4f06-bf34-a369a7d7c1cd-47" d="M197.538 412.507L165.204 409.649L163.735 422.601L196.185 426.268C198.791 427.925 201.752 428.928 204.82 429.193C212.491 429.962 219.099 426.592 219.584 421.664C220.069 416.737 214.245 412.12 206.577 411.352C203.516 411.003 200.417 411.398 197.538 412.507Z" fill="#FDADB0"/>
<path id="Vector_39" d="M85.9163 336.495L103.004 414.713L191.334 429.247L194.605 406.786L134.41 392.252L114.781 323.547L85.9163 336.495Z" fill="#E6E6E6"/>
</g>
</g>
<defs>
<clipPath id="clip0_1_2">
<rect width="855" height="650" fill="white"/>
</clipPath>
</defs>
</svg>
