<svg width="855" height="650" viewBox="0 0 855 650" fill="none" xmlns="http://www.w3.org/2000/svg">
<g id="certificate2 1" clip-path="url(#clip0_1_55)">
<g id="Group">
<path id="Vector" d="M824.225 531.875H30.7747C13.8058 531.875 0 519.483 0 504.252V418.535H855V504.252C855 519.483 841.195 531.875 824.225 531.875Z" fill="#E6E6E6"/>
<path id="Vector_2" d="M530.191 517.536H327.851V647.262H530.191V517.536Z" fill="#E6E6E6"/>
<path id="Vector_3" d="M542.362 630.876H315.681V647.262H542.362V630.876Z" fill="#E6E6E6"/>
<path id="Vector_4" d="M854.239 454.722H0V18.9561C0 8.50391 9.47428 0 21.1191 0H833.12C844.765 0 854.239 8.50391 854.239 18.9561V454.722Z" fill="#3F3D56"/>
<path id="Vector_5" d="M833.701 19.8002H19.7778V430.825H833.701V19.8002Z" fill="white"/>
</g>
<g id="Group_2">
<path id="uuid-25324785-d0f2-4f1c-ad19-f4bb5410ff47-82" d="M177.403 264.782C183.633 260.162 191.339 259.302 194.614 262.861C197.889 266.42 195.494 273.049 189.261 277.67C186.8 279.547 183.873 280.867 180.727 281.52L154.056 300.797L144.245 289.371L171.579 271.58C172.888 268.929 174.885 266.598 177.403 264.782Z" fill="#FFB6B6"/>
<path id="Vector_6" d="M23.2511 308.276C23.2376 307.424 23.2465 299.987 29.38 295.287C36.4258 289.888 46.3677 292.073 49.8547 292.84C57.9098 294.61 58.5704 297.712 66.1351 300.899C80.2876 306.861 62.555 303.809 70.9762 301.897C73.8911 301.236 115.827 298.625 126.265 292.858C146.567 281.643 160.4 274.842 160.4 274.842L169.443 291.075C169.443 291.075 156.367 307.395 137.964 319.485C119.086 331.886 109.647 338.087 95.3027 340.483C94.0674 340.689 63.687 345.345 39.218 328.936C33.6367 325.194 23.4105 318.336 23.2511 308.276Z" fill="#6C63FF"/>
<path id="Vector_7" d="M51.3025 266.991C68.7004 266.991 82.8041 254.332 82.8041 238.716C82.8041 223.1 68.7004 210.441 51.3025 210.441C33.9046 210.441 19.8008 223.1 19.8008 238.716C19.8008 254.332 33.9046 266.991 51.3025 266.991Z" fill="#FFB6B6"/>
<g id="Group_3">
<path id="Vector_8" d="M298.012 428.68L265.569 398.872L248.822 414.552L272.993 443.132L296.968 445.593L298.012 428.68Z" fill="#FFB6B6"/>
<path id="Vector_9" d="M112.764 372.784C114.662 372.926 120.692 374.01 126.456 371.164C130.389 369.221 132.407 366.333 133.088 365.415C141.541 354.019 173.985 336.25 203.103 335.156C209.697 334.909 214.038 335.595 217.983 337.44C223.577 340.058 225.81 343.807 232.909 352.589C236.792 357.393 241.088 361.919 245.018 366.693C268.024 394.638 276.746 396.832 275.855 405.791C274.866 415.731 262.922 425.162 254.984 424.073C251.733 423.628 250.474 421.599 246.13 417.491C233.395 405.447 228.126 407.672 219.059 398.447C208.473 387.677 209.858 378.747 204.335 378.402C199.214 378.082 197.037 385.701 186.103 395.821C181.099 400.452 177.536 402.576 166.682 409.335C124.412 435.656 123.737 437.506 115.206 439.605C111.474 440.524 84.984 447.042 75.5475 436.669C60.7804 420.435 95.6664 371.509 112.764 372.784Z" fill="#2F2E41"/>
<path id="Vector_10" d="M288.093 435.415C290.479 434.454 293.269 433.329 294.167 430.744C294.774 428.994 294.424 426.836 293.169 425.346C291.72 423.626 289.576 423.399 289.663 423.095C289.795 422.631 294.865 422.812 300.431 424.578C301.481 424.911 306.239 426.472 312.291 430.713C317.14 434.111 316.487 434.792 319.528 436.751C328.862 442.765 337.616 438.025 342.667 443.665C344.616 445.842 345.448 448.933 344.627 451.432C342.98 456.45 334.969 458.177 330.591 459.068C320.046 461.216 312.065 459.463 303.731 458.202C275.39 453.916 259.466 457.82 257.334 451.926C256.931 450.811 257.586 450.906 259.771 442.72C261.928 434.642 261.857 432.423 263.694 431.776C266.459 430.802 268.316 435.232 275.281 436.748C281.454 438.091 286.547 436.039 288.093 435.415Z" fill="#2F2E41"/>
</g>
<g id="Group_4">
<path id="Vector_11" d="M240.334 526.191L232.138 485.175L208.471 489.708L210.591 525.539L228.889 539.66L240.334 526.191Z" fill="#FFB6B6"/>
<path id="Vector_12" d="M122.02 386.571C123.502 387.644 127.813 391.581 134.363 392.131C138.833 392.506 142.309 391.133 143.448 390.716C157.571 385.548 195.534 387.197 220.312 400.969C225.923 404.087 229.086 406.842 231.195 410.358C234.186 415.343 233.689 419.571 234.068 430.416C234.276 436.348 234.999 442.259 235.265 448.189C236.818 482.909 242.663 489.12 236.32 496.084C229.283 503.81 213.5 505.594 207.613 500.692C205.201 498.685 205.429 496.371 204.405 490.783C201.402 474.399 195.65 473.584 193.918 461.381C191.897 447.133 198.63 440.443 194.276 437.374C190.238 434.527 183.671 439.734 168.292 442.597C161.255 443.907 156.978 443.869 143.768 443.99C92.3242 444.465 90.6087 445.655 82.2368 443.093C78.5739 441.972 52.5764 434.014 51.2581 420.674C49.1951 399.798 108.67 376.898 122.02 386.571Z" fill="#2F2E41"/>
<path id="Vector_13" d="M227.913 526.765C230.489 527.172 233.501 527.648 235.862 525.96C237.459 524.819 238.519 522.857 238.413 520.991C238.291 518.838 236.658 517.57 236.921 517.361C237.32 517.045 241.402 519.75 244.902 524.016C245.562 524.821 248.523 528.51 250.878 535.07C252.764 540.326 251.798 540.561 253.089 543.714C257.049 553.395 267.259 553.885 267.909 561.098C268.16 563.882 266.915 566.858 264.673 568.512C260.17 571.834 252.461 569.225 248.28 567.756C238.212 564.219 232.705 558.745 226.597 553.502C205.828 535.67 190.209 530.874 192.132 524.924C192.496 523.797 192.979 524.206 199.908 518.535C206.747 512.937 208.077 511.065 210.001 511.456C212.899 512.044 211.664 516.645 216.479 521.41C220.746 525.633 226.244 526.501 227.913 526.765Z" fill="#2F2E41"/>
</g>
<path id="Vector_14" d="M55.5973 244.121C56.8237 240.184 55.2833 238.749 56.8533 236.981C56.8534 236.981 57.4851 236.27 63.1334 234.351C61.4669 225.672 62.7147 224.204 62.7147 224.204C64.1528 222.513 67.0336 222.104 68.9948 222.325C73.1427 222.793 73.8769 226.159 76.5309 226.083C80.1972 225.979 84.5945 219.392 83.2297 213.682C82.1163 209.025 77.3157 205.566 76.1122 206.166C74.9191 206.761 70.6238 204.137 68.9948 204.663C67.8824 205.022 62.6461 204.545 61.4587 205.039C60.1621 205.579 56.4488 208.941 56.0938 208.517C53.6268 205.574 53.6793 204.546 52.248 203.912C49.7117 202.788 46.9543 204.865 42.1998 206.918C32.4173 211.141 29.5529 208.622 25.0343 212.179C22.7517 213.976 21.5277 217.41 19.1729 224.204C15.8797 233.706 14.2331 238.457 15.8235 242.994C17.4455 247.62 19.8341 246.613 23.3596 253.14C27.2841 260.406 25.9315 264.629 29.6397 266.293C32.5057 267.579 37.1115 266.76 38.8505 264.414C41.8278 260.397 34.1323 254.962 36.7571 248.631C38.3683 244.744 43.3386 241.797 46.3866 242.618C49.8329 243.546 50.0867 249.092 52.248 249.007C54.0987 248.933 55.3836 244.807 55.5973 244.121Z" fill="#2F2E41"/>
<path id="Vector_15" d="M31.733 271.178C38.1794 264.69 64.4369 271.405 66.9014 281.7C67.9151 285.935 64.1729 287.723 65.2267 292.598C66.7681 299.729 75.4955 299.243 81.9736 306.502C91.1705 316.808 81.6958 326.883 92.0217 344.082C94.2282 347.757 96.0879 350.854 99.9765 353.852C108.9 360.731 117.204 358.372 121.747 364.75C125.145 369.52 123.749 375.398 123.422 376.775C122.081 382.422 118.447 383.798 115.886 388.425C111.625 396.123 116.449 401.775 116.723 410.972C117.066 422.48 110.253 438.432 96.6271 443.666C81.3193 449.546 62.8567 439.807 53.9226 430.138C48.5916 424.368 47.0441 419.045 44.7118 412.475C34.2885 383.114 28.3999 385.77 20.4289 362.495C11.3166 335.888 9.52518 304.717 20.4289 294.853C21.8741 293.546 25.8514 290.524 28.3836 285.082C31.7911 277.76 28.8474 274.082 31.733 271.178Z" fill="#6C63FF"/>
<g id="Group_5">
<path id="uuid-91308677-eda7-42a2-9f2e-a07e84038198-83" d="M126.985 422.201C131.982 427.901 132.757 434.836 128.715 437.69C124.674 440.544 117.347 438.237 112.348 432.535C110.316 430.282 108.915 427.624 108.262 424.786L87.4258 400.395L98.1925 393.024L119.551 416.813C122.473 418.05 125.022 419.898 126.985 422.201Z" fill="#FFB6B6"/>
<path id="Vector_16" d="M50.6736 295.903C51.6006 295.717 59.7131 294.208 66.0909 298.638C73.4172 303.727 73.0623 312.909 72.9379 316.13C72.6504 323.569 69.4024 324.782 67.4702 332.079C63.8552 345.732 70.7396 358.419 74.5431 365.429C75.8597 367.855 80.0894 375.279 88.5089 383.275C104.884 398.826 119.495 407.008 119.495 407.008L103.799 419.531C103.799 419.531 78.7966 412.691 61.8554 398.987C44.4777 384.93 17.7537 335.194 12.2137 323.078C11.7366 322.035 18.4946 338.997 31.3982 314.149C34.3414 308.481 39.7341 298.096 50.6736 295.903Z" fill="#6C63FF"/>
</g>
</g>
<g id="Group_6">
<path id="Vector_17" d="M452.397 284.237L433.656 276.268C441.343 285.897 447.966 300.934 451.512 312.9C457.516 301.754 467.194 288.116 476.774 279.969L456.967 284.543C469.172 230.853 515.078 192.31 567.646 192.31L568.39 190.37C513.481 190.37 464.858 228.38 452.397 284.237Z" fill="#3F3D56"/>
<path id="Vector_18" d="M538.653 366.042H420.242C415.219 366.042 411.133 362.374 411.133 357.866C411.133 353.358 415.219 349.691 420.242 349.691H538.653C543.675 349.691 547.761 353.358 547.761 357.866C547.761 362.374 543.675 366.042 538.653 366.042Z" fill="#6C63FF"/>
<path id="Vector_19" d="M696.214 366.042H577.803C572.78 366.042 568.694 362.374 568.694 357.866C568.694 353.358 572.78 349.691 577.803 349.691H696.214C701.236 349.691 705.322 353.358 705.322 357.866C705.322 362.374 701.236 366.042 696.214 366.042Z" fill="#E6E6E6"/>
</g>
<g id="Group_7">
<path id="Vector_20" d="M626.116 143.631H511.014C508.113 143.631 505.752 141.512 505.752 138.907C505.752 136.303 508.113 134.184 511.014 134.184H626.116C629.017 134.184 631.377 136.303 631.377 138.907C631.377 141.512 629.017 143.631 626.116 143.631Z" fill="#3F3D56"/>
<path id="Vector_21" d="M687.88 194.027H449.25C446.348 194.027 443.987 191.907 443.987 189.303C443.987 186.698 446.348 184.58 449.25 184.58H687.88C690.782 184.58 693.142 186.698 693.142 189.303C693.142 191.908 690.782 194.027 687.88 194.027Z" fill="#3F3D56"/>
</g>
<path id="Vector_22" d="M51.7388 648.47C51.7388 649.319 52.498 650 53.4434 650H801.557C802.502 650 803.261 649.319 803.261 648.47C803.261 647.622 802.502 646.94 801.557 646.94H53.4434C52.498 646.94 51.7388 647.622 51.7388 648.47Z" fill="#3F3D56"/>
<path id="Vector_23" d="M235.437 285.799C235.235 285.799 235.032 285.792 234.828 285.781C222.841 285.09 181.824 279.88 157.337 241.878C155.319 238.749 155.716 234.771 158.325 231.981L203.674 183.483C205.529 181.5 208.393 180.357 211.295 180.388C213.3 180.431 218.048 180.886 218.97 184.171C224.418 203.58 247.422 226.401 275.087 229.426C277.891 229.732 280.142 231.978 281.108 235.433C281.862 238.122 281.166 240.894 279.196 243.039L242.868 282.635C241.023 284.646 238.314 285.799 235.437 285.799ZM211.121 182.339C208.905 182.339 206.749 183.23 205.34 184.737L159.992 233.235C157.968 235.399 157.658 238.479 159.219 240.9C183.166 278.065 223.253 283.157 234.969 283.833C237.361 283.977 239.658 283.062 241.189 281.394L277.518 241.798C279.043 240.137 279.583 237.991 278.999 235.908C278.429 233.87 277.032 231.605 274.823 231.363C246.244 228.239 222.485 204.682 216.861 184.648C216.406 183.026 213.664 182.392 211.25 182.34C211.207 182.339 211.164 182.339 211.121 182.339Z" fill="#3F3D56"/>
<path id="Vector_24" d="M184.818 243.474L217.513 213.553C219.748 211.507 216.246 208.359 214.009 210.407L181.314 240.329C179.079 242.374 182.581 245.522 184.818 243.474Z" fill="#E6E6E6"/>
<path id="Vector_25" d="M204.552 251.904C213.575 244.645 221.416 236.24 227.837 227.017C229.532 224.582 225.246 222.347 223.558 224.772C217.35 233.688 209.77 241.742 201.047 248.759C198.667 250.673 202.182 253.811 204.552 251.904Z" fill="#E6E6E6"/>
<path id="Vector_26" d="M222.336 261.998C230.552 253.83 237.545 244.713 243.051 234.879C244.479 232.328 240.205 230.073 238.772 232.634C233.452 242.136 226.772 250.959 218.832 258.853C216.7 260.973 220.194 264.128 222.336 261.998Z" fill="#E6E6E6"/>
<g id="Group_8">
<path id="Vector_27" d="M208.329 208.13C226.534 208.13 241.292 195.163 241.292 179.167C241.292 163.171 226.534 150.204 208.329 150.204C190.124 150.204 175.366 163.171 175.366 179.167C175.366 195.163 190.124 208.13 208.329 208.13Z" fill="#6C63FF"/>
<path id="Vector_28" d="M225.48 192.906C220.411 181.718 215.341 170.531 210.272 159.343C209.572 157.798 207.378 157.743 206.695 159.343C201.686 171.072 198.413 183.311 196.839 195.79C196.571 197.916 200.282 197.898 200.548 195.79C201.164 190.907 202.078 186.06 203.252 181.265C207.429 181.462 211.641 181.041 215.672 180.04C217.749 184.623 219.826 189.207 221.904 193.791C222.791 195.749 226.381 194.893 225.48 192.906ZM204.093 177.974C205.342 173.383 206.84 168.848 208.578 164.385L214.263 176.93C210.933 177.715 207.528 178.064 204.093 177.974Z" fill="white"/>
</g>
</g>
<defs>
<clipPath id="clip0_1_55">
<rect width="855" height="650" fill="white"/>
</clipPath>
</defs>
</svg>
