<svg width="855" height="650" viewBox="0 0 855 650" fill="none" xmlns="http://www.w3.org/2000/svg">
<g id="cloud 1" clip-path="url(#clip0_1_94)">
<path id="Vector" d="M27.9686 401.979C27.836 401.855 27.7419 401.709 27.694 401.551C9.84114 342.963 12.8427 281.585 36.3633 224.275C59.8839 166.964 102.997 115.978 160.886 77.0133C218.775 38.0483 289.16 12.639 364.177 3.62415C439.194 -5.39069 515.889 2.34404 585.692 25.9642C585.85 26.0174 585.993 26.0948 586.113 26.192C586.233 26.2891 586.327 26.4041 586.391 26.5303C586.456 26.6566 586.488 26.7916 586.486 26.9277C586.485 27.0638 586.449 27.1984 586.382 27.3236C586.315 27.4489 586.218 27.5624 586.095 27.6578C585.973 27.7532 585.828 27.8284 585.67 27.8794C585.511 27.9303 585.341 27.9558 585.169 27.9546C584.998 27.9533 584.829 27.9252 584.671 27.872C441.86 -20.3758 279.808 -0.712809 161.755 79.188C44.4219 158.601 -5.97476 281.936 30.2313 401.064C30.3003 401.29 30.271 401.529 30.1483 401.741C30.0255 401.952 29.8164 402.125 29.5548 402.231C29.2932 402.337 28.9944 402.369 28.7066 402.324C28.4187 402.278 28.1588 402.156 27.9686 401.979Z" fill="#E6E6E6"/>
<path id="Vector_2" d="M266.483 624.441C266.292 624.263 266.182 624.04 266.171 623.807C266.16 623.574 266.248 623.344 266.421 623.156C266.594 622.968 266.842 622.831 267.125 622.769C267.408 622.706 267.709 622.721 267.98 622.812C410.254 670.152 571.526 650.228 688.861 570.813C808.025 490.161 858.629 366.183 820.926 247.263C820.884 247.131 820.875 246.993 820.9 246.859C820.925 246.724 820.983 246.595 821.071 246.478C821.159 246.361 821.275 246.259 821.413 246.178C821.55 246.097 821.707 246.038 821.873 246.004C822.039 245.971 822.212 245.964 822.382 245.984C822.551 246.004 822.714 246.05 822.861 246.12C823.008 246.19 823.136 246.282 823.239 246.392C823.341 246.501 823.415 246.625 823.457 246.757C841.753 304.544 839.433 365.238 816.757 422.037C793.278 480.57 749.543 532.674 690.553 572.392C632.954 611.396 562.864 636.938 488.082 646.177C413.299 655.417 336.757 647.99 266.97 624.724C266.782 624.661 266.615 624.564 266.483 624.441Z" fill="#E6E6E6"/>
<path id="Vector_3" d="M236.329 642.841C236.218 642.738 236.134 642.618 236.081 642.488C236.028 642.358 236.008 642.222 236.021 642.086C236.035 641.951 236.082 641.818 236.16 641.697C236.238 641.576 236.346 641.468 236.476 641.38L852.849 224.207C853.112 224.029 853.454 223.941 853.799 223.963C854.144 223.985 854.464 224.114 854.688 224.324C854.913 224.533 855.023 224.805 854.996 225.079C854.968 225.353 854.805 225.607 854.541 225.785L238.168 642.958C238.038 643.046 237.887 643.113 237.724 643.155C237.561 643.197 237.389 643.213 237.218 643.202C237.047 643.192 236.881 643.154 236.728 643.092C236.576 643.03 236.44 642.945 236.329 642.841Z" fill="#E6E6E6"/>
<path id="Vector_4" d="M0.31165 422.711C0.200501 422.607 0.116149 422.487 0.0633872 422.358C0.0106254 422.228 -0.00951141 422.092 0.00415246 421.956C0.0178163 421.82 0.0650047 421.688 0.143013 421.567C0.221021 421.445 0.328327 421.338 0.458795 421.249L616.832 4.07639C617.095 3.89843 617.437 3.81086 617.781 3.8329C618.126 3.85495 618.446 3.98482 618.67 4.19397C618.894 4.40313 619.005 4.67446 618.977 4.94835C618.95 5.22224 618.787 5.47628 618.524 5.65466L2.15097 422.828C2.02056 422.916 1.86952 422.983 1.70649 423.025C1.54346 423.067 1.37164 423.083 1.20083 423.072C1.03002 423.061 0.863591 423.024 0.711023 422.962C0.558455 422.9 0.422735 422.814 0.31165 422.711Z" fill="#E6E6E6"/>
<path id="Vector_5" d="M236.329 642.841C236.218 642.738 236.134 642.618 236.081 642.488C236.028 642.358 236.008 642.222 236.021 642.086C236.035 641.951 236.082 641.818 236.16 641.697C236.238 641.576 236.346 641.468 236.476 641.38L852.849 224.207C853.112 224.029 853.454 223.941 853.799 223.963C854.144 223.985 854.464 224.114 854.688 224.324C854.913 224.533 855.023 224.805 854.996 225.079C854.968 225.353 854.805 225.607 854.541 225.785L238.168 642.958C238.038 643.046 237.887 643.113 237.724 643.155C237.561 643.197 237.389 643.213 237.218 643.202C237.047 643.192 236.881 643.154 236.728 643.092C236.576 643.03 236.44 642.945 236.329 642.841Z" fill="#E6E6E6"/>
<path id="Vector_6" d="M720.632 171.944H482.077V170.952C482.077 170.179 481.69 169.438 481.002 168.891C480.315 168.345 479.382 168.038 478.409 168.038H377.574C376.601 168.038 375.668 168.345 374.981 168.891C374.293 169.438 373.906 170.179 373.906 170.952V171.944H134.367C130.088 171.944 125.983 173.295 122.957 175.699C119.931 178.104 118.231 181.365 118.231 184.765V444.299C118.231 447.699 119.931 450.96 122.957 453.365C125.983 455.769 130.088 457.12 134.367 457.12H720.632C724.912 457.12 729.016 455.769 732.042 453.365C735.068 450.96 736.769 447.699 736.769 444.299V184.765C736.769 181.365 735.069 178.104 732.042 175.699C729.016 173.295 724.912 171.944 720.632 171.944Z" fill="#3F3D56"/>
<path id="Vector_7" d="M147.2 199.23C146.8 199.231 146.416 199.357 146.133 199.582C145.85 199.807 145.691 200.112 145.691 200.43V446.604C145.691 446.922 145.85 447.227 146.133 447.452C146.416 447.677 146.8 447.804 147.2 447.804H707.799C708.199 447.804 708.583 447.677 708.866 447.452C709.149 447.227 709.309 446.922 709.309 446.604V200.43C709.309 200.112 709.149 199.807 708.866 199.582C708.583 199.357 708.199 199.231 707.799 199.23H147.2Z" fill="#6C63FF"/>
<path id="Vector_8" d="M427.008 187.57C430.267 187.57 432.908 185.471 432.908 182.882C432.908 180.293 430.267 178.195 427.008 178.195C423.75 178.195 421.108 180.293 421.108 182.882C421.108 185.471 423.75 187.57 427.008 187.57Z" fill="#6C63FF"/>
<path id="Vector_9" d="M747.512 439.628H691.37V435.022C691.37 434.769 691.011 434.563 690.568 434.563H671.319C670.876 434.563 670.517 434.769 670.517 435.022V439.628H658.486V435.022C658.486 434.769 658.127 434.563 657.684 434.563H638.435C637.992 434.563 637.633 434.769 637.633 435.022V439.628H625.603V435.022C625.603 434.769 625.244 434.563 624.801 434.563H605.552C605.109 434.563 604.75 434.769 604.75 435.022V439.628H592.719V435.022C592.719 434.769 592.36 434.563 591.917 434.563H572.668C572.225 434.563 571.866 434.769 571.866 435.022V439.628H559.836V435.022C559.836 434.769 559.477 434.563 559.034 434.563H539.785C539.342 434.563 538.983 434.769 538.983 435.022V439.628H526.952V435.022C526.952 434.769 526.593 434.563 526.15 434.563H506.901C506.458 434.563 506.099 434.769 506.099 435.022V439.628H494.069V435.022C494.069 434.769 493.71 434.563 493.267 434.563H342.484C342.041 434.563 341.682 434.769 341.682 435.022V439.628H329.651V435.022C329.651 434.769 329.292 434.563 328.849 434.563H309.6C309.157 434.563 308.798 434.769 308.798 435.022V439.628H296.768V435.022C296.768 434.769 296.409 434.563 295.966 434.563H276.717C276.274 434.563 275.915 434.769 275.915 435.022V439.628H263.884V435.022C263.884 434.769 263.525 434.563 263.082 434.563H243.833C243.39 434.563 243.031 434.769 243.031 435.022V439.628H231.001V435.022C231.001 434.769 230.642 434.563 230.199 434.563H210.95C210.507 434.563 210.148 434.769 210.148 435.022V439.628H198.117V435.022C198.117 434.769 197.758 434.563 197.315 434.563H178.066C177.623 434.563 177.264 434.769 177.264 435.022V439.628H165.234V435.022C165.234 434.769 164.875 434.563 164.432 434.563H145.183C144.74 434.563 144.381 434.769 144.381 435.022V439.628H107.487C96.8563 439.628 88.2383 444.55 88.2383 450.622V455.593C88.2383 461.665 96.8563 466.587 107.487 466.587H747.512C758.143 466.587 766.761 461.665 766.761 455.593V450.622C766.761 444.55 758.143 439.628 747.512 439.628Z" fill="#3F3D56"/>
<path id="Vector_10" d="M362.231 302.8H196.53C196.184 302.8 195.852 302.69 195.608 302.496C195.363 302.302 195.226 302.038 195.226 301.763C195.226 301.488 195.363 301.224 195.608 301.03C195.852 300.836 196.184 300.726 196.53 300.726H362.231C362.577 300.726 362.909 300.836 363.153 301.03C363.398 301.224 363.535 301.488 363.535 301.763C363.535 302.038 363.398 302.302 363.153 302.496C362.909 302.69 362.577 302.8 362.231 302.8Z" fill="#F2F2F2"/>
<path id="Vector_11" d="M362.231 325.606H196.53C196.184 325.606 195.852 325.496 195.608 325.302C195.363 325.107 195.226 324.844 195.226 324.569C195.226 324.294 195.363 324.03 195.608 323.836C195.852 323.641 196.184 323.532 196.53 323.532H362.231C362.577 323.532 362.909 323.641 363.153 323.836C363.398 324.03 363.535 324.294 363.535 324.569C363.535 324.844 363.398 325.107 363.153 325.302C362.909 325.496 362.577 325.606 362.231 325.606Z" fill="#F2F2F2"/>
<path id="Vector_12" d="M362.231 348.411H196.53C196.359 348.412 196.188 348.385 196.03 348.333C195.871 348.281 195.727 348.205 195.605 348.109C195.484 348.013 195.387 347.898 195.321 347.772C195.256 347.646 195.222 347.511 195.222 347.375C195.222 347.238 195.256 347.103 195.321 346.977C195.387 346.851 195.484 346.737 195.605 346.641C195.727 346.544 195.871 346.468 196.03 346.416C196.188 346.364 196.359 346.338 196.53 346.338H362.231C362.402 346.338 362.572 346.364 362.731 346.416C362.89 346.468 363.034 346.544 363.156 346.641C363.277 346.737 363.374 346.851 363.44 346.977C363.505 347.103 363.539 347.238 363.539 347.375C363.539 347.511 363.505 347.646 363.44 347.772C363.374 347.898 363.277 348.013 363.156 348.109C363.034 348.205 362.89 348.281 362.731 348.333C362.572 348.385 362.402 348.412 362.231 348.411Z" fill="#F2F2F2"/>
<path id="Vector_13" d="M643.399 243.193H438.557C436.395 243.193 434.643 244.586 434.643 246.303V402.835C434.643 404.552 436.395 405.944 438.557 405.944H643.399C645.561 405.944 647.314 404.552 647.314 402.835V246.303C647.314 244.586 645.561 243.193 643.399 243.193Z" fill="white"/>
<path id="Vector_14" d="M477.229 329.326C477.93 319.469 483.016 310.13 491.578 302.974C500.14 295.818 511.622 291.311 523.978 290.256C536.333 289.202 548.759 291.667 559.039 297.214C569.319 302.761 576.786 311.029 580.107 320.543C580.742 320.525 581.377 320.504 582.018 320.504C584.204 320.521 586.373 320.814 588.443 321.373C614.525 328.178 607.657 359.117 580.205 359.117H512.737C507.965 359.128 503.24 358.373 498.844 356.899C494.448 355.425 490.471 353.261 487.152 350.537C483.834 347.813 481.241 344.584 479.529 341.045C477.818 337.507 477.023 333.73 477.191 329.941C477.202 329.736 477.214 329.531 477.229 329.326Z" fill="#6C63FF"/>
<path id="Vector_15" d="M538.724 328.677V311.626H527.168V328.677H517.942L525.444 339.002L532.947 349.326L540.448 339.002L547.95 328.677H538.724Z" fill="white"/>
</g>
<defs>
<clipPath id="clip0_1_94">
<rect width="855" height="650" fill="white"/>
</clipPath>
</defs>
</svg>
