<svg width="855" height="650" viewBox="0 0 855 650" fill="none" xmlns="http://www.w3.org/2000/svg">
<g id="exercise 1" clip-path="url(#clip0_1_188)">
<g id="Group">
<path id="Vector" d="M492.386 222.367C492.386 222.367 492.036 235.004 464.281 253.474L457.997 262.855L516.642 291.018C521.925 291.221 527.859 292.384 533.77 294.567C549.107 300.232 558.461 310.594 554.664 317.71C550.867 324.826 535.356 326.003 520.02 320.338C516.665 319.099 513.597 317.635 510.889 316.03C490.787 311.837 401.356 291.795 411.253 268.991C422.393 243.32 433.294 213.305 433.294 213.305L492.386 222.367Z" fill="#FFB6B6"/>
<path id="Vector_2" d="M443.716 176.063C447.237 166.415 455.696 158.705 466.922 154.91C478.147 151.115 490.665 151.738 501.285 156.599C511.577 161.322 518.82 169.527 521.159 179.11C523.497 188.693 520.673 198.598 513.411 206.286L488.947 232.187L427.214 221.273L443.716 176.063Z" fill="#6C63FF"/>
<path id="Vector_3" d="M571.103 271.919C553.283 266.624 534.606 264.014 515.146 263.858C513.115 263.565 511.175 264.703 510.822 266.394L508.71 276.546C508.358 278.237 509.725 279.851 511.757 280.145C519.347 283.893 527.077 286.168 534.903 287.449L526.791 326.435C517.681 324.961 509.312 324.609 502.188 326.13C500.156 325.837 498.216 326.975 497.864 328.666L495.751 338.819C495.399 340.509 496.766 342.124 498.799 342.417C514.671 347.175 533.98 349.375 554.755 350.478C556.787 350.77 558.727 349.633 559.079 347.942L561.192 337.789C561.544 336.099 560.177 334.484 558.144 334.191C550.131 331.774 542.265 329.577 534.776 327.952L542.999 288.442C551.165 289.108 559.42 288.863 567.714 288.206C569.745 288.498 571.686 287.361 572.038 285.67L574.151 275.517C574.503 273.827 573.135 272.212 571.103 271.919Z" fill="#2F2E41"/>
</g>
<path id="Vector_4" d="M321.971 607.422L267.286 560.887L306.809 513.908L317.524 514.493C323.214 514.804 328.134 511.228 328.531 506.495L330.547 482.462C330.964 477.479 326.219 473.246 320.216 473.246H219.771C220.586 471.618 220.804 469.803 220.326 468.041L160.402 247.369C159.244 243.109 154.438 240.242 149.217 240.7L125.542 242.772C119.38 243.313 115.162 248.204 116.523 253.234L180.729 490.569C182.177 495.919 188.813 498.418 194.315 496.79C194.01 497.495 193.836 498.214 193.763 498.931L185.249 499.498L40.348 633.673H84.7533L196.935 529.639L304.442 633.673H339.499L340.668 616.172L321.971 607.422ZM216.856 509L275.664 512.21L252.628 548.414L219.138 519.916L216.856 509Z" fill="#F2F2F2"/>
<path id="Vector_5" d="M0 633.962C0 634.604 0.619372 635.119 1.39066 635.119H853.609C854.381 635.119 855 634.604 855 633.962C855 633.321 854.381 632.805 853.609 632.805H1.39066C0.619372 632.805 0 633.321 0 633.962Z" fill="#3F3D56"/>
<path id="Vector_6" d="M509.202 101.143C535.663 101.143 557.113 83.2958 557.113 61.2797C557.113 39.2635 535.663 21.4159 509.202 21.4159C482.742 21.4159 461.291 39.2635 461.291 61.2797C461.291 83.2958 482.742 101.143 509.202 101.143Z" fill="#FFB6B6"/>
<path id="Vector_7" d="M417.793 569.503V609.366L381.567 610.339L383.077 569.503H417.793Z" fill="#FFB6B6"/>
<path id="Vector_8" d="M407.177 604.288L407.047 604.451L406.818 604.493C405.944 604.654 385.338 608.372 379.339 601.385C378.864 600.832 378.452 600.603 378.096 600.693C374.175 601.74 371.05 626.652 371.05 636.104C371.05 641.675 385.989 643.109 404.903 644.927C413.738 645.775 423.752 646.737 433.674 648.266C455.246 651.59 473.024 643.364 481.703 638.164C483.238 637.244 484.178 635.815 484.281 634.243C484.385 632.664 483.634 631.151 482.22 630.091C470.777 621.512 432.934 593.4 426.396 591.846C425.93 591.736 425.451 591.684 424.961 591.684C417.374 591.684 407.285 604.154 407.177 604.288Z" fill="#2F2E41"/>
<path id="Vector_9" d="M485.569 569.503V609.366L449.344 610.339L450.853 569.503H485.569Z" fill="#FFB6B6"/>
<path id="Vector_10" d="M500.176 284.136L519.457 296.29L522.963 433.382L490.243 583.114L447.591 584.573L446.422 441.647L391.5 311.36L402.601 280.733L500.176 284.136Z" fill="#2F2E41"/>
<path id="Vector_11" d="M410.197 307.471L391.5 311.36L378.062 583.114L426.557 579.711L458.692 387.685L410.197 307.471Z" fill="#2F2E41"/>
<path id="Vector_12" d="M501.239 649.221C491.355 647.699 481.362 646.739 472.545 645.892C452.291 643.947 437.658 642.542 437.658 636.104C437.658 631.223 439.922 601.259 445.516 599.768C446.131 599.604 447.068 599.657 448.067 600.819C453.301 606.918 471.852 603.969 474.116 603.584C475.515 601.874 486.391 588.98 494.494 590.912C500.747 592.398 531.718 615.101 549.622 628.502C551.611 629.991 552.652 632.118 552.477 634.34C552.305 636.542 550.956 638.519 548.776 639.764C541.563 643.886 528.056 650 511.433 650C508.148 650 504.742 649.762 501.239 649.221Z" fill="#2F2E41"/>
<path id="Vector_13" d="M456.786 110.971L467.256 81.7098L512.82 91.3171L510.972 123.069L456.786 110.971Z" fill="#FFB6B6"/>
<path id="Vector_14" d="M402.494 281.211L401.985 281.132L410.012 175.757C411.671 153.99 421.148 133.447 437.417 116.348L457.373 95.3732L520.91 124.742L521.15 124.853L535.223 187.305L535.249 187.419L520.018 296.429L519.867 296.848L402.494 281.211Z" fill="#6C63FF"/>
<path id="Vector_15" d="M467.668 82.6195L471.773 83.4102C471.773 83.4102 478.837 60.4129 483.497 65.1857C488.158 69.9585 500.06 71.4208 500.06 71.4208L504.147 63.9042C504.147 63.9042 526.302 63.1896 529.978 54.7633C529.978 54.7633 577.03 56.6302 563.857 35.8242C550.684 15.0181 546.453 19.4623 546.453 19.4623C546.453 19.4623 533.584 13.1081 530.698 6.73963C527.813 0.371107 499.427 -5.1839 482.695 8.28801C421.388 57.6506 467.668 82.6195 467.668 82.6195Z" fill="#3F3D56"/>
<g id="Group_2">
<g id="Group_3">
<path id="Vector_16" d="M578.87 231.256L570.823 232.475L580.032 274.564L588.08 273.345L578.87 231.256Z" fill="#3F3D56"/>
<path id="Vector_17" d="M556.644 280.577C569.213 273.381 590.083 272.183 612.515 272.114C614.543 271.807 616.496 272.931 616.865 274.619L619.083 284.756C619.453 286.444 618.102 288.068 616.073 288.375C596.111 293.292 577.073 296.76 560.202 296.839C558.173 297.146 556.221 296.022 555.852 294.334L553.634 284.197C553.264 282.509 554.615 280.885 556.644 280.577Z" fill="#3F3D56"/>
<path id="Vector_18" d="M543.039 218.401C561.373 212.971 579.988 210.072 598.91 209.937C600.938 209.63 602.89 210.754 603.26 212.442L605.478 222.579C605.847 224.267 604.497 225.892 602.468 226.199C585.202 233.076 567.236 237.862 546.597 234.663C544.568 234.97 542.616 233.846 542.247 232.158L540.028 222.021C539.659 220.333 541.01 218.708 543.039 218.401Z" fill="#3F3D56"/>
</g>
<path id="Vector_19" d="M504.499 185.969C504.499 185.969 509.4 197.933 490.987 223.225L488.969 233.833L555.683 243.472C560.727 242.149 566.779 241.54 573.233 241.897C589.976 242.821 603.046 249.869 602.426 257.638C601.807 265.407 587.731 270.956 570.988 270.031C567.326 269.829 563.84 269.334 560.633 268.602C540.025 270.425 447.769 277.232 447.623 252.987C447.458 225.693 445.27 194.391 445.27 194.391L504.499 185.969Z" fill="#FFB6B6"/>
<path id="Vector_20" d="M439.643 156.44C438.955 146.373 443.706 136.712 452.675 129.932C461.643 123.153 473.654 120.152 485.636 121.673C497.253 123.159 507.448 128.786 513.61 137.113C519.772 145.44 521.219 155.549 517.583 164.848L505.334 196.173L442.86 203.614L439.643 156.44Z" fill="#6C63FF"/>
</g>
<g id="Group_4">
<path id="Vector_21" d="M184.378 571.115L182.247 613.858L190.42 614.141L192.551 571.397L184.378 571.115Z" fill="#3F3D56"/>
<path id="Vector_22" d="M157.843 615.449C172.005 610.726 192.681 613.374 214.583 617.407C216.643 617.478 218.251 618.932 218.166 620.646L217.652 630.941C217.567 632.656 215.82 633.993 213.76 633.922C192.987 635.069 173.499 634.971 157.019 631.964C154.959 631.892 153.351 630.439 153.437 628.725L153.95 618.43C154.035 616.715 155.782 615.378 157.843 615.449Z" fill="#3F3D56"/>
<path id="Vector_23" d="M160.991 552.304C180.312 550.36 199.237 550.934 217.731 554.263C219.792 554.334 221.399 555.788 221.314 557.502L220.801 567.797C220.715 569.511 218.968 570.849 216.908 570.778C198.247 574.33 179.457 575.714 160.168 568.819C158.107 568.748 156.5 567.295 156.585 565.58L157.098 555.285C157.184 553.571 158.931 552.233 160.991 552.304Z" fill="#3F3D56"/>
</g>
</g>
<defs>
<clipPath id="clip0_1_188">
<rect width="855" height="650" fill="white"/>
</clipPath>
</defs>
</svg>
