<svg width="1145" height="799" viewBox="0 0 1145 799" fill="none" xmlns="http://www.w3.org/2000/svg">
<g id="football 1" clip-path="url(#clip0_1_2)">
<path id="Vector" d="M0.390024 69.19C4.11002 100.8 30.2 125.83 36.39 157.05C37.1659 161.143 37.6405 165.288 37.81 169.45C38.7 187.38 35.15 205.68 36.98 223.64C40.39 257.32 60.86 283.64 86.85 306.45C106.51 323.66 129.33 338.8 150.32 353.45C203.76 390.78 253.88 437.91 275.83 499.29C290.46 540.22 291.58 584.7 302.32 626.82C313.06 668.94 337.52 712.04 378.86 725.47C423.23 739.89 472.12 715.85 517.78 725.35C566.78 735.55 601.53 781.86 649.88 794.94C711.31 811.56 772.53 770.72 835.59 762.21C865.87 758.12 896.69 761.59 927.13 758.97C961.016 756.023 993.826 745.599 1023.2 728.45C1033.2 722.58 1043.31 715.37 1047.96 704.71C1051.96 695.5 1051.35 685 1050.12 675.03C1045.52 638.03 1033.88 597.81 1052.19 565.29C1069.08 535.29 1110.01 513.83 1103.94 479.96C1100.29 459.57 1080.25 446.84 1061.67 437.71C1023.35 418.88 982.53 404.14 948.28 378.71C923.78 360.49 902.68 335.07 893.68 306.48C889.99 295.049 888.47 283.029 889.2 271.04C890.46 252.14 897 230.92 885.6 215.79C880.66 209.23 873.09 205.2 865.48 202.12C836.78 190.52 804.9 189.85 775.06 181.61C764.829 178.817 754.997 174.731 745.8 169.45C727.6 158.91 712.95 143.38 709.41 123.11C707.34 111.23 709.18 98.26 703.25 87.76C693.25 69.96 673.48 62.52 651.4 60.1C624.07 57.1 593.12 61.79 572.4 64.1L570.33 64.32C543.72 67.09 517.33 61.2 491.4 52.32C463.4 42.81 436.03 29.87 409.4 20.67C406.9 19.8033 404.407 18.9733 401.92 18.18C382.481 11.9854 362.577 7.35398 342.4 4.33001C313.944 0.0468073 285.101 -1.06667 256.4 1.01001C241.844 2.05881 227.36 3.94191 213.02 6.65001C208.807 7.45001 204.6 8.30668 200.4 9.22001C175.98 14.45 151.69 20.84 126.78 21.22C124.99 21.22 123.19 21.22 121.4 21.22C91.69 20.71 61.31 13.16 33.12 22.28C20.3 26.45 8.01002 34.65 2.85002 47.09C-0.0199771 54.02 -0.479976 61.75 0.390024 69.19Z" fill="#058237"/>
<path id="Vector_2" opacity="0.2" d="M37.81 169.45H63.48C63.863 162.813 66.1833 156.434 70.1539 151.102C74.1245 145.77 79.5712 141.719 85.82 139.45C81.1553 136.882 77.4771 132.835 75.3645 127.947C73.252 123.059 72.825 117.607 74.1509 112.45C75.4767 107.293 78.4801 102.723 82.6882 99.4598C86.8963 96.1967 92.07 94.4257 97.395 94.4257C102.72 94.4257 107.894 96.1967 112.102 99.4598C116.31 102.723 119.313 107.293 120.639 112.45C121.965 117.607 121.538 123.059 119.426 127.947C117.313 132.835 113.635 136.882 108.97 139.45C115.219 141.719 120.666 145.77 124.636 151.102C128.607 156.434 130.927 162.813 131.31 169.45H131.53C132.095 162.996 134.492 156.837 138.439 151.699C142.386 146.562 147.719 142.659 153.81 140.45C150.265 138.498 147.271 135.682 145.106 132.263C142.942 128.844 141.677 124.933 141.429 120.894C141.181 116.854 141.959 112.818 143.69 109.16C145.421 105.502 148.049 102.341 151.329 99.9714C154.609 97.6015 158.435 96.0994 162.452 95.605C166.468 95.1106 170.545 95.6398 174.302 97.1434C178.059 98.6471 181.375 101.076 183.941 104.205C186.507 107.334 188.241 111.061 188.98 115.04C191.921 112.64 195.244 110.75 198.81 109.45C194.145 106.882 190.467 102.835 188.355 97.9472C186.242 93.0591 185.815 87.6073 187.141 82.4501C188.467 77.2928 191.47 72.7229 195.678 69.4598C199.886 66.1967 205.06 64.4258 210.385 64.4258C215.71 64.4258 220.884 66.1967 225.092 69.4598C229.3 72.7229 232.303 77.2928 233.629 82.4501C234.955 87.6073 234.528 93.0591 232.416 97.9472C230.303 102.835 226.625 106.882 221.96 109.45C228.534 111.831 234.214 116.182 238.226 121.908C242.238 127.634 244.387 134.458 244.38 141.45V169.45H255.38V147.45C255.373 140.458 257.522 133.634 261.534 127.908C265.546 122.182 271.226 117.831 277.8 115.45C273.135 112.882 269.457 108.835 267.345 103.947C265.232 99.0591 264.805 93.6073 266.131 88.4501C267.457 83.2928 270.46 78.7229 274.668 75.4598C278.876 72.1967 284.05 70.4258 289.375 70.4258C294.7 70.4258 299.874 72.1967 304.082 75.4598C308.29 78.7229 311.293 83.2928 312.619 88.4501C313.945 93.6073 313.518 99.0591 311.406 103.947C309.293 108.835 305.615 112.882 300.95 115.45C305.297 117.033 309.276 119.485 312.646 122.655C316.016 125.825 318.705 129.648 320.55 133.89C324.573 128.172 330.256 123.829 336.83 121.45C332.165 118.882 328.487 114.835 326.375 109.947C324.262 105.059 323.835 99.6073 325.161 94.4501C326.487 89.2928 329.49 84.7229 333.698 81.4598C337.906 78.1967 343.08 76.4258 348.405 76.4258C353.73 76.4258 358.904 78.1967 363.112 81.4598C367.32 84.7229 370.323 89.2928 371.649 94.4501C372.975 99.6073 372.548 105.059 370.436 109.947C368.323 114.835 364.645 118.882 359.98 121.45C367.229 124.087 373.369 129.103 377.4 135.68V131.45C377.393 124.458 379.542 117.634 383.554 111.908C387.566 106.182 393.246 101.831 399.82 99.45C395.155 96.8818 391.477 92.8352 389.365 87.9472C387.252 83.0591 386.825 77.6073 388.151 72.4501C389.477 67.2928 392.48 62.7229 396.688 59.4598C400.896 56.1967 406.07 54.4258 411.395 54.4258C416.72 54.4258 421.894 56.1967 426.102 59.4598C430.31 62.7229 433.313 67.2928 434.639 72.4501C435.965 77.6073 435.538 83.0591 433.426 87.9472C431.313 92.8352 427.635 96.8818 422.97 99.45C429.544 101.831 435.224 106.182 439.236 111.908C443.248 117.634 445.397 124.458 445.39 131.45V169.45H457.39C459.259 165.309 461.938 161.583 465.268 158.492C468.597 155.401 472.512 153.007 476.78 151.45C472.115 148.882 468.437 144.835 466.325 139.947C464.212 135.059 463.785 129.607 465.111 124.45C466.437 119.293 469.44 114.723 473.648 111.46C477.856 108.197 483.03 106.426 488.355 106.426C493.68 106.426 498.854 108.197 503.062 111.46C507.27 114.723 510.273 119.293 511.599 124.45C512.925 129.607 512.498 135.059 510.386 139.947C508.273 144.835 504.595 148.882 499.93 151.45C502.301 152.311 504.568 153.435 506.69 154.8C507.535 148.655 510.044 142.859 513.947 138.038C517.849 133.217 522.996 129.556 528.83 127.45C524.165 124.882 520.487 120.835 518.375 115.947C516.262 111.059 515.835 105.607 517.161 100.45C518.487 95.2928 521.49 90.7229 525.698 87.4598C529.906 84.1967 535.08 82.4257 540.405 82.4257C545.73 82.4257 550.904 84.1967 555.112 87.4598C559.32 90.7229 562.323 95.2928 563.649 100.45C564.975 105.607 564.548 111.059 562.435 115.947C560.323 120.835 556.645 124.882 551.98 127.45C556.989 129.28 561.499 132.26 565.146 136.15C568.794 140.041 571.477 144.733 572.98 149.85C576.733 145.616 581.483 142.385 586.8 140.45C582.135 137.882 578.457 133.835 576.345 128.947C574.232 124.059 573.805 118.607 575.131 113.45C576.457 108.293 579.46 103.723 583.668 100.46C587.876 97.1967 593.05 95.4257 598.375 95.4257C603.7 95.4257 608.874 97.1967 613.082 100.46C617.29 103.723 620.293 108.293 621.619 113.45C622.945 118.607 622.518 124.059 620.406 128.947C618.293 133.835 614.615 137.882 609.95 140.45C613.619 141.789 617.029 143.751 620.03 146.25C621.857 141.921 624.559 138.017 627.966 134.782C631.373 131.547 635.413 129.051 639.83 127.45C635.165 124.882 631.487 120.835 629.375 115.947C627.262 111.059 626.835 105.607 628.161 100.45C629.487 95.2928 632.49 90.7229 636.698 87.4598C640.906 84.1967 646.08 82.4257 651.405 82.4257C656.73 82.4257 661.904 84.1967 666.112 87.4598C670.32 90.7229 673.323 95.2928 674.649 100.45C675.975 105.607 675.548 111.059 673.435 115.947C671.323 120.835 667.645 124.882 662.98 127.45C669.554 129.831 675.234 134.182 679.246 139.908C683.258 145.634 685.407 152.458 685.4 159.45V169.45H745.8C754.994 174.727 764.823 178.809 775.05 181.6C804.89 189.84 836.77 190.51 865.47 202.11C873.08 205.19 880.65 209.22 885.59 215.78C896.99 230.91 890.45 252.13 889.19 271.03C888.453 283.011 889.962 295.024 893.64 306.45H86.85C60.85 283.69 40.39 257.32 36.98 223.64C35.2 205.69 38.7 187.39 37.81 169.45Z" fill="black"/>
<path id="Vector_3" d="M993.9 76.97V464.96L973.9 451.96V76.97H961.9L956.9 438.96L937.9 424.96L950.9 71.97" stroke="#E0E0E0" stroke-miterlimit="10"/>
<path id="Vector_4" d="M1018.91 104.97L937.91 109.47" stroke="#E0E0E0" stroke-miterlimit="10"/>
<path id="Vector_5" d="M1013.91 124.97L937.91 127.97" stroke="#E0E0E0" stroke-miterlimit="10"/>
<path id="Vector_6" d="M1013.91 148.97L937.91 150.97" stroke="#E0E0E0" stroke-miterlimit="10"/>
<path id="Vector_7" d="M1013.91 170.97L937.91 173.97" stroke="#E0E0E0" stroke-miterlimit="10"/>
<path id="Vector_8" d="M1013.91 195.97H934.91" stroke="#E0E0E0" stroke-miterlimit="10"/>
<path id="Vector_9" d="M1013.91 220.97L932.91 217.97" stroke="#E0E0E0" stroke-miterlimit="10"/>
<path id="Vector_10" d="M1013.91 243.97L932.91 239.97" stroke="#E0E0E0" stroke-miterlimit="10"/>
<path id="Vector_11" d="M1013.91 268.97L932.91 262.97" stroke="#E0E0E0" stroke-miterlimit="10"/>
<path id="Vector_12" d="M1015.91 290.97L929.91 282.97" stroke="#E0E0E0" stroke-miterlimit="10"/>
<path id="Vector_13" d="M1015.91 315.97L929.91 302.97" stroke="#E0E0E0" stroke-miterlimit="10"/>
<path id="Vector_14" d="M1015.91 344.97L926.91 328.97" stroke="#E0E0E0" stroke-miterlimit="10"/>
<path id="Vector_15" d="M1015.91 377.97L926.91 351.97" stroke="#E0E0E0" stroke-miterlimit="10"/>
<path id="Vector_16" d="M1017.91 411.97L923.91 374.97" stroke="#E0E0E0" stroke-miterlimit="10"/>
<path id="Vector_17" d="M1017.91 442.97L923.91 396.97" stroke="#E0E0E0" stroke-miterlimit="10"/>
<path id="Vector_18" d="M915.9 75.97L899.9 416.96H878.9L891.9 75.97H868.9L853.9 416.96H830.9L843.9 75.97H815.9L805.9 416.96H780.9L791.9 78.97H765.9L759.9 416.96H736.9L743.9 75.97H720.9L715.9 416.96H693.9L698.9 75.97H672.9V416.96H646.9V75.97H622.9L626.9 416.96H605.9L599.9 75.97H575.9L583.9 416.96H562.9L552.9 75.97H531.9L539.9 416.96H520.9L505.9 75.97H485.9L501.9 416.96H481.9L459.9 75.97H435.9L463.9 416.96H444.9L417.9 75.97H398.9L426.9 416.96H405.9L378.9 71.97H359.9L390.9 416.96H370.9L338.9 71.97" stroke="#E0E0E0" stroke-miterlimit="10"/>
<path id="Vector_19" d="M293.9 76.97L323.9 422.96L308.9 434.96L285.9 76.97H269.9L285.9 447.96L262.9 462.96L253.91 71.97" stroke="#E0E0E0" stroke-miterlimit="10"/>
<path id="Vector_20" d="M231.91 115.97H323.91" stroke="#E0E0E0" stroke-miterlimit="10"/>
<path id="Vector_21" d="M231.91 140.97H323.91" stroke="#E0E0E0" stroke-miterlimit="10"/>
<path id="Vector_22" d="M231.91 168.97L323.91 165.97" stroke="#E0E0E0" stroke-miterlimit="10"/>
<path id="Vector_23" d="M231.91 192.97L327.91 187.97" stroke="#E0E0E0" stroke-miterlimit="10"/>
<path id="Vector_24" d="M231.91 219.97L327.91 215.97" stroke="#E0E0E0" stroke-miterlimit="10"/>
<path id="Vector_25" d="M231.91 248.97L331.91 243.97" stroke="#E0E0E0" stroke-miterlimit="10"/>
<path id="Vector_26" d="M231.91 276.97L331.91 266.97" stroke="#E0E0E0" stroke-miterlimit="10"/>
<path id="Vector_27" d="M231.91 308.97L331.91 284.97" stroke="#E0E0E0" stroke-miterlimit="10"/>
<path id="Vector_28" d="M231.91 336.97L335.91 301.97" stroke="#E0E0E0" stroke-miterlimit="10"/>
<path id="Vector_29" d="M231.91 365.97L335.91 325.97" stroke="#E0E0E0" stroke-miterlimit="10"/>
<path id="Vector_30" d="M228.91 393.97L332.44 350.52" stroke="#E0E0E0" stroke-miterlimit="10"/>
<path id="Vector_31" d="M228.91 425.97L335.91 371.97" stroke="#E0E0E0" stroke-miterlimit="10"/>
<path id="Vector_32" d="M228.91 454.97L338.91 393.97" stroke="#E0E0E0" stroke-miterlimit="10"/>
<path id="Vector_33" d="M937.91 104.97L323.91 109.97" stroke="#E0E0E0" stroke-miterlimit="10"/>
<path id="Vector_34" d="M937.41 122.97L323.41 127.97" stroke="#E0E0E0" stroke-miterlimit="10"/>
<path id="Vector_35" d="M936.91 140.97L322.91 145.97" stroke="#E0E0E0" stroke-miterlimit="10"/>
<path id="Vector_36" d="M936.41 158.97L322.41 163.97" stroke="#E0E0E0" stroke-miterlimit="10"/>
<path id="Vector_37" d="M935.91 176.97L321.91 181.97" stroke="#E0E0E0" stroke-miterlimit="10"/>
<path id="Vector_38" d="M935.41 194.97L329.41 199.97" stroke="#E0E0E0" stroke-miterlimit="10"/>
<path id="Vector_39" d="M934.91 212.97L328.91 217.97" stroke="#E0E0E0" stroke-miterlimit="10"/>
<path id="Vector_40" d="M934.41 230.97L328.41 235.97" stroke="#E0E0E0" stroke-miterlimit="10"/>
<path id="Vector_41" d="M933.91 248.97L327.91 253.97" stroke="#E0E0E0" stroke-miterlimit="10"/>
<path id="Vector_42" d="M933.41 266.97L333.41 271.97" stroke="#E0E0E0" stroke-miterlimit="10"/>
<path id="Vector_43" d="M932.91 284.97L332.91 289.97" stroke="#E0E0E0" stroke-miterlimit="10"/>
<path id="Vector_44" d="M932.41 302.97L332.41 307.97" stroke="#E0E0E0" stroke-miterlimit="10"/>
<path id="Vector_45" d="M931.91 320.97L335.91 325.97" stroke="#E0E0E0" stroke-miterlimit="10"/>
<path id="Vector_46" d="M931.41 338.97L335.41 343.97" stroke="#E0E0E0" stroke-miterlimit="10"/>
<path id="Vector_47" d="M930.91 356.97L337.91 361.97" stroke="#E0E0E0" stroke-miterlimit="10"/>
<path id="Vector_48" d="M930.41 374.97L337.41 379.97" stroke="#E0E0E0" stroke-miterlimit="10"/>
<path id="Vector_49" d="M929.91 392.97L336.91 397.97" stroke="#E0E0E0" stroke-miterlimit="10"/>
<path id="Vector_50" d="M1017.9 481.96L926.9 416.96H335.9L231.91 481.96" stroke="#E0E0E0" stroke-width="3" stroke-miterlimit="10"/>
<path id="Vector_51" d="M1023.55 411.63C1023.55 411.63 1025.86 343.37 1062.78 304.82C1078.38 288.743 1088.33 268.04 1091.16 245.82C1092.42 235.265 1092.71 224.618 1092.03 214.01" stroke="#535461" stroke-width="2" stroke-miterlimit="10"/>
<path id="Vector_52" d="M1115.15 189.58C1112.62 197.2 1091.5 214.72 1091.5 214.72C1091.5 214.72 1085.03 188.04 1087.56 180.42C1088.81 176.81 1091.44 173.838 1094.86 172.148C1098.29 170.457 1102.24 170.183 1105.87 171.386C1109.5 172.588 1112.51 175.17 1114.24 178.573C1115.98 181.976 1116.31 185.927 1115.16 189.57L1115.15 189.58Z" fill="#058237"/>
<path id="Vector_53" d="M1123.96 239.36C1117.7 244.36 1090.44 247.61 1090.44 247.61C1090.44 247.61 1099.51 221.7 1105.77 216.68C1107.25 215.437 1108.97 214.503 1110.82 213.932C1112.67 213.361 1114.61 213.165 1116.54 213.356C1118.47 213.547 1120.34 214.12 1122.04 215.043C1123.74 215.965 1125.24 217.218 1126.45 218.728C1127.66 220.238 1128.56 221.975 1129.09 223.836C1129.62 225.697 1129.78 227.646 1129.54 229.568C1129.31 231.489 1128.7 233.345 1127.74 235.027C1126.78 236.708 1125.5 238.182 1123.96 239.36Z" fill="#058237"/>
<path id="Vector_54" d="M1099.04 311.17C1091.1 312.34 1065.94 301.37 1065.94 301.37C1065.94 301.37 1086.85 283.58 1094.79 282.37C1098.56 281.901 1102.36 282.926 1105.39 285.225C1108.41 287.525 1110.41 290.916 1110.97 294.673C1111.52 298.431 1110.59 302.257 1108.36 305.332C1106.13 308.408 1102.78 310.489 1099.04 311.13V311.17Z" fill="#058237"/>
<path id="Vector_55" d="M1067.95 361.25C1060.32 363.75 1033.67 357.18 1033.67 357.18C1033.67 357.18 1051.27 336.12 1058.9 333.61C1060.73 332.972 1062.66 332.705 1064.59 332.823C1066.52 332.942 1068.41 333.444 1070.14 334.301C1071.87 335.158 1073.42 336.352 1074.68 337.813C1075.95 339.274 1076.91 340.973 1077.51 342.81C1078.12 344.648 1078.35 346.587 1078.19 348.514C1078.03 350.441 1077.49 352.317 1076.6 354.034C1075.71 355.75 1074.49 357.271 1073 358.508C1071.52 359.746 1069.8 360.674 1067.95 361.24V361.25Z" fill="#058237"/>
<path id="Vector_56" d="M1060.97 239.45C1064.68 246.57 1088.32 260.52 1088.32 260.52C1088.32 260.52 1090.47 233.16 1086.77 226.03C1085.89 224.336 1084.68 222.832 1083.22 221.604C1081.76 220.376 1080.07 219.448 1078.25 218.874C1076.43 218.299 1074.51 218.088 1072.61 218.254C1070.7 218.42 1068.85 218.959 1067.16 219.84C1065.47 220.721 1063.96 221.927 1062.73 223.39C1061.51 224.852 1060.58 226.542 1060 228.363C1059.43 230.184 1059.22 232.1 1059.38 234.003C1059.55 235.905 1060.09 237.756 1060.97 239.45Z" fill="#058237"/>
<path id="Vector_57" d="M1025.36 298.51C1031.03 304.2 1057.76 310.43 1057.76 310.43C1057.76 310.43 1051.63 283.68 1045.96 277.99C1043.22 275.33 1039.55 273.852 1035.74 273.875C1031.92 273.898 1028.27 275.42 1025.56 278.113C1022.86 280.806 1021.32 284.454 1021.28 288.27C1021.25 292.086 1022.71 295.764 1025.36 298.51Z" fill="#058237"/>
<path id="Vector_58" d="M998.62 360.64C1003.24 367.2 1028.54 377.86 1028.54 377.86C1028.54 377.86 1027.02 350.45 1022.39 343.86C1021.3 342.28 1019.9 340.932 1018.29 339.894C1016.67 338.855 1014.87 338.148 1012.98 337.811C1011.08 337.474 1009.15 337.516 1007.27 337.933C1005.4 338.35 1003.62 339.134 1002.05 340.241C1000.48 341.347 999.148 342.753 998.124 344.379C997.101 346.004 996.41 347.816 996.09 349.71C995.771 351.604 995.83 353.542 996.265 355.413C996.699 357.284 997.499 359.05 998.62 360.61V360.64Z" fill="#058237"/>
<path id="Vector_59" d="M1038.55 472.63C1038.55 472.63 1040.86 404.37 1077.78 365.82C1093.38 349.743 1103.33 329.04 1106.16 306.82C1107.42 296.266 1107.71 285.618 1107.03 275.01" stroke="#535461" stroke-width="2" stroke-miterlimit="10"/>
<path id="Vector_60" d="M1130.15 250.58C1127.62 258.2 1106.5 275.72 1106.5 275.72C1106.5 275.72 1100.03 249.04 1102.56 241.42C1103.81 237.81 1106.44 234.838 1109.86 233.148C1113.29 231.457 1117.24 231.183 1120.87 232.386C1124.5 233.588 1127.51 236.17 1129.24 239.573C1130.98 242.976 1131.31 246.927 1130.16 250.57L1130.15 250.58Z" fill="#058237"/>
<path id="Vector_61" d="M1138.96 300.36C1132.7 305.36 1105.44 308.61 1105.44 308.61C1105.44 308.61 1114.51 282.7 1120.77 277.68C1122.25 276.437 1123.97 275.503 1125.82 274.932C1127.67 274.361 1129.61 274.165 1131.54 274.356C1133.47 274.547 1135.34 275.12 1137.04 276.043C1138.74 276.965 1140.24 278.218 1141.45 279.728C1142.66 281.238 1143.56 282.975 1144.09 284.836C1144.62 286.697 1144.78 288.646 1144.54 290.568C1144.31 292.489 1143.7 294.345 1142.74 296.027C1141.78 297.708 1140.5 299.182 1138.96 300.36Z" fill="#058237"/>
<path id="Vector_62" d="M1114.04 372.17C1106.1 373.34 1080.94 362.37 1080.94 362.37C1080.94 362.37 1101.85 344.58 1109.79 343.37C1113.56 342.901 1117.36 343.926 1120.39 346.225C1123.41 348.525 1125.41 351.916 1125.97 355.673C1126.52 359.431 1125.59 363.257 1123.36 366.332C1121.13 369.408 1117.78 371.489 1114.04 372.13V372.17Z" fill="#058237"/>
<path id="Vector_63" d="M1082.95 422.25C1075.32 424.75 1048.67 418.18 1048.67 418.18C1048.67 418.18 1066.27 397.12 1073.9 394.61C1075.73 393.972 1077.66 393.705 1079.59 393.823C1081.52 393.942 1083.41 394.444 1085.14 395.301C1086.87 396.158 1088.42 397.352 1089.68 398.813C1090.95 400.274 1091.91 401.973 1092.51 403.81C1093.12 405.648 1093.35 407.587 1093.19 409.514C1093.03 411.441 1092.49 413.317 1091.6 415.034C1090.71 416.75 1089.49 418.271 1088 419.508C1086.52 420.746 1084.8 421.674 1082.95 422.24V422.25Z" fill="#058237"/>
<path id="Vector_64" d="M1075.97 300.45C1079.68 307.57 1103.32 321.52 1103.32 321.52C1103.32 321.52 1105.47 294.16 1101.77 287.03C1099.99 283.609 1096.92 281.034 1093.25 279.874C1089.57 278.713 1085.58 279.06 1082.16 280.84C1078.74 282.62 1076.16 285.685 1075 289.363C1073.84 293.041 1074.19 297.029 1075.97 300.45Z" fill="#058237"/>
<path id="Vector_65" d="M1040.36 359.51C1046.03 365.2 1072.76 371.43 1072.76 371.43C1072.76 371.43 1066.63 344.68 1060.96 338.99C1058.22 336.33 1054.55 334.852 1050.74 334.875C1046.92 334.898 1043.27 336.42 1040.56 339.113C1037.86 341.806 1036.32 345.454 1036.28 349.27C1036.25 353.086 1037.71 356.764 1040.36 359.51Z" fill="#058237"/>
<path id="Vector_66" d="M1013.62 421.64C1018.24 428.2 1043.54 438.86 1043.54 438.86C1043.54 438.86 1042.02 411.45 1037.39 404.86C1036.3 403.28 1034.9 401.932 1033.29 400.894C1031.67 399.855 1029.87 399.148 1027.98 398.811C1026.08 398.474 1024.15 398.516 1022.27 398.933C1020.4 399.35 1018.62 400.134 1017.05 401.241C1015.48 402.347 1014.15 403.753 1013.12 405.379C1012.1 407.004 1011.41 408.816 1011.09 410.71C1010.77 412.604 1010.83 414.542 1011.26 416.413C1011.7 418.284 1012.5 420.05 1013.62 421.61V421.64Z" fill="#058237"/>
<path id="Vector_67" d="M217.4 107.8C217.89 88.45 231.29 71.45 250.2 67.3L250.74 67.19C251.504 67.0377 252.281 66.964 253.06 66.97H1001.46C1006.99 66.925 1012.43 68.3125 1017.26 70.9973C1022.1 73.6822 1026.15 77.5727 1029.03 82.29L1029.22 82.62C1030.32 84.5503 1030.91 86.7284 1030.94 88.95L1037.89 481.95H1013.89L1005.89 97.95C1005.89 97.95 1005.89 86.95 995.89 85.95C994.36 85.8 975.8 85.69 945.48 85.62L927.9 417.96H917.9L937.45 85.61C804.15 85.35 477.88 85.68 326.45 85.86L345.87 415.96H335.87L318.43 85.87L260.79 85.94C256.563 85.9427 252.411 87.0518 248.746 89.1571C245.081 91.2623 242.032 94.2904 239.9 97.94L231.9 481.94H207.9L217.4 107.8Z" fill="#E0E0E0"/>
<path id="Vector_68" d="M207.77 490.05C207.77 490.05 204.53 437.19 230.2 404.71C241.055 391.156 247.22 374.446 247.77 357.09C247.964 348.843 247.402 340.595 246.09 332.45" stroke="#535461" stroke-width="2" stroke-miterlimit="10"/>
<path id="Vector_69" d="M262.15 311.91C260.76 317.98 245.74 333.06 245.74 333.06C245.74 333.06 238.74 312.94 240.17 306.88C240.498 305.435 241.108 304.07 241.964 302.861C242.82 301.652 243.906 300.623 245.16 299.834C246.413 299.045 247.81 298.51 249.27 298.261C250.73 298.011 252.225 298.052 253.67 298.38C255.115 298.708 256.48 299.318 257.689 300.174C258.898 301.03 259.927 302.116 260.716 303.37C261.505 304.623 262.04 306.02 262.289 307.48C262.539 308.94 262.498 310.435 262.17 311.88L262.15 311.91Z" fill="#6C63FF"/>
<path id="Vector_70" d="M272.61 349.69C268.14 354.03 247.34 358.53 247.34 358.53C247.34 358.53 252.43 337.86 256.9 333.53C257.962 332.498 259.216 331.686 260.592 331.139C261.968 330.593 263.437 330.322 264.918 330.344C266.398 330.365 267.859 330.678 269.219 331.264C270.578 331.85 271.808 332.698 272.84 333.76C273.872 334.822 274.684 336.076 275.231 337.452C275.777 338.828 276.048 340.297 276.026 341.778C276.005 343.258 275.692 344.719 275.106 346.079C274.52 347.438 273.672 348.668 272.61 349.7V349.69Z" fill="#6C63FF"/>
<path id="Vector_71" d="M258.66 406.95C252.66 408.44 232.39 401.82 232.39 401.82C232.39 401.82 247.2 386.55 253.26 385.06C256.163 384.344 259.231 384.81 261.79 386.357C264.349 387.903 266.189 390.402 266.905 393.305C267.621 396.208 267.155 399.276 265.608 401.835C264.062 404.394 261.563 406.234 258.66 406.95Z" fill="#6C63FF"/>
<path id="Vector_72" d="M238.34 447.9C232.63 450.39 211.58 447.28 211.58 447.28C211.58 447.28 223.58 429.72 229.32 427.28C230.682 426.653 232.156 426.304 233.654 426.254C235.153 426.203 236.647 426.452 238.048 426.987C239.449 427.521 240.73 428.329 241.814 429.365C242.899 430.4 243.766 431.641 244.365 433.016C244.964 434.391 245.283 435.871 245.302 437.371C245.322 438.87 245.042 440.359 244.479 441.748C243.916 443.138 243.081 444.402 242.023 445.465C240.966 446.528 239.707 447.37 238.32 447.94L238.34 447.9Z" fill="#6C63FF"/>
<path id="Vector_73" d="M224 354.45C227.38 359.68 246.66 368.7 246.66 368.7C246.66 368.7 246.31 347.42 242.92 342.19C241.294 339.681 238.738 337.921 235.815 337.296C232.891 336.672 229.839 337.234 227.33 338.86C224.821 340.486 223.061 343.042 222.436 345.965C221.812 348.889 222.374 351.941 224 354.45Z" fill="#6C63FF"/>
<path id="Vector_74" d="M200.85 402.6C205.64 406.6 226.74 409.42 226.74 409.42C226.74 409.42 220.04 389.22 215.24 385.24C214.1 384.295 212.785 383.584 211.371 383.147C209.956 382.711 208.469 382.557 206.995 382.695C205.521 382.833 204.088 383.259 202.779 383.951C201.47 384.643 200.31 385.585 199.365 386.725C198.42 387.865 197.709 389.18 197.272 390.594C196.836 392.009 196.682 393.496 196.82 394.97C196.958 396.444 197.384 397.877 198.076 399.186C198.768 400.495 199.71 401.655 200.85 402.6Z" fill="#6C63FF"/>
<path id="Vector_75" d="M184.78 452.53C188.83 457.26 209.14 463.63 209.14 463.63C209.14 463.63 205.95 442.63 201.89 437.86C199.943 435.59 197.175 434.186 194.193 433.957C191.211 433.728 188.26 434.693 185.99 436.64C183.72 438.587 182.316 441.356 182.087 444.337C181.858 447.319 182.823 450.27 184.77 452.54L184.78 452.53Z" fill="#6C63FF"/>
<path id="Vector_76" opacity="0.5" d="M262.15 311.91C260.76 317.98 245.74 333.06 245.74 333.06C245.74 333.06 238.74 312.94 240.17 306.88C240.498 305.435 241.108 304.07 241.964 302.861C242.82 301.652 243.906 300.623 245.16 299.834C246.413 299.045 247.81 298.51 249.27 298.261C250.73 298.011 252.225 298.052 253.67 298.38C255.115 298.708 256.48 299.318 257.689 300.174C258.898 301.03 259.927 302.116 260.716 303.37C261.505 304.623 262.04 306.02 262.289 307.48C262.539 308.94 262.498 310.435 262.17 311.88L262.15 311.91Z" fill="white"/>
<path id="Vector_77" opacity="0.5" d="M272.61 349.69C268.14 354.03 247.34 358.53 247.34 358.53C247.34 358.53 252.43 337.86 256.9 333.53C257.962 332.498 259.216 331.686 260.592 331.139C261.968 330.593 263.437 330.322 264.918 330.344C266.398 330.365 267.859 330.678 269.219 331.264C270.578 331.85 271.808 332.698 272.84 333.76C273.872 334.822 274.684 336.076 275.231 337.452C275.777 338.828 276.048 340.297 276.026 341.778C276.005 343.258 275.692 344.719 275.106 346.079C274.52 347.438 273.672 348.668 272.61 349.7V349.69Z" fill="white"/>
<path id="Vector_78" opacity="0.5" d="M258.66 406.95C252.66 408.44 232.39 401.82 232.39 401.82C232.39 401.82 247.2 386.55 253.26 385.06C256.163 384.344 259.231 384.81 261.79 386.357C264.349 387.903 266.189 390.402 266.905 393.305C267.621 396.208 267.155 399.276 265.608 401.835C264.062 404.394 261.563 406.234 258.66 406.95Z" fill="white"/>
<path id="Vector_79" opacity="0.5" d="M238.34 447.9C232.63 450.39 211.58 447.28 211.58 447.28C211.58 447.28 223.58 429.72 229.32 427.28C230.682 426.653 232.156 426.304 233.654 426.254C235.153 426.203 236.647 426.452 238.048 426.987C239.449 427.521 240.73 428.329 241.814 429.365C242.899 430.4 243.766 431.641 244.365 433.016C244.964 434.391 245.283 435.871 245.302 437.371C245.322 438.87 245.042 440.359 244.479 441.748C243.916 443.138 243.081 444.402 242.023 445.465C240.966 446.528 239.707 447.37 238.32 447.94L238.34 447.9Z" fill="white"/>
<path id="Vector_80" opacity="0.5" d="M224 354.45C227.38 359.68 246.66 368.7 246.66 368.7C246.66 368.7 246.31 347.42 242.92 342.19C241.294 339.681 238.738 337.921 235.815 337.296C232.891 336.672 229.839 337.234 227.33 338.86C224.821 340.486 223.061 343.042 222.436 345.965C221.812 348.889 222.374 351.941 224 354.45Z" fill="white"/>
<path id="Vector_81" opacity="0.5" d="M200.85 402.6C205.64 406.6 226.74 409.42 226.74 409.42C226.74 409.42 220.04 389.22 215.24 385.24C214.1 384.295 212.785 383.584 211.371 383.147C209.956 382.711 208.469 382.557 206.995 382.695C205.521 382.833 204.088 383.259 202.779 383.951C201.47 384.643 200.31 385.585 199.365 386.725C198.42 387.865 197.709 389.18 197.272 390.594C196.836 392.009 196.682 393.496 196.82 394.97C196.958 396.444 197.384 397.877 198.076 399.186C198.768 400.495 199.71 401.655 200.85 402.6Z" fill="white"/>
<path id="Vector_82" opacity="0.5" d="M184.78 452.53C188.83 457.26 209.14 463.63 209.14 463.63C209.14 463.63 205.95 442.63 201.89 437.86C199.943 435.59 197.175 434.186 194.193 433.957C191.211 433.728 188.26 434.693 185.99 436.64C183.72 438.587 182.316 441.356 182.087 444.337C181.858 447.319 182.823 450.27 184.77 452.54L184.78 452.53Z" fill="white"/>
<g id="Group" opacity="0.1">
<path id="Vector_83" d="M382.2 286.8C382.08 286.65 382.02 286.55 382.02 286.55L382.2 286.8Z" fill="url(#paint0_linear_1_2)"/>
</g>
<path id="Vector_84" d="M547.54 300.45C547.35 306.82 551.3 309.21 551.3 309.21L588.2 341.89C602.44 347.05 604.2 374.12 604.2 374.12C605.6 376.62 606.2 380.96 606.2 386.12C606.03 402.12 601.51 424.42 601.51 424.42L601.64 424.63L601.51 425.28L601.64 425.49L601.51 426.14C602.217 427.282 602.981 428.386 603.8 429.45C599.8 437.64 592.35 450.82 589.13 453.63C584.68 457.5 575.78 486.29 575.78 486.29L576.07 486.22L575.78 487.15H575.97C573.81 491.32 571.61 496.7 571.14 502.01C570.823 505.492 570.101 508.925 568.99 512.24C567.678 516.092 567.563 520.251 568.66 524.17C569.541 527.305 570.124 530.516 570.4 533.76C570.958 540.011 572.493 546.135 574.95 551.91C579.02 561.58 584.41 574.79 584.69 577.45C584.84 578.89 585.19 581.01 585.59 583.2L585.36 583.26L575.79 604.96C575.79 604.96 573.12 610.96 567.79 610.96C567.271 610.957 566.756 611.063 566.281 611.274C565.806 611.484 565.381 611.792 565.034 612.179C564.687 612.565 564.427 613.021 564.269 613.516C564.111 614.011 564.061 614.534 564.12 615.05C564.05 615.653 564.129 616.264 564.35 616.83V616.89C564.35 616.99 564.44 617.09 564.48 617.19L564.57 617.36C564.62 617.46 564.68 617.55 564.75 617.65L564.87 617.82L565.09 618.09L565.24 618.26L565.5 618.52L565.68 618.69L565.98 618.93L566.2 619.09L566.55 619.31L566.81 619.47L567.2 619.67L567.5 619.82L567.93 620L568.27 620.14L568.75 620.3L569.13 620.42L569.67 620.55L570.1 620.65L570.69 620.75L571.16 620.83L571.81 620.9L572.32 620.96H573.04H573.58H574.95H575.9H576.43C576.943 620.96 577.473 620.917 578.02 620.83C595.38 619.11 608.28 605.83 608.28 605.83V605.58V605.33V605.08L608.34 605.01C608.34 605.01 607.22 587.72 600.87 583.81C600.238 580.598 599.903 577.334 599.87 574.06C599.87 562.06 603.43 549.99 593.64 530.22C593.64 530.22 593.19 525.06 596.76 517.33C598.853 513.187 601.17 509.161 603.7 505.27L604.14 505.22L603.43 506.16C603.43 506.16 615 505.3 615.89 497.56C615.974 496.916 616.125 496.283 616.34 495.67C619.02 487.89 631.96 476.86 637.7 476.07C643.93 475.21 656.39 489.82 661.29 500.14C661.57 500.73 661.86 501.29 662.15 501.8C666.93 510.21 672.86 508.31 672.86 508.31C672.65 508.06 672.47 507.82 672.28 507.57C672.476 507.545 672.67 507.505 672.86 507.45C672.336 506.814 671.851 506.146 671.41 505.45C675.86 510.27 680.59 514.71 682.65 517.3C687.1 522.89 684.88 526.75 684.88 528.47C684.88 536.22 674.64 558.98 677.31 571.47C678.63 577.64 677.12 584.86 675.25 590.58H674.86C667.29 593.44 666.41 603.7 666.47 608.86C666.47 609.02 666.47 609.18 666.47 609.33C666.47 609.59 666.47 609.84 666.47 610.08V610.24C666.47 610.433 666.47 610.62 666.47 610.8V610.93C666.47 611.13 666.47 611.32 666.47 611.49C666.47 611.67 666.47 611.84 666.47 611.98V612.04V612.34V612.42V612.58V612.69C666.47 612.69 687.83 622.14 706.08 624.69C706.72 624.78 707.33 624.85 707.92 624.9H708.46L709.61 624.97H711.17H711.67C712.02 624.97 712.35 624.97 712.67 624.89H712.99C713.403 624.837 713.793 624.77 714.16 624.69L714.4 624.63C714.68 624.56 714.94 624.5 715.19 624.42L715.52 624.31L716.11 624.08L716.41 623.94C716.59 623.85 716.76 623.76 716.93 623.66L717.2 623.45C717.402 623.319 717.596 623.175 717.78 623.02C717.962 622.863 718.133 622.692 718.29 622.51L718.42 622.35C718.52 622.228 718.613 622.101 718.7 621.97L718.82 621.77C718.893 621.643 718.957 621.517 719.01 621.39L719.1 621.19C719.155 621.046 719.201 620.899 719.24 620.75V620.6C719.283 620.406 719.313 620.208 719.33 620.01C719.33 620.01 719.33 619.94 719.33 619.9C719.338 619.74 719.338 619.58 719.33 619.42C719.33 619.36 719.33 619.29 719.33 619.23C719.59 616.59 717.5 613.96 715.41 614.36C710.96 615.22 705.17 610.06 705.17 610.06L693 590.18C692.81 585.53 693.33 579.62 696.27 574.82C702.06 565.37 709.18 545.17 709.18 545.17C709.18 545.17 708.29 532.71 711.85 526.69C715.41 520.67 711.85 511.22 711.85 511.22L700.96 490.22C702.21 490.22 702.96 490.22 702.96 490.22L702.57 489.36H702.96C702.96 489.36 689.61 459.71 684.27 456.27C680.46 453.82 675.08 440.02 672.27 432.27C673.39 431.68 674.01 431.27 674.01 431.27C674.01 431.27 677.13 393.88 677.13 370.27C677.13 346.66 693.13 337.18 693.13 337.18L730.2 315.24C739.99 311.37 741.33 301.49 741.33 301.49L741.22 301.21C741.3 300.84 741.33 300.63 741.33 300.63L741.22 300.35C741.3 299.98 741.33 299.77 741.33 299.77L723.53 254.22C723.53 254.36 723.42 254.48 723.37 254.61C722.11 246.76 718.22 234.47 706.17 233.61C688.37 232.32 682.17 241.35 685.7 242.21C689.23 243.07 704.39 249.09 704.39 249.09L710.39 258.76C710 258.63 709.78 258.54 709.78 258.54C710.12 258.671 710.42 258.888 710.65 259.17L711.05 259.81C710.27 259.59 709.79 259.4 709.79 259.4C709.899 259.445 710.003 259.502 710.1 259.57C710.187 259.617 710.271 259.67 710.35 259.73C710.431 259.802 710.508 259.879 710.58 259.96C710.661 260.039 710.738 260.123 710.81 260.21C710.89 260.31 710.96 260.42 711.04 260.53L711.16 260.71C710.7 260.586 710.246 260.439 709.8 260.27C714.46 261.77 716.41 290.04 716.8 297.27L693.75 307.54C693.75 307.54 670.61 307.54 660.82 313.13C652.23 318.03 648.09 314 647.21 312.94C647.81 313.707 648.34 314.447 648.8 315.16L648.55 314.99L648.32 314.83L648.13 314.68L647.92 314.5L647.85 314.44C645.827 310.652 644.493 306.535 643.91 302.28C645.002 299.675 645.538 296.87 645.483 294.046C645.428 291.222 644.783 288.44 643.59 285.88C643.966 286.145 644.376 286.357 644.81 286.51C643.81 284.637 643.133 282.608 642.81 280.51C642.59 278.16 643.26 275.66 642.26 273.51C642.154 273.292 642.034 273.082 641.9 272.88C641.9 272.81 641.9 272.73 641.82 272.65C640.82 270.47 638.37 269.27 636.82 267.37C635.82 266.09 635.25 264.53 634.29 263.21C633.073 261.655 631.391 260.53 629.489 260.001C627.586 259.472 625.565 259.566 623.72 260.27C622.26 260.86 620.9 261.85 619.32 261.88C618.502 261.84 617.693 261.699 616.91 261.46C612.011 260.442 606.908 261.398 602.71 264.12C598.617 266.822 595.383 270.639 593.39 275.12C592.312 277.321 591.609 279.687 591.31 282.12C591.193 284.67 591.233 287.225 591.43 289.77C591.52 293.96 590.9 298.36 592.69 302.17C592.8 302.41 592.94 302.62 593.06 302.85C593.06 302.91 593.06 302.97 593.13 303.03C594.83 306.66 598.39 309.03 601.8 311.32L606.21 314.23L606.71 314.56C605.447 314.433 604.177 314.407 602.91 314.48C596.23 314.91 582.91 308.48 582.91 308.48L569.01 295.9L575.79 268.08L575.53 268.27L575.79 267.22L575.53 267.41L575.79 266.36C575.66 266.46 575.54 266.55 575.41 266.64L582.46 255.18C582.46 255.18 597.59 249.18 601.15 248.3C604.71 247.42 598.48 238.42 580.68 239.7C567.58 240.65 564.12 255.09 563.21 262.7C562.44 261.85 561.99 261.23 561.99 261.23L549.51 290.75C548.207 293.523 547.524 296.546 547.51 299.61C547.53 299.9 547.53 300.19 547.54 300.45ZM612.73 315.57C613.722 315.24 614.608 314.654 615.3 313.87C616.418 314.295 617.568 314.63 618.74 314.87C618.422 315.962 617.976 317.013 617.41 318C617.24 317.33 617.16 316.92 617.16 316.92C615.709 316.386 614.23 315.932 612.73 315.56V315.57ZM605.2 502.67C606.2 501.06 607.2 499.49 608.2 498.01C607.34 499.59 606.2 501.31 605.2 502.67Z" fill="url(#paint1_linear_1_2)"/>
<path id="Vector_85" d="M696.08 484.78L708.83 510.28C708.83 510.28 712.23 519.63 708.83 525.58C705.43 531.53 706.28 543.86 706.28 543.86C706.28 543.86 699.48 563.86 693.95 573.19C688.42 582.52 691.82 596.19 691.82 596.19L669.72 598.74C669.72 598.74 678.22 582.16 675.72 569.83C673.22 557.5 682.95 534.99 682.95 527.32C682.95 525.62 685.08 521.79 680.82 516.27C676.56 510.75 660.42 496.72 660.82 488.64L696.08 484.78Z" fill="#F7BBC3"/>
<path id="Vector_86" d="M583.44 478.83C583.44 478.83 575.28 490.13 574.33 501.13C574.044 504.564 573.373 507.956 572.33 511.24C571.075 515.058 570.963 519.16 572.01 523.04C572.852 526.146 573.407 529.323 573.67 532.53C574.194 538.716 575.658 544.785 578.01 550.53C581.9 560.1 587.01 573.16 587.31 575.79C587.74 580.04 589.86 590.24 589.86 590.24L606.86 596.62C606.86 596.62 601.76 584.29 601.76 572.39C601.76 560.49 605.16 548.59 595.76 529.03C595.76 529.03 595.33 523.93 598.76 516.28C602.19 508.63 615.34 488.65 615.34 488.65L583.44 478.83Z" fill="#F7BBC3"/>
<path id="Vector_87" opacity="0.1" d="M610.92 493.99C612.32 495.51 605.11 505.19 605.11 505.19C605.11 505.19 616.16 504.34 617.01 496.69C617.09 496.054 617.234 495.427 617.44 494.82C620 487.13 632.36 476.22 637.84 475.44C643.84 474.59 655.69 489.04 660.37 499.24C660.64 499.83 660.91 500.37 661.19 500.88C665.76 509.2 671.42 507.32 671.42 507.32C668.42 503.62 667.8 500.69 668.74 498.32C672.46 489.15 700.32 489.42 700.32 489.42C700.32 489.42 687.57 460.09 682.47 456.69C677.37 453.29 669.29 427.78 669.29 427.78C669.29 427.78 608.5 420.98 608.08 423.95C607.66 426.92 595.75 450.31 591.5 454.13C587.25 457.95 578.76 486.45 578.76 486.45C593.21 482.2 609.15 492.61 610.85 493.89L610.92 493.99Z" fill="black"/>
<path id="Vector_88" d="M610.92 493.14C612.32 494.66 605.11 504.34 605.11 504.34C605.11 504.34 616.16 503.49 617.01 495.84C617.09 495.204 617.234 494.577 617.44 493.97C620 486.28 632.36 475.37 637.84 474.59C643.84 473.74 655.69 488.19 660.37 498.39C660.64 498.98 660.91 499.52 661.19 500.03C665.76 508.35 671.42 506.47 671.42 506.47C668.42 502.77 667.8 499.84 668.74 497.47C672.46 488.3 700.32 488.57 700.32 488.57C700.32 488.57 687.57 459.24 682.47 455.84C677.37 452.44 669.29 426.93 669.29 426.93C669.29 426.93 608.5 420.13 608.08 423.1C607.66 426.07 595.75 449.46 591.5 453.28C587.25 457.1 578.75 485.59 578.75 485.59C593.2 481.34 609.14 491.75 610.84 493.03L610.92 493.14Z" fill="black"/>
<path id="Vector_89" opacity="0.1" d="M690.77 588.29L702.46 608.06C702.46 608.06 707.99 613.16 712.24 612.31C716.49 611.46 720.74 624.21 703.31 621.66C685.88 619.11 665.48 609.76 665.48 609.76C665.48 609.76 663.57 592.54 673.34 588.76L690.77 588.29Z" fill="black"/>
<path id="Vector_90" opacity="0.1" d="M587.9 581.45L578.76 602.92C578.76 602.92 576.21 608.92 571.11 608.92C566.01 608.92 564.31 619.55 580.89 617.85C597.47 616.15 609.8 602.97 609.8 602.97C609.8 602.97 608.52 582.57 600.87 581.29C596.58 580.474 592.169 580.529 587.9 581.45Z" fill="black"/>
<path id="Vector_91" d="M690.77 589.14L702.46 608.91C702.46 608.91 707.99 614.01 712.24 613.16C716.49 612.31 720.74 625.06 703.31 622.51C685.88 619.96 665.48 610.61 665.48 610.61C665.48 610.61 663.57 593.39 673.34 589.61L690.77 589.14Z" fill="#91F070"/>
<path id="Vector_92" d="M587.9 582.34L578.76 603.81C578.76 603.81 576.21 609.81 571.11 609.81C566.01 609.81 564.31 620.44 580.89 618.74C597.47 617.04 609.8 603.86 609.8 603.86C609.8 603.86 608.52 583.46 600.87 582.18C596.58 581.364 592.169 581.419 587.9 582.34Z" fill="#91F070"/>
<g id="Group_2" opacity="0.1">
<path id="Vector_93" d="M610.2 423.15C609.77 426.15 597.87 449.51 593.62 453.33C589.72 456.84 582.23 481.15 581.03 485.09C580.26 485.24 579.5 485.41 578.74 485.63C578.74 485.63 587.24 457.15 591.49 453.32C595.74 449.49 607.64 426.11 608.07 423.14C608.15 422.55 610.64 422.34 614.55 422.4C611.91 422.45 610.28 422.67 610.2 423.15Z" fill="black"/>
<path id="Vector_94" d="M639.97 474.58C645.97 473.73 657.82 488.18 662.5 498.38C662.77 498.97 663.04 499.51 663.32 500.02C665.96 504.82 668.95 506.22 671.02 506.55C669.65 506.8 665.02 507.01 661.19 500.02C660.91 499.51 660.64 498.97 660.37 498.38C656.08 489.02 645.72 476.1 639.44 474.68L639.97 474.58Z" fill="black"/>
<path id="Vector_95" d="M610.92 493.14L610.85 493.07C609.48 492.07 598.85 485.07 587.2 484.64C599.65 484.21 611.52 491.98 612.98 493.07L613.05 493.14C614.28 494.48 608.86 502.14 607.53 503.94C606.736 504.121 605.931 504.251 605.12 504.33C605.12 504.33 612.32 494.66 610.92 493.14Z" fill="black"/>
</g>
<path id="Vector_96" d="M720.31 262.89C720.31 262.89 720.31 236.96 703.31 235.68C686.31 234.4 680.31 243.33 683.76 244.18C687.21 245.03 701.61 250.98 701.61 250.98L710.96 266.71L720.31 262.89Z" fill="black"/>
<path id="Vector_97" d="M566.43 268.84C566.43 268.84 566.43 242.91 583.43 241.63C600.43 240.35 606.43 249.28 602.98 250.13C599.53 250.98 585.13 256.93 585.13 256.93L575.78 272.66L566.43 268.84Z" fill="black"/>
<path id="Vector_98" d="M643.37 295.62C643.37 295.62 642.09 312.62 652.72 322.4C663.35 332.18 628.07 344.5 628.07 344.5L612.34 325.8C612.34 325.8 625.09 318.15 618.34 304.97L643.37 295.62Z" fill="#F7BBC3"/>
<path id="Vector_99" opacity="0.1" d="M646.77 315.6C646.77 315.6 650.6 321.6 659.95 316.03C669.3 310.46 691.41 310.45 691.41 310.45L713.51 300.25C713.51 300.25 711.81 263.69 706.71 261.99C706.71 261.99 716.91 266.24 719.89 257.74L736.89 302.8C736.89 302.8 735.61 312.58 726.26 316.4L690.98 338.08C690.98 338.08 675.68 347.43 675.68 370.81C675.68 394.19 672.68 431.17 672.68 431.17C672.68 431.17 623.37 460.93 603.39 426.07C603.39 426.07 611.47 384.84 605.94 374.63C605.94 374.63 604.24 347.85 590.64 342.75L555.38 310.45C555.38 310.45 548.58 306.2 553.68 293.87L565.58 264.54C565.58 264.54 572.81 274.74 578.76 269.64L571.96 298.55L585.56 311.3C585.56 311.3 598.31 317.68 604.69 317.3C611.07 316.92 618.29 319.85 618.29 319.85C618.29 319.85 621.29 336.85 634.87 335.15C634.87 335.15 660.8 333.88 646.77 315.6Z" fill="black"/>
<path id="Vector_100" opacity="0.1" d="M646.77 313.9C646.77 313.9 650.6 319.9 659.95 314.33C669.3 308.76 691.41 308.8 691.41 308.8L713.51 298.6C713.51 298.6 711.81 262.04 706.71 260.34C706.71 260.34 716.91 264.59 719.89 256.09L736.89 301.15C736.89 301.15 735.61 310.93 726.26 314.75L690.98 336.45C690.98 336.45 675.68 345.8 675.68 369.18C675.68 392.56 672.68 429.54 672.68 429.54C672.68 429.54 623.37 459.3 603.39 424.44C603.39 424.44 611.47 383.21 605.94 373C605.94 373 604.24 346.22 590.64 341.12L555.36 308.81C555.36 308.81 548.56 304.56 553.66 292.23L565.56 262.9C565.56 262.9 572.79 273.1 578.74 268L571.94 296.91L585.54 309.66C585.54 309.66 598.29 316.04 604.67 315.66C611.05 315.28 618.27 318.21 618.27 318.21C618.27 318.21 621.27 335.21 634.85 333.51C634.87 333.45 660.8 332.18 646.77 313.9Z" fill="black"/>
<path id="Vector_101" d="M555.38 309.65L590.66 341.96C604.26 347.06 605.96 373.84 605.96 373.84C611.49 384.04 603.41 425.28 603.41 425.28C623.41 460.14 672.7 430.38 672.7 430.38C672.7 430.38 672.8 429.16 672.96 427.01C673.1 425.13 673.29 422.53 673.5 419.44C673.78 415.44 674.1 410.61 674.4 405.37C675.07 393.92 675.68 380.58 675.68 370.02C675.68 346.64 690.98 337.29 690.98 337.29L717.45 321.03L726.27 315.61C735.62 311.78 736.9 302.01 736.9 302.01L719.9 256.95C717.12 264.89 708.03 261.7 706.85 261.25C711.85 263.51 713.52 299.46 713.52 299.46L691.42 309.66C691.42 309.66 669.32 309.66 659.96 315.19C651.96 319.89 648.05 316.29 647.05 315.1C660.49 333.1 634.88 334.31 634.88 334.31C621.28 336.01 618.3 319.01 618.3 319.01C618.3 319.01 611.07 316.01 604.7 316.46C598.33 316.91 585.57 310.46 585.57 310.46L571.97 297.71L578.77 268.8C572.77 273.9 565.59 263.7 565.59 263.7L553.69 293.03C548.58 305.4 555.38 309.65 555.38 309.65Z" fill="#91F070"/>
<path id="Vector_102" opacity="0.1" d="M643.37 297.32C643.244 299.994 643.382 302.673 643.78 305.32C641.93 309.927 638.495 313.721 634.095 316.019C629.694 318.316 624.617 318.966 619.78 317.85C620.745 314.075 620.204 310.073 618.27 306.69L643.37 297.32Z" fill="black"/>
<path id="Vector_103" d="M624.46 316.67C635.964 316.67 645.29 307.344 645.29 295.84C645.29 284.336 635.964 275.01 624.46 275.01C612.956 275.01 603.63 284.336 603.63 295.84C603.63 307.344 612.956 316.67 624.46 316.67Z" fill="#F7BBC3"/>
<path id="Vector_104" opacity="0.1" d="M624.79 283.99C624.97 286.1 625.12 288.35 624.15 290.23C623.61 291.175 622.937 292.037 622.15 292.79L617.79 297.28C616.415 298.488 615.349 300.007 614.68 301.71C613.42 305.91 617.14 310.08 617.02 314.47C616.353 315.515 615.363 316.313 614.2 316.743C613.038 317.173 611.766 317.21 610.58 316.85C609.618 316.482 608.712 315.98 607.89 315.36L603.62 312.45C600.37 310.23 596.97 307.83 595.34 304.25C593.63 300.48 594.21 296.12 594.13 291.98C593.943 289.461 593.907 286.933 594.02 284.41C594.305 282.003 594.981 279.659 596.02 277.47C597.903 273.091 600.989 269.336 604.92 266.64C606.887 265.312 609.102 264.395 611.432 263.943C613.762 263.492 616.159 263.514 618.48 264.01C619.226 264.244 619.999 264.382 620.78 264.42C622.29 264.42 623.59 263.42 624.98 262.83C626.748 262.139 628.694 262.05 630.518 262.576C632.342 263.102 633.941 264.214 635.07 265.74C635.99 267.04 636.52 268.59 637.48 269.85C638.91 271.73 641.24 272.92 642.21 275.07C643.18 277.22 642.53 279.68 642.74 282C643.039 284.074 643.678 286.084 644.63 287.95C642.27 287.13 641.12 284.55 639.63 282.57C638.45 281.101 636.969 279.9 635.288 279.048C633.607 278.196 631.763 277.713 629.88 277.63C628.58 277.57 626.17 277.47 625.14 278.46C623.83 279.73 624.66 282.45 624.79 283.99Z" fill="black"/>
<path id="Vector_105" d="M624.37 283.14C624.55 285.25 624.7 287.5 623.73 289.38C623.19 290.325 622.517 291.187 621.73 291.94L617.31 296.45C615.939 297.649 614.873 299.158 614.2 300.85C612.94 305.05 616.66 309.22 616.54 313.61C615.873 314.655 614.883 315.453 613.72 315.883C612.557 316.313 611.286 316.35 610.1 315.99C609.138 315.622 608.233 315.12 607.41 314.5L603.2 311.63C599.95 309.41 596.55 307.01 594.92 303.43C593.21 299.66 593.79 295.3 593.71 291.16C593.524 288.641 593.487 286.113 593.6 283.59C593.885 281.183 594.561 278.839 595.6 276.65C597.483 272.271 600.569 268.516 604.5 265.82C606.467 264.492 608.682 263.575 611.012 263.123C613.342 262.672 615.739 262.694 618.06 263.19C618.806 263.424 619.579 263.562 620.36 263.6C621.87 263.6 623.17 262.6 624.56 262.01C626.328 261.319 628.274 261.23 630.098 261.756C631.922 262.282 633.521 263.394 634.65 264.92C635.57 266.22 636.1 267.77 637.06 269.03C638.49 270.91 640.82 272.1 641.79 274.25C642.76 276.4 642.11 278.86 642.32 281.18C642.619 283.254 643.258 285.264 644.21 287.13C641.85 286.31 640.7 283.73 639.21 281.75C638.03 280.28 636.549 279.08 634.868 278.228C633.187 277.376 631.343 276.893 629.46 276.81C628.16 276.75 625.75 276.65 624.72 277.64C623.4 278.88 624.2 281.59 624.37 283.14Z" fill="#74585E"/>
<g id="Group_3" opacity="0.1">
<path id="Vector_106" d="M646.95 314.99C646.83 314.84 646.77 314.75 646.77 314.75L646.95 314.99Z" fill="black"/>
<path id="Vector_107" d="M574.97 270.26C576.368 270.289 577.725 269.781 578.76 268.84L578.35 270.56C577.218 270.787 576.044 270.683 574.97 270.26Z" fill="black"/>
<path id="Vector_108" d="M650.33 317.19C660.98 333.54 637 334.73 637 334.73C635.173 334.982 633.313 334.849 631.54 334.34C632.646 334.471 633.764 334.471 634.87 334.34C634.87 334.34 660.57 333.07 646.95 315.02C647.837 316.062 649.014 316.817 650.33 317.19Z" fill="black"/>
<path id="Vector_109" d="M606.82 316.88C605.096 316.923 603.375 316.718 601.71 316.27C602.7 316.442 603.706 316.506 604.71 316.46C607.358 316.348 610.008 316.614 612.58 317.25C610.681 316.905 608.748 316.781 606.82 316.88Z" fill="black"/>
<path id="Vector_110" d="M553.68 293.07L565.58 263.74C566.058 264.392 566.572 265.016 567.12 265.61L555.81 293.45C550.71 305.78 557.51 310.03 557.51 310.03L592.79 342.34C606.39 347.44 608.09 374.22 608.09 374.22C613.62 384.42 605.54 425.66 605.54 425.66C610.9 435.01 618.37 439.66 626.44 441.58C617.57 440.07 609.25 435.4 603.44 425.23C603.44 425.23 611.52 384 605.99 373.79C605.99 373.79 604.29 347.01 590.69 341.91L555.38 309.65C555.38 309.65 548.58 305.4 553.68 293.07Z" fill="black"/>
<path id="Vector_111" d="M706.71 261.19C707.582 261.526 708.482 261.784 709.4 261.96C714.06 266.05 715.63 299.87 715.63 299.87L693.53 310.07C693.53 310.07 671.43 310.07 662.07 315.6C657.49 318.31 654.24 318.26 652.07 317.51C654.07 317.63 656.64 317.1 659.9 315.18C669.25 309.65 691.36 309.65 691.36 309.65L713.46 299.45C713.46 299.45 711.81 262.89 706.71 261.19Z" fill="black"/>
<path id="Vector_112" d="M710.42 262.13C713.65 262.55 718.09 262.08 719.89 256.94L720.89 259.59C718.1 263.55 713 262.82 710.42 262.13Z" fill="black"/>
</g>
<path id="Vector_113" opacity="0.1" d="M674.4 405.36C675.07 393.91 675.68 380.57 675.68 370.01C675.68 346.63 690.98 337.28 690.98 337.28L717.45 321.02C702.05 325.02 681.56 331.91 679.72 340.02C676.72 353.2 671.22 354.47 673.34 377.02C674.219 386.44 674.573 395.901 674.4 405.36Z" fill="black"/>
<path id="Vector_114" opacity="0.1" d="M670.36 437.81C670.36 437.81 666.53 449.71 677.16 457.36Z" fill="black"/>
<path id="Vector_115" opacity="0.1" d="M610.85 437.81C610.85 437.81 609.57 446.74 604.47 450.14Z" fill="black"/>
<path id="Vector_116" opacity="0.1" d="M665.48 608.91C665.48 608.91 685.88 618.26 703.31 620.81C712.15 622.1 715.41 619.46 715.92 616.66C716.5 619.93 713.92 624.07 703.31 622.51C685.88 619.96 665.48 610.61 665.48 610.61C665.35 609.197 665.303 607.778 665.34 606.36C665.37 607.91 665.48 608.91 665.48 608.91Z" fill="black"/>
<path id="Vector_117" opacity="0.1" d="M580.46 617.83C597.04 616.13 609.37 602.95 609.37 602.95C609.37 602.95 608.74 592.89 605.72 586.46C609.11 592.81 609.8 603.8 609.8 603.8C609.8 603.8 597.47 616.98 580.89 618.68C572.42 619.55 568.72 617.2 567.81 614.68C569.2 616.85 572.96 618.6 580.46 617.83Z" fill="black"/>
<path id="Vector_118" d="M600.4 181.96C600.397 190.844 603.547 199.44 609.29 206.218C615.033 212.995 622.996 217.514 631.76 218.968C640.524 220.423 649.52 218.719 657.144 214.16C664.769 209.601 670.528 202.483 673.394 194.075C676.261 185.666 676.049 176.513 672.797 168.246C669.545 159.979 663.463 153.135 655.636 148.934C647.808 144.732 638.744 143.446 630.056 145.304C621.369 147.162 613.624 152.044 608.2 159.08C603.146 165.637 600.403 173.681 600.4 181.96Z" fill="url(#paint2_linear_1_2)"/>
<path id="Vector_119" d="M601.78 181.96C601.768 190.521 604.796 198.808 610.325 205.345C615.854 211.881 623.524 216.242 631.969 217.65C640.413 219.058 649.083 217.421 656.434 213.032C663.784 208.643 669.337 201.786 672.103 193.684C674.868 185.582 674.667 176.761 671.535 168.793C668.403 160.826 662.543 154.229 655.001 150.179C647.458 146.13 638.722 144.89 630.35 146.681C621.979 148.473 614.515 153.178 609.29 159.96C604.431 166.265 601.791 173.999 601.78 181.96Z" fill="#E0E0E0"/>
<path id="Vector_120" d="M617.66 164.21V178.23" stroke="#535461" stroke-miterlimit="10"/>
<path id="Vector_121" d="M644.44 176.98L629.81 186.64" stroke="#535461" stroke-miterlimit="10"/>
<path id="Vector_122" d="M629.81 155.5L646.94 162.66" stroke="#535461" stroke-miterlimit="10"/>
<path id="Vector_123" d="M658.46 179.47L657.52 201.27" stroke="#535461" stroke-miterlimit="10"/>
<path id="Vector_124" d="M646.94 207.81L627.63 198.16" stroke="#535461" stroke-miterlimit="10"/>
<path id="Vector_125" d="M617.66 199.72V211.89" stroke="#535461" stroke-miterlimit="10"/>
<path id="Vector_126" d="M610.5 190.37L602.08 186.64" stroke="#535461" stroke-miterlimit="10"/>
<path id="Vector_127" d="M657.52 161.41L656.88 151.22" stroke="#535461" stroke-miterlimit="10"/>
<path id="Vector_128" d="M663.13 173.25L673.57 176.23" stroke="#535461" stroke-miterlimit="10"/>
<path id="Vector_129" d="M665.93 173.25L657.84 159.23L644.45 161.41V176.98L658.77 184.46L665.93 173.25Z" fill="black"/>
<path id="Vector_130" d="M609.29 159.92L617.67 164.21C620.47 160.47 631.99 156.11 631.99 156.11L630.79 146.54C622.242 148.256 614.605 153.009 609.29 159.92Z" fill="black"/>
<path id="Vector_131" d="M631.99 185.08L617.35 178.23L609.25 189.75L617.66 203.14L631.99 200.96V185.08Z" fill="black"/>
<path id="Vector_132" d="M644.44 205.94V217.45C649.13 216.587 653.603 214.804 657.6 212.204C661.597 209.604 665.04 206.238 667.73 202.3L657.52 198.11L644.44 205.94Z" fill="black"/>
<path id="Vector_133" d="M108.5 447.56C108.5 455.013 111.147 462.224 115.967 467.908C120.788 473.593 127.471 477.381 134.824 478.597C142.177 479.814 149.724 478.381 156.119 474.552C162.514 470.724 167.342 464.75 169.743 457.694C172.144 450.638 171.962 442.959 169.229 436.025C166.496 429.09 161.391 423.352 154.821 419.831C148.252 416.31 140.646 415.236 133.359 416.8C126.072 418.363 119.576 422.464 115.03 428.37C110.795 433.871 108.499 440.618 108.5 447.56Z" fill="url(#paint3_linear_1_2)"/>
<path id="Vector_134" d="M109.66 447.56C109.662 454.738 112.212 461.682 116.856 467.156C121.5 472.629 127.936 476.276 135.018 477.447C142.1 478.618 149.368 477.236 155.526 473.549C161.685 469.861 166.334 464.107 168.646 457.311C170.957 450.515 170.781 443.12 168.149 436.442C165.517 429.764 160.6 424.237 154.273 420.846C147.946 417.456 140.621 416.421 133.603 417.927C126.584 419.433 120.329 423.382 115.95 429.07C111.87 434.37 109.658 440.871 109.66 447.56Z" fill="#E0E0E0"/>
<path id="Vector_135" d="M122.98 432.67V444.43" stroke="#535461" stroke-miterlimit="10"/>
<path id="Vector_136" d="M145.44 443.38L133.16 451.48" stroke="#535461" stroke-miterlimit="10"/>
<path id="Vector_137" d="M133.16 425.36L147.53 431.37" stroke="#535461" stroke-miterlimit="10"/>
<path id="Vector_138" d="M157.19 445.47L156.41 463.76" stroke="#535461" stroke-miterlimit="10"/>
<path id="Vector_139" d="M147.53 469.24L131.33 461.14" stroke="#535461" stroke-miterlimit="10"/>
<path id="Vector_140" d="M122.98 462.45V472.66" stroke="#535461" stroke-miterlimit="10"/>
<path id="Vector_141" d="M116.97 454.61L109.91 451.48" stroke="#535461" stroke-miterlimit="10"/>
<path id="Vector_142" d="M156.41 430.32L155.87 421.78" stroke="#535461" stroke-miterlimit="10"/>
<path id="Vector_143" d="M161.11 440.25L169.87 442.75" stroke="#535461" stroke-miterlimit="10"/>
<path id="Vector_144" d="M163.46 440.25L156.67 428.5L145.44 430.32V443.38L157.45 449.65L163.46 440.25Z" fill="black"/>
<path id="Vector_145" d="M115.95 429.07L122.95 432.67C125.3 429.54 134.95 425.88 134.95 425.88L133.95 417.88C126.797 419.318 120.405 423.292 115.95 429.07Z" fill="black"/>
<path id="Vector_146" d="M134.99 450.17L122.72 444.43L115.92 454.09L122.98 465.32L134.99 463.49V450.17Z" fill="black"/>
<path id="Vector_147" d="M145.44 467.67V477.36C149.373 476.636 153.124 475.14 156.476 472.958C159.828 470.777 162.715 467.953 164.97 464.65L156.41 461.14L145.44 467.67Z" fill="black"/>
<path id="Vector_148" d="M85.4 485.37C85.4002 492.823 88.0465 500.034 92.8675 505.719C97.6885 511.403 104.371 515.191 111.724 516.407C119.077 517.624 126.624 516.191 133.019 512.362C139.414 508.534 144.242 502.56 146.643 495.504C149.044 488.448 148.862 480.769 146.129 473.834C143.396 466.9 138.291 461.162 131.721 457.641C125.152 454.12 117.546 453.046 110.259 454.61C102.972 456.173 96.4762 460.274 91.93 466.18C87.6951 471.681 85.3991 478.428 85.4 485.37Z" fill="url(#paint4_linear_1_2)"/>
<path id="Vector_149" d="M86.56 485.37C86.5617 492.548 89.1118 499.492 93.7558 504.966C98.3998 510.439 104.836 514.086 111.918 515.257C119 516.428 126.268 515.046 132.426 511.359C138.585 507.671 143.234 501.917 145.546 495.121C147.857 488.325 147.681 480.93 145.049 474.252C142.417 467.574 137.5 462.047 131.173 458.656C124.846 455.266 117.521 454.231 110.503 455.737C103.484 457.243 97.2286 461.192 92.85 466.88C88.77 472.18 86.5584 478.681 86.56 485.37Z" fill="#E0E0E0"/>
<path id="Vector_150" d="M99.88 470.48V482.23" stroke="#535461" stroke-miterlimit="10"/>
<path id="Vector_151" d="M122.34 481.19L110.07 489.29" stroke="#535461" stroke-miterlimit="10"/>
<path id="Vector_152" d="M110.07 463.17L124.43 469.18" stroke="#535461" stroke-miterlimit="10"/>
<path id="Vector_153" d="M134.09 483.28L133.31 501.56" stroke="#535461" stroke-miterlimit="10"/>
<path id="Vector_154" d="M124.43 507.05L108.24 498.95" stroke="#535461" stroke-miterlimit="10"/>
<path id="Vector_155" d="M99.88 500.26V510.47" stroke="#535461" stroke-miterlimit="10"/>
<path id="Vector_156" d="M93.87 492.42L86.81 489.29" stroke="#535461" stroke-miterlimit="10"/>
<path id="Vector_157" d="M133.31 468.13L132.77 459.59" stroke="#535461" stroke-miterlimit="10"/>
<path id="Vector_158" d="M138.01 478.06L146.77 480.56" stroke="#535461" stroke-miterlimit="10"/>
<path id="Vector_159" d="M140.36 478.06L133.57 466.3L122.34 468.13V481.19L134.36 487.46L140.36 478.06Z" fill="black"/>
<path id="Vector_160" d="M92.85 466.88L99.85 470.48C102.2 467.35 111.85 463.69 111.85 463.69L110.85 455.69C103.697 457.128 97.3048 461.102 92.85 466.88Z" fill="black"/>
<path id="Vector_161" d="M111.89 487.98L99.62 482.23L92.83 491.9L99.88 503.13L111.89 501.3V487.98Z" fill="black"/>
<path id="Vector_162" d="M122.34 505.45V515.14C126.272 514.418 130.022 512.925 133.373 510.747C136.725 508.569 139.613 505.749 141.87 502.45L133.31 498.94L122.34 505.45Z" fill="black"/>
</g>
<defs>
<linearGradient id="paint0_linear_1_2" x1="382.07" y1="286.8" x2="382.07" y2="286.55" gradientUnits="userSpaceOnUse">
<stop stop-color="#808080" stop-opacity="0.25"/>
<stop offset="0.54" stop-color="#808080" stop-opacity="0.12"/>
<stop offset="1" stop-color="#808080" stop-opacity="0.1"/>
</linearGradient>
<linearGradient id="paint1_linear_1_2" x1="644.43" y1="625" x2="644.43" y2="233.46" gradientUnits="userSpaceOnUse">
<stop stop-color="#808080" stop-opacity="0.25"/>
<stop offset="0.54" stop-color="#808080" stop-opacity="0.12"/>
<stop offset="1" stop-color="#808080" stop-opacity="0.1"/>
</linearGradient>
<linearGradient id="paint2_linear_1_2" x1="637.9" y1="219.46" x2="637.9" y2="144.46" gradientUnits="userSpaceOnUse">
<stop stop-color="#808080" stop-opacity="0.25"/>
<stop offset="0.54" stop-color="#808080" stop-opacity="0.12"/>
<stop offset="1" stop-color="#808080" stop-opacity="0.1"/>
</linearGradient>
<linearGradient id="paint3_linear_1_2" x1="139.95" y1="479.01" x2="139.95" y2="416.11" gradientUnits="userSpaceOnUse">
<stop stop-color="#808080" stop-opacity="0.25"/>
<stop offset="0.54" stop-color="#808080" stop-opacity="0.12"/>
<stop offset="1" stop-color="#808080" stop-opacity="0.1"/>
</linearGradient>
<linearGradient id="paint4_linear_1_2" x1="116.86" y1="516.82" x2="116.86" y2="453.92" gradientUnits="userSpaceOnUse">
<stop stop-color="#808080" stop-opacity="0.25"/>
<stop offset="0.54" stop-color="#808080" stop-opacity="0.12"/>
<stop offset="1" stop-color="#808080" stop-opacity="0.1"/>
</linearGradient>
<clipPath id="clip0_1_2">
<rect width="1144.4" height="798.9" fill="white"/>
</clipPath>
</defs>
</svg>
