<svg width="557" height="561" viewBox="0 0 557 561" fill="none" xmlns="http://www.w3.org/2000/svg">
<g id="habits">
<path id="Vector" d="M278.302 0C187.112 0 112.934 75.5326 112.934 168.389C112.908 192.158 117.851 215.661 127.434 237.334C153.35 295.907 211.216 336.778 278.302 336.778C322.153 336.754 364.201 319.005 395.208 287.431C426.215 255.857 443.646 213.041 443.67 168.389C443.67 75.5327 369.48 0 278.302 0ZM415.121 236.082C402.633 262.215 383.185 284.249 358.994 299.671C334.803 315.094 306.843 323.284 278.302 323.307C213.835 323.307 158.602 282.261 136.496 224.483C129.644 206.605 126.14 187.58 126.163 168.389C126.163 82.9687 194.414 13.4711 278.302 13.4711C362.19 13.4711 430.441 82.9686 430.441 168.389C430.47 191.848 425.229 215.002 415.121 236.082Z" fill="#E6E6E6"/>
<path id="Vector_2" d="M278.302 337.278C246.979 337.252 216.301 328.205 189.811 311.182C163.321 294.159 142.1 269.854 128.598 241.073C128.059 239.926 127.825 238.654 127.919 237.386C128.014 236.118 128.433 234.896 129.136 233.845L129.224 233.712C129.926 232.678 130.882 231.849 131.998 231.31C133.113 230.77 134.348 230.539 135.579 230.639C136.81 230.739 137.993 231.168 139.01 231.881C140.027 232.594 140.842 233.567 141.373 234.702C166.462 288.224 220.21 322.808 278.302 322.808C304.85 322.739 330.918 315.603 353.922 302.109C376.925 288.615 396.064 269.231 409.44 245.881C410.061 244.784 410.957 243.875 412.036 243.245C413.115 242.615 414.339 242.287 415.582 242.295C416.813 242.292 418.022 242.623 419.085 243.254C420.148 243.885 421.027 244.793 421.63 245.885L421.707 246.023C422.319 247.125 422.638 248.371 422.631 249.637C422.625 250.903 422.293 252.145 421.67 253.24C407.036 278.755 386.109 299.932 360.961 314.673C335.813 329.413 307.319 337.206 278.302 337.278Z" fill="#6C63FF"/>
<path id="Vector_3" d="M241.029 183.791C245.524 183.761 249.89 185.321 253.381 188.204C256.872 191.087 259.272 195.114 260.172 199.599C261.071 204.083 260.415 208.747 258.313 212.793C256.212 216.839 252.797 220.017 248.651 221.785C244.504 223.552 239.884 223.8 235.579 222.485C231.273 221.17 227.55 218.374 225.043 214.574C222.537 210.775 221.403 206.207 221.836 201.652C222.269 197.096 224.241 192.834 227.416 189.594C229.195 187.758 231.315 186.3 233.652 185.304C235.988 184.307 238.496 183.793 241.029 183.791ZM241.029 175.371C235.577 175.368 230.247 177.012 225.712 180.094C221.177 183.175 217.641 187.557 215.552 192.685C213.463 197.813 212.914 203.457 213.975 208.903C215.036 214.348 217.659 219.351 221.512 223.279C225.365 227.207 230.275 229.883 235.622 230.969C240.969 232.055 246.512 231.502 251.55 229.38C256.588 227.258 260.895 223.663 263.927 219.048C266.958 214.434 268.578 209.008 268.581 203.456C268.585 196.012 265.684 188.87 260.517 183.603C255.35 178.336 248.34 175.375 241.029 175.371ZM298.465 135.229C300.959 135.241 303.355 134.245 305.127 132.459C306.9 130.672 307.902 128.243 307.915 125.703C307.915 125.671 307.915 125.639 307.915 125.606C307.927 124.362 307.697 123.128 307.241 121.975C306.784 120.821 306.109 119.77 305.253 118.882C304.398 117.994 303.379 117.287 302.255 116.8C301.131 116.313 299.923 116.056 298.702 116.044C298.643 116.044 298.584 116.044 298.524 116.044C296.026 116.02 293.621 117.008 291.837 118.79C290.054 120.572 289.039 123.002 289.016 125.546C288.992 128.09 289.962 130.539 291.712 132.355C293.462 134.171 295.848 135.204 298.347 135.228C298.386 135.229 298.426 135.229 298.465 135.229ZM318.221 183.791C322.716 183.761 327.081 185.321 330.572 188.204C334.064 191.087 336.464 195.114 337.363 199.599C338.263 204.083 337.606 208.747 335.505 212.793C333.404 216.839 329.988 220.017 325.842 221.785C321.696 223.552 317.076 223.8 312.77 222.485C308.465 221.17 304.741 218.374 302.235 214.574C299.729 210.775 298.595 206.207 299.028 201.652C299.46 197.096 301.433 192.834 304.608 189.594C306.387 187.758 308.506 186.3 310.843 185.304C313.18 184.307 315.688 183.793 318.221 183.791ZM318.221 175.371C312.772 175.371 307.445 177.017 302.914 180.099C298.383 183.182 294.852 187.564 292.767 192.69C290.681 197.816 290.136 203.457 291.199 208.899C292.262 214.342 294.886 219.34 298.739 223.264C302.592 227.187 307.501 229.859 312.846 230.942C318.19 232.024 323.73 231.469 328.764 229.345C333.799 227.222 338.102 223.626 341.129 219.013C344.157 214.399 345.772 208.975 345.772 203.426C345.772 199.742 345.06 196.094 343.675 192.69C342.291 189.286 340.261 186.194 337.703 183.588C335.144 180.983 332.107 178.917 328.764 177.507C325.422 176.097 321.839 175.371 318.221 175.371Z" fill="#E6E6E6"/>
<path id="Vector_4" d="M312.699 154.533H298.524L289.813 136.461C289.11 135.194 288.128 134.11 286.944 133.295C285.76 132.48 284.406 131.955 282.99 131.763C281.573 131.57 280.132 131.715 278.779 132.186C277.427 132.657 276.2 133.441 275.196 134.477L254.023 155.255C252.289 157.056 251.306 159.469 251.276 161.99C251.276 167.222 254.997 169.087 256.739 170.139C270.175 178.017 274.9 178.889 274.9 182.829V202.644C274.9 203.92 275.398 205.144 276.284 206.046C277.17 206.949 278.372 207.455 279.625 207.455C280.878 207.455 282.08 206.949 282.966 206.046C283.852 205.144 284.35 203.92 284.35 202.644V175.582C284.35 171.613 275.373 168.365 270.087 164.155L284.527 148.67C290.049 157.239 292.589 164.155 295.748 164.155H312.699C313.952 164.157 315.154 163.653 316.042 162.752C316.929 161.851 317.429 160.628 317.431 159.352C317.433 158.076 316.937 156.852 316.053 155.948C315.168 155.044 313.967 154.535 312.714 154.533L312.699 154.533Z" fill="#E6E6E6"/>
<path id="Vector_5" d="M145.289 427.583C141.219 427.583 137.849 439.649 137.196 455.471H58.8941C58.241 439.649 54.8712 427.583 50.801 427.583C46.2633 427.583 42.5846 442.566 42.5846 461.049C42.5846 479.531 46.2633 494.514 50.801 494.514C54.8712 494.514 58.241 482.448 58.8941 466.626H137.196C137.849 482.448 141.219 494.514 145.289 494.514C149.827 494.514 153.506 479.531 153.506 461.049C153.506 442.566 149.827 427.583 145.289 427.583Z" fill="#E6E6E6"/>
<path id="Vector_6" d="M183.431 411.638C171.825 390.458 153.035 374.311 130.58 366.221C108.125 358.131 83.5433 358.653 61.4388 367.689C39.3342 376.726 21.2222 393.657 10.4941 415.312C-0.233932 436.967 -2.84242 461.861 3.15709 485.334C9.1566 508.807 23.3527 529.247 43.0873 542.829C62.8219 556.411 86.7416 562.203 110.368 559.12C133.994 556.036 155.706 544.29 171.439 526.079C187.172 507.869 195.847 484.443 195.84 460.188C195.835 443.193 191.563 426.48 183.431 411.638ZM97.889 551.94C74.1486 551.817 51.4254 542.111 34.703 524.951C17.9805 507.792 8.62397 484.58 8.68539 460.405C8.74682 436.231 18.2212 413.068 35.0306 395.997C51.8401 378.926 74.6123 369.34 98.353 369.341C122.094 369.343 144.865 378.932 161.672 396.005C178.479 413.079 187.951 436.243 188.009 460.417C188.067 484.591 178.708 507.803 161.983 524.96C145.258 542.117 122.534 551.82 98.7936 551.94C98.492 551.942 98.1905 551.942 97.889 551.94Z" fill="#E6E6E6"/>
<path id="Vector_7" d="M97.9368 560.428C79.2732 560.438 60.9933 555.033 45.237 544.847C44.4501 544.336 43.8428 543.584 43.5026 542.699L43.4533 542.569C43.1112 541.692 43.055 540.726 43.2928 539.815C43.5307 538.903 44.0501 538.093 44.7743 537.505C45.4744 536.905 46.3452 536.551 47.2582 536.494C48.1711 536.437 49.0778 536.681 49.8444 537.189C66.5919 548.044 86.4063 552.926 106.175 551.069C125.943 549.211 144.546 540.719 159.059 526.927C173.573 513.134 183.176 494.823 186.359 474.869C189.543 454.916 186.126 434.45 176.646 416.689C176.202 415.875 176.026 414.937 176.145 414.013C176.264 413.089 176.671 412.229 177.306 411.558C177.934 410.863 178.764 410.392 179.675 410.213C180.586 410.035 181.529 410.159 182.365 410.568L182.487 410.626C183.326 411.026 184.019 411.687 184.465 412.513C192.579 427.773 196.663 444.916 196.316 462.266C195.969 479.615 191.203 496.575 182.486 511.485C173.768 526.396 161.397 538.745 146.584 547.325C131.771 555.904 115.024 560.419 97.9826 560.428H97.9368Z" fill="#6C63FF"/>
<path id="Vector_8" d="M458.67 360.466C445.805 360.46 433.064 363.035 421.177 368.044C409.289 373.053 398.487 380.397 389.387 389.657C380.287 398.918 373.067 409.913 368.141 422.015C363.215 434.116 360.678 447.088 360.676 460.188C360.674 473.288 363.206 486.261 368.128 498.364C373.05 510.468 380.265 521.466 389.361 530.73C398.458 539.993 409.258 547.342 421.144 552.355C433.03 557.368 445.769 559.948 458.634 559.947H458.67C459.305 559.947 459.927 559.947 460.562 559.92C486.371 559.414 510.941 548.553 528.929 529.699C546.917 510.846 556.868 485.524 556.619 459.239C556.369 432.954 545.94 407.832 527.598 389.336C509.256 370.84 484.484 360.464 458.67 360.466ZM478.633 549.682C466.27 552.54 453.453 552.711 441.02 550.181C428.587 547.651 416.819 542.478 406.483 535.001C396.148 527.523 387.479 517.909 381.042 506.787C374.605 495.664 370.546 483.284 369.129 470.455C367.712 457.625 368.97 444.636 372.82 432.336C376.67 420.035 383.026 408.701 391.472 399.072C399.918 389.444 410.264 381.739 421.834 376.461C433.405 371.182 445.939 368.45 458.617 368.441H458.67C480.831 368.439 502.216 376.754 518.737 391.794C535.259 406.835 545.757 427.547 548.228 449.973C550.698 472.399 544.966 494.965 532.127 513.358C519.289 531.752 500.244 544.684 478.633 549.682Z" fill="#E6E6E6"/>
<path id="Vector_9" d="M458.67 560.446C434.376 560.446 410.94 551.298 392.871 534.763C374.801 518.229 363.374 495.474 360.788 470.877C358.201 446.28 364.638 421.577 378.86 401.522C393.082 381.466 414.085 367.474 437.828 362.236C438.412 362.109 439.015 362.101 439.602 362.213L439.807 362.252C440.792 362.447 441.681 362.981 442.324 363.766C442.967 364.55 443.324 365.536 443.336 366.558C443.347 367.58 443.013 368.574 442.388 369.374C441.763 370.173 440.886 370.729 439.906 370.947C418.263 375.672 399.102 388.384 386.114 406.636C373.126 424.888 367.23 447.388 369.561 469.803C371.893 492.217 382.287 512.96 398.742 528.036C415.197 543.113 436.548 551.456 458.683 551.459C459.549 551.45 460.391 551.446 461.245 551.421C462.198 551.381 463.135 551.683 463.891 552.276C464.647 552.868 465.174 553.713 465.379 554.661C465.605 555.577 465.505 556.546 465.097 557.394C464.689 558.242 463.999 558.916 463.149 559.296C462.573 559.566 461.994 559.83 461.412 560.089C460.922 560.31 460.393 560.429 459.857 560.44C459.462 560.446 459.069 560.446 458.67 560.446Z" fill="#6C63FF"/>
<path id="Vector_10" d="M506.992 455.966C504.382 455.832 501.802 456.572 499.643 458.072C497.485 459.572 495.868 461.75 495.039 464.273H485.393L478.351 442.709C478.089 441.901 477.584 441.197 476.908 440.699C476.231 440.2 475.417 439.931 474.581 439.931H474.507C473.659 439.945 472.839 440.237 472.168 440.765C471.498 441.293 471.013 442.028 470.787 442.86L459.752 482.075L446.783 402.762C446.633 401.844 446.177 401.007 445.491 400.391C444.806 399.775 443.934 399.417 443.021 399.379C442.107 399.34 441.209 399.623 440.476 400.179C439.743 400.736 439.221 401.532 438.997 402.434L425.854 464.273H411.124C410.072 464.273 409.062 464.699 408.318 465.456C407.574 466.214 407.156 467.242 407.156 468.313C407.156 469.385 407.574 470.412 408.318 471.17C409.062 471.928 410.072 472.353 411.124 472.353H428.978C429.862 472.355 430.721 472.054 431.417 471.501C432.114 470.947 432.609 470.171 432.822 469.298L442.096 423.291L454.817 501.038C454.963 501.944 455.409 502.771 456.082 503.383C456.754 503.994 457.612 504.352 458.512 504.397H458.736C459.598 504.395 460.436 504.109 461.125 503.581C461.814 503.053 462.315 502.311 462.554 501.467L474.879 457.632L478.772 469.576C479.037 470.381 479.544 471.082 480.219 471.58C480.895 472.078 481.707 472.348 482.541 472.353H495.213C495.971 474.396 497.256 476.193 498.934 477.554C500.611 478.914 502.619 479.788 504.744 480.083C506.869 480.378 509.033 480.082 511.007 479.228C512.981 478.374 514.691 476.993 515.958 475.231C517.225 473.469 518 471.391 518.203 469.216C518.406 467.042 518.028 464.853 517.109 462.879C516.191 460.906 514.766 459.222 512.985 458.005C511.204 456.788 509.134 456.083 506.992 455.966Z" fill="#E6E6E6"/>
</g>
</svg>
