<svg width="911" height="728" viewBox="0 0 911 728" fill="none" xmlns="http://www.w3.org/2000/svg">
<g id="habits 1">
<g id="Vector" filter="url(#filter0_d_1_2)">
<path d="M503.568 77C410.652 77 335.071 152.581 335.071 245.497C335.044 269.281 340.08 292.799 349.845 314.486C376.251 373.096 435.212 413.994 503.568 413.994C548.248 413.969 591.092 396.209 622.686 364.615C654.28 333.021 672.04 290.178 672.065 245.497C672.065 152.581 596.47 77 503.568 77ZM642.975 313.233C630.252 339.383 610.436 361.431 585.787 376.863C561.138 392.295 532.649 400.491 503.568 400.514C437.881 400.514 381.603 359.441 359.078 301.627C352.097 283.738 348.527 264.7 348.551 245.497C348.551 160.022 418.093 90.4798 503.568 90.4798C589.043 90.4798 658.585 160.022 658.585 245.497C658.614 268.97 653.275 292.14 642.975 313.233Z" fill="#E6E6E6"/>
</g>
<g id="Vector_2" filter="url(#filter1_d_1_2)">
<path d="M503.568 414.494C471.652 414.468 440.393 405.415 413.402 388.381C386.412 371.347 364.789 347.027 351.031 318.228C350.482 317.079 350.244 315.807 350.34 314.538C350.436 313.269 350.863 312.047 351.579 310.994L351.669 310.862C352.384 309.827 353.359 308.997 354.495 308.458C355.632 307.918 356.89 307.686 358.144 307.787C359.398 307.887 360.604 308.316 361.64 309.029C362.677 309.743 363.507 310.716 364.048 311.852C389.612 365.408 444.376 400.014 503.568 400.014C530.618 399.945 557.179 392.806 580.618 379.303C604.057 365.8 623.558 346.404 637.186 323.038C637.82 321.941 638.733 321.031 639.832 320.401C640.932 319.77 642.178 319.443 643.445 319.45C644.699 319.447 645.931 319.778 647.014 320.41C648.098 321.041 648.993 321.95 649.608 323.043L649.686 323.181C650.31 324.283 650.635 325.53 650.628 326.797C650.621 328.064 650.283 329.307 649.648 330.403C634.738 355.933 613.414 377.124 587.791 391.874C562.167 406.624 533.134 414.422 503.568 414.494Z" fill="#6C63FF"/>
</g>
<g id="Vector_3" filter="url(#filter2_d_1_2)">
<path d="M465.59 260.908C470.17 260.879 474.618 262.44 478.175 265.324C481.732 268.209 484.178 272.239 485.094 276.727C486.011 281.214 485.342 285.88 483.201 289.929C481.06 293.978 477.58 297.158 473.355 298.927C469.131 300.695 464.423 300.943 460.036 299.627C455.649 298.311 451.855 295.514 449.301 291.712C446.748 287.91 445.593 283.339 446.033 278.781C446.474 274.222 448.484 269.958 451.719 266.716C453.532 264.878 455.692 263.419 458.073 262.422C460.453 261.425 463.009 260.911 465.59 260.908ZM465.59 252.484C460.035 252.481 454.603 254.125 449.982 257.209C445.362 260.293 441.759 264.677 439.631 269.809C437.502 274.94 436.943 280.587 438.024 286.036C439.104 291.485 441.777 296.492 445.703 300.422C449.629 304.352 454.632 307.03 460.08 308.117C465.528 309.203 471.176 308.65 476.31 306.527C481.443 304.404 485.832 300.806 488.921 296.189C492.009 291.571 493.66 286.142 493.663 280.586C493.667 273.137 490.711 265.991 485.446 260.721C480.182 255.451 473.039 252.488 465.59 252.484ZM524.112 212.315C526.653 212.328 529.095 211.331 530.901 209.544C532.706 207.756 533.728 205.325 533.741 202.784C533.741 202.751 533.741 202.719 533.741 202.687C533.753 201.442 533.519 200.207 533.054 199.053C532.589 197.898 531.9 196.847 531.029 195.958C530.157 195.07 529.119 194.362 527.974 193.875C526.828 193.387 525.598 193.13 524.353 193.118C524.293 193.118 524.233 193.118 524.173 193.118C521.627 193.094 519.176 194.083 517.359 195.866C515.542 197.649 514.508 200.081 514.484 202.626C514.46 205.172 515.448 207.623 517.231 209.44C519.014 211.256 521.446 212.291 523.992 212.315C524.032 212.315 524.072 212.315 524.112 212.315ZM544.242 260.908C548.822 260.879 553.27 262.44 556.827 265.324C560.384 268.209 562.83 272.239 563.747 276.727C564.663 281.214 563.994 285.88 561.853 289.929C559.712 293.978 556.232 297.158 552.007 298.927C547.783 300.696 543.075 300.943 538.688 299.627C534.301 298.311 530.507 295.514 527.953 291.712C525.4 287.91 524.245 283.339 524.685 278.781C525.126 274.222 527.136 269.958 530.371 266.716C532.184 264.878 534.344 263.419 536.725 262.422C539.106 261.425 541.661 260.911 544.242 260.908ZM544.242 252.484C538.69 252.484 533.262 254.13 528.645 257.215C524.029 260.299 520.431 264.684 518.306 269.813C516.181 274.943 515.625 280.588 516.708 286.033C517.792 291.479 520.465 296.481 524.391 300.407C528.317 304.333 533.319 307.007 538.765 308.09C544.211 309.173 549.855 308.617 554.985 306.492C560.114 304.368 564.499 300.769 567.583 296.153C570.668 291.536 572.315 286.109 572.315 280.556C572.315 276.87 571.588 273.219 570.178 269.813C568.767 266.407 566.699 263.313 564.092 260.706C561.485 258.099 558.391 256.031 554.985 254.621C551.579 253.21 547.928 252.484 544.242 252.484Z" fill="#E6E6E6"/>
</g>
<g id="Vector_4" filter="url(#filter3_d_1_2)">
<path d="M538.615 231.632H524.173L515.296 213.549C514.58 212.281 513.58 211.196 512.373 210.38C511.167 209.564 509.788 209.04 508.344 208.847C506.9 208.655 505.432 208.8 504.054 209.271C502.676 209.742 501.426 210.527 500.403 211.563L478.829 232.354C477.063 234.157 476.061 236.571 476.031 239.094C476.031 244.33 479.822 246.195 481.597 247.248C495.287 255.131 500.102 256.004 500.102 259.946V279.774C500.102 281.051 500.609 282.275 501.512 283.178C502.414 284.081 503.639 284.588 504.916 284.588C506.193 284.588 507.417 284.081 508.32 283.178C509.223 282.275 509.73 281.051 509.73 279.774V252.694C509.73 248.723 500.583 245.473 495.197 241.261L509.91 225.765C515.537 234.34 518.125 241.261 521.344 241.261H538.615C539.892 241.263 541.117 240.757 542.022 239.856C542.926 238.955 543.435 237.731 543.437 236.454C543.439 235.177 542.934 233.952 542.033 233.048C541.131 232.143 539.907 231.634 538.631 231.632L538.615 231.632Z" fill="#E6E6E6"/>
</g>
<g id="Vector_5" filter="url(#filter4_d_1_2)">
<path d="M368.038 504.857C363.891 504.857 360.457 516.931 359.792 532.763H280.008C279.343 516.931 275.909 504.857 271.762 504.857C267.139 504.857 263.39 519.849 263.39 538.344C263.39 556.838 267.139 571.831 271.762 571.831C275.909 571.831 279.343 559.757 280.008 543.925H359.792C360.457 559.757 363.891 571.831 368.038 571.831C372.662 571.831 376.41 556.838 376.41 538.344C376.41 519.849 372.662 504.857 368.038 504.857Z" fill="#E6E6E6"/>
</g>
<g id="Vector_6" filter="url(#filter5_d_1_2)">
<path d="M406.901 488.902C395.076 467.708 375.931 451.55 353.051 443.455C330.17 435.36 305.124 435.883 282.601 444.925C260.078 453.967 241.624 470.909 230.693 492.578C219.762 514.247 217.104 539.157 223.217 562.645C229.33 586.132 243.795 606.586 263.903 620.177C284.01 633.768 308.383 639.563 332.456 636.478C356.529 633.392 378.652 621.638 394.683 603.416C410.714 585.194 419.553 561.753 419.545 537.483C419.54 520.476 415.187 503.753 406.901 488.902ZM319.741 629.294C295.552 629.17 272.398 619.458 255.36 602.287C238.321 585.117 228.787 561.89 228.85 537.7C228.912 513.51 238.566 490.333 255.693 473.251C272.821 456.168 296.024 446.576 320.214 446.578C344.404 446.579 367.606 456.175 384.731 473.259C401.856 490.343 411.507 513.522 411.566 537.712C411.626 561.902 402.089 585.128 385.048 602.296C368.007 619.464 344.852 629.173 320.663 629.294C320.356 629.295 320.048 629.295 319.741 629.294Z" fill="#E6E6E6"/>
</g>
<g id="Vector_7" filter="url(#filter6_d_1_2)">
<path d="M319.79 637.787C300.773 637.796 282.147 632.388 266.093 622.196C265.291 621.684 264.672 620.932 264.326 620.046L264.275 619.916C263.927 619.039 263.87 618.073 264.112 617.16C264.354 616.248 264.884 615.438 265.621 614.849C266.335 614.249 267.222 613.895 268.152 613.838C269.083 613.781 270.006 614.025 270.787 614.533C287.852 625.395 308.041 630.28 328.184 628.421C348.326 626.563 367.28 618.065 382.069 604.264C396.857 590.463 406.642 572.139 409.885 552.173C413.129 532.207 409.648 511.729 399.989 493.956C399.536 493.141 399.357 492.202 399.478 491.278C399.599 490.354 400.014 489.493 400.661 488.822C401.301 488.126 402.147 487.654 403.075 487.476C404.002 487.298 404.963 487.422 405.815 487.831L405.94 487.889C406.795 488.29 407.5 488.951 407.955 489.778C416.223 505.047 420.384 522.201 420.03 539.562C419.677 556.922 414.821 573.893 405.938 588.813C397.056 603.733 384.451 616.09 369.358 624.675C354.264 633.26 337.2 637.778 319.837 637.787H319.79Z" fill="#6C63FF"/>
</g>
<g id="Vector_8" filter="url(#filter7_d_1_2)">
<path d="M687.348 437.697C674.24 437.691 661.258 440.268 649.146 445.28C637.033 450.292 626.026 457.64 616.754 466.907C607.482 476.173 600.126 487.175 595.107 499.285C590.087 511.394 587.503 524.374 587.5 537.483C587.498 550.591 590.078 563.572 595.093 575.684C600.108 587.795 607.46 598.8 616.728 608.069C625.997 617.339 637.001 624.692 649.112 629.708C661.223 634.725 674.203 637.306 687.312 637.305H687.348C687.995 637.305 688.629 637.305 689.276 637.278C715.574 636.772 740.609 625.904 758.937 607.039C777.265 588.173 787.404 562.834 787.15 536.533C786.896 510.231 776.269 485.093 757.58 466.585C738.891 448.077 713.651 437.695 687.348 437.697ZM707.689 627.033C695.092 629.894 682.032 630.065 669.364 627.533C656.696 625.002 644.705 619.826 634.174 612.343C623.644 604.861 614.81 595.241 608.252 584.111C601.693 572.982 597.557 560.593 596.113 547.756C594.669 534.918 595.951 521.921 599.874 509.613C603.797 497.304 610.273 485.962 618.878 476.328C627.484 466.693 638.026 458.983 649.816 453.702C661.605 448.42 674.376 445.685 687.294 445.677H687.348C709.929 445.675 731.718 453.995 748.552 469.045C765.386 484.095 776.084 504.821 778.6 527.261C781.117 549.701 775.277 572.282 762.196 590.687C749.114 609.093 729.709 622.033 707.689 627.033Z" fill="#E6E6E6"/>
</g>
<g id="Vector_9" filter="url(#filter8_d_1_2)">
<path d="M687.348 637.805C662.595 637.805 638.715 628.651 620.304 612.106C601.892 595.56 590.249 572.791 587.614 548.178C584.978 523.565 591.537 498.847 606.028 478.779C620.519 458.71 641.92 444.709 666.112 439.468C666.707 439.341 667.322 439.333 667.92 439.445L668.128 439.484C669.132 439.679 670.038 440.214 670.693 440.999C671.348 441.784 671.712 442.771 671.724 443.793C671.736 444.815 671.395 445.81 670.758 446.61C670.121 447.41 669.228 447.966 668.229 448.184C646.176 452.912 626.653 465.633 613.419 483.897C600.185 502.16 594.178 524.675 596.554 547.103C598.929 569.532 609.52 590.288 626.286 605.374C643.052 620.46 664.808 628.809 687.362 628.812C688.244 628.803 689.101 628.8 689.972 628.774C690.943 628.734 691.898 629.037 692.668 629.629C693.438 630.222 693.975 631.067 694.184 632.016C694.414 632.933 694.312 633.902 693.897 634.751C693.481 635.6 692.778 636.274 691.912 636.655C691.325 636.924 690.735 637.189 690.142 637.448C689.643 637.669 689.104 637.788 688.558 637.799C688.156 637.805 687.755 637.805 687.348 637.805Z" fill="#6C63FF"/>
</g>
<g id="Vector_10" filter="url(#filter9_d_1_2)">
<path d="M736.585 533.258C733.926 533.124 731.296 533.865 729.097 535.366C726.898 536.866 725.251 539.046 724.406 541.57H714.577L707.401 519.992C707.135 519.184 706.621 518.48 705.931 517.981C705.241 517.482 704.412 517.213 703.561 517.213H703.485C702.621 517.226 701.785 517.519 701.102 518.048C700.419 518.576 699.925 519.312 699.695 520.144L688.451 559.384L675.237 480.02C675.083 479.102 674.619 478.264 673.92 477.647C673.222 477.031 672.333 476.673 671.403 476.635C670.472 476.596 669.557 476.879 668.81 477.436C668.064 477.992 667.531 478.789 667.303 479.692L653.911 541.57H638.903C637.83 541.57 636.802 541.996 636.044 542.754C635.286 543.513 634.86 544.541 634.86 545.613C634.86 546.685 635.286 547.714 636.044 548.472C636.802 549.23 637.83 549.656 638.903 549.656H657.095C657.995 549.657 658.87 549.357 659.58 548.803C660.29 548.248 660.794 547.472 661.011 546.599L670.461 500.562L683.423 578.359C683.571 579.265 684.026 580.093 684.711 580.705C685.396 581.317 686.27 581.675 687.188 581.72H687.415C688.294 581.718 689.148 581.432 689.85 580.903C690.552 580.375 691.063 579.633 691.306 578.789L703.864 534.925L707.831 546.876C708.101 547.682 708.617 548.384 709.305 548.882C709.994 549.38 710.821 549.651 711.671 549.656H724.583C725.355 551.7 726.665 553.498 728.374 554.86C730.083 556.221 732.129 557.095 734.294 557.39C736.459 557.685 738.664 557.39 740.675 556.535C742.687 555.681 744.43 554.299 745.72 552.535C747.011 550.772 747.801 548.692 748.008 546.517C748.214 544.341 747.829 542.151 746.893 540.176C745.957 538.201 744.506 536.516 742.691 535.298C740.876 534.08 738.767 533.375 736.585 533.258Z" fill="#E6E6E6"/>
</g>
</g>
<defs>
<filter id="filter0_d_1_2" x="331.071" y="77" width="344.994" height="344.994" filterUnits="userSpaceOnUse" color-interpolation-filters="sRGB">
<feFlood flood-opacity="0" result="BackgroundImageFix"/>
<feColorMatrix in="SourceAlpha" type="matrix" values="0 0 0 0 0 0 0 0 0 0 0 0 0 0 0 0 0 0 127 0" result="hardAlpha"/>
<feOffset dy="4"/>
<feGaussianBlur stdDeviation="2"/>
<feComposite in2="hardAlpha" operator="out"/>
<feColorMatrix type="matrix" values="0 0 0 0 0 0 0 0 0 0 0 0 0 0 0 0 0 0 0.25 0"/>
<feBlend mode="normal" in2="BackgroundImageFix" result="effect1_dropShadow_1_2"/>
<feBlend mode="normal" in="SourceGraphic" in2="effect1_dropShadow_1_2" result="shape"/>
</filter>
<filter id="filter1_d_1_2" x="346.319" y="307.764" width="308.309" height="114.73" filterUnits="userSpaceOnUse" color-interpolation-filters="sRGB">
<feFlood flood-opacity="0" result="BackgroundImageFix"/>
<feColorMatrix in="SourceAlpha" type="matrix" values="0 0 0 0 0 0 0 0 0 0 0 0 0 0 0 0 0 0 127 0" result="hardAlpha"/>
<feOffset dy="4"/>
<feGaussianBlur stdDeviation="2"/>
<feComposite in2="hardAlpha" operator="out"/>
<feColorMatrix type="matrix" values="0 0 0 0 0 0 0 0 0 0 0 0 0 0 0 0 0 0 0.25 0"/>
<feBlend mode="normal" in2="BackgroundImageFix" result="effect1_dropShadow_1_2"/>
<feBlend mode="normal" in="SourceGraphic" in2="effect1_dropShadow_1_2" result="shape"/>
</filter>
<filter id="filter2_d_1_2" x="433.487" y="193.118" width="142.828" height="123.541" filterUnits="userSpaceOnUse" color-interpolation-filters="sRGB">
<feFlood flood-opacity="0" result="BackgroundImageFix"/>
<feColorMatrix in="SourceAlpha" type="matrix" values="0 0 0 0 0 0 0 0 0 0 0 0 0 0 0 0 0 0 127 0" result="hardAlpha"/>
<feOffset dy="4"/>
<feGaussianBlur stdDeviation="2"/>
<feComposite in2="hardAlpha" operator="out"/>
<feColorMatrix type="matrix" values="0 0 0 0 0 0 0 0 0 0 0 0 0 0 0 0 0 0 0.25 0"/>
<feBlend mode="normal" in2="BackgroundImageFix" result="effect1_dropShadow_1_2"/>
<feBlend mode="normal" in="SourceGraphic" in2="effect1_dropShadow_1_2" result="shape"/>
</filter>
<filter id="filter3_d_1_2" x="472.031" y="208.765" width="75.4065" height="83.8237" filterUnits="userSpaceOnUse" color-interpolation-filters="sRGB">
<feFlood flood-opacity="0" result="BackgroundImageFix"/>
<feColorMatrix in="SourceAlpha" type="matrix" values="0 0 0 0 0 0 0 0 0 0 0 0 0 0 0 0 0 0 127 0" result="hardAlpha"/>
<feOffset dy="4"/>
<feGaussianBlur stdDeviation="2"/>
<feComposite in2="hardAlpha" operator="out"/>
<feColorMatrix type="matrix" values="0 0 0 0 0 0 0 0 0 0 0 0 0 0 0 0 0 0 0.25 0"/>
<feBlend mode="normal" in2="BackgroundImageFix" result="effect1_dropShadow_1_2"/>
<feBlend mode="normal" in="SourceGraphic" in2="effect1_dropShadow_1_2" result="shape"/>
</filter>
<filter id="filter4_d_1_2" x="259.39" y="504.857" width="121.02" height="74.9745" filterUnits="userSpaceOnUse" color-interpolation-filters="sRGB">
<feFlood flood-opacity="0" result="BackgroundImageFix"/>
<feColorMatrix in="SourceAlpha" type="matrix" values="0 0 0 0 0 0 0 0 0 0 0 0 0 0 0 0 0 0 127 0" result="hardAlpha"/>
<feOffset dy="4"/>
<feGaussianBlur stdDeviation="2"/>
<feComposite in2="hardAlpha" operator="out"/>
<feColorMatrix type="matrix" values="0 0 0 0 0 0 0 0 0 0 0 0 0 0 0 0 0 0 0.25 0"/>
<feBlend mode="normal" in2="BackgroundImageFix" result="effect1_dropShadow_1_2"/>
<feBlend mode="normal" in="SourceGraphic" in2="effect1_dropShadow_1_2" result="shape"/>
</filter>
<filter id="filter5_d_1_2" x="216" y="437.742" width="207.545" height="207.545" filterUnits="userSpaceOnUse" color-interpolation-filters="sRGB">
<feFlood flood-opacity="0" result="BackgroundImageFix"/>
<feColorMatrix in="SourceAlpha" type="matrix" values="0 0 0 0 0 0 0 0 0 0 0 0 0 0 0 0 0 0 127 0" result="hardAlpha"/>
<feOffset dy="4"/>
<feGaussianBlur stdDeviation="2"/>
<feComposite in2="hardAlpha" operator="out"/>
<feColorMatrix type="matrix" values="0 0 0 0 0 0 0 0 0 0 0 0 0 0 0 0 0 0 0.25 0"/>
<feBlend mode="normal" in2="BackgroundImageFix" result="effect1_dropShadow_1_2"/>
<feBlend mode="normal" in="SourceGraphic" in2="effect1_dropShadow_1_2" result="shape"/>
</filter>
<filter id="filter6_d_1_2" x="259.964" y="487.397" width="164.087" height="158.391" filterUnits="userSpaceOnUse" color-interpolation-filters="sRGB">
<feFlood flood-opacity="0" result="BackgroundImageFix"/>
<feColorMatrix in="SourceAlpha" type="matrix" values="0 0 0 0 0 0 0 0 0 0 0 0 0 0 0 0 0 0 127 0" result="hardAlpha"/>
<feOffset dy="4"/>
<feGaussianBlur stdDeviation="2"/>
<feComposite in2="hardAlpha" operator="out"/>
<feColorMatrix type="matrix" values="0 0 0 0 0 0 0 0 0 0 0 0 0 0 0 0 0 0 0.25 0"/>
<feBlend mode="normal" in2="BackgroundImageFix" result="effect1_dropShadow_1_2"/>
<feBlend mode="normal" in="SourceGraphic" in2="effect1_dropShadow_1_2" result="shape"/>
</filter>
<filter id="filter7_d_1_2" x="583.5" y="437.697" width="207.655" height="207.608" filterUnits="userSpaceOnUse" color-interpolation-filters="sRGB">
<feFlood flood-opacity="0" result="BackgroundImageFix"/>
<feColorMatrix in="SourceAlpha" type="matrix" values="0 0 0 0 0 0 0 0 0 0 0 0 0 0 0 0 0 0 127 0" result="hardAlpha"/>
<feOffset dy="4"/>
<feGaussianBlur stdDeviation="2"/>
<feComposite in2="hardAlpha" operator="out"/>
<feColorMatrix type="matrix" values="0 0 0 0 0 0 0 0 0 0 0 0 0 0 0 0 0 0 0.25 0"/>
<feBlend mode="normal" in2="BackgroundImageFix" result="effect1_dropShadow_1_2"/>
<feBlend mode="normal" in="SourceGraphic" in2="effect1_dropShadow_1_2" result="shape"/>
</filter>
<filter id="filter8_d_1_2" x="583.043" y="439.366" width="115.261" height="206.439" filterUnits="userSpaceOnUse" color-interpolation-filters="sRGB">
<feFlood flood-opacity="0" result="BackgroundImageFix"/>
<feColorMatrix in="SourceAlpha" type="matrix" values="0 0 0 0 0 0 0 0 0 0 0 0 0 0 0 0 0 0 127 0" result="hardAlpha"/>
<feOffset dy="4"/>
<feGaussianBlur stdDeviation="2"/>
<feComposite in2="hardAlpha" operator="out"/>
<feColorMatrix type="matrix" values="0 0 0 0 0 0 0 0 0 0 0 0 0 0 0 0 0 0 0.25 0"/>
<feBlend mode="normal" in2="BackgroundImageFix" result="effect1_dropShadow_1_2"/>
<feBlend mode="normal" in="SourceGraphic" in2="effect1_dropShadow_1_2" result="shape"/>
</filter>
<filter id="filter9_d_1_2" x="630.86" y="476.631" width="121.202" height="113.088" filterUnits="userSpaceOnUse" color-interpolation-filters="sRGB">
<feFlood flood-opacity="0" result="BackgroundImageFix"/>
<feColorMatrix in="SourceAlpha" type="matrix" values="0 0 0 0 0 0 0 0 0 0 0 0 0 0 0 0 0 0 127 0" result="hardAlpha"/>
<feOffset dy="4"/>
<feGaussianBlur stdDeviation="2"/>
<feComposite in2="hardAlpha" operator="out"/>
<feColorMatrix type="matrix" values="0 0 0 0 0 0 0 0 0 0 0 0 0 0 0 0 0 0 0.25 0"/>
<feBlend mode="normal" in2="BackgroundImageFix" result="effect1_dropShadow_1_2"/>
<feBlend mode="normal" in="SourceGraphic" in2="effect1_dropShadow_1_2" result="shape"/>
</filter>
</defs>
</svg>
