<svg width="911" height="728" viewBox="0 0 911 728" fill="none" xmlns="http://www.w3.org/2000/svg">
<g id="habits 1" clip-path="url(#clip0_1_2)">
<path id="Vector" d="M283.586 0C190.67 0 115.089 75.581 115.089 168.497C115.062 192.281 120.098 215.799 129.863 237.486C156.269 296.096 215.23 336.994 283.586 336.994C328.266 336.969 371.11 319.209 402.704 287.615C434.298 256.021 452.058 213.178 452.083 168.497C452.083 75.5811 376.488 0 283.586 0ZM422.993 236.233C410.27 262.383 390.454 284.431 365.805 299.863C341.156 315.295 312.667 323.491 283.586 323.514C217.899 323.514 161.621 282.441 139.096 224.627C132.115 206.738 128.545 187.7 128.569 168.497C128.569 83.0218 198.111 13.4798 283.586 13.4798C369.061 13.4798 438.603 83.0218 438.603 168.497C438.632 191.97 433.293 215.14 422.993 236.233Z" fill="#E6E6E6"/>
<path id="Vector_2" d="M283.586 337.494C251.67 337.468 220.411 328.415 193.42 311.381C166.43 294.348 144.807 270.027 131.049 241.228C130.5 240.079 130.262 238.807 130.358 237.538C130.454 236.269 130.881 235.047 131.597 233.994L131.687 233.862C132.402 232.827 133.376 231.997 134.513 231.458C135.65 230.918 136.908 230.687 138.162 230.787C139.416 230.887 140.622 231.316 141.658 232.029C142.695 232.743 143.525 233.716 144.066 234.852C169.63 288.408 224.394 323.014 283.586 323.014C310.635 322.945 337.197 315.806 360.636 302.303C384.075 288.8 403.576 269.404 417.204 246.038C417.838 244.941 418.751 244.031 419.85 243.401C420.95 242.77 422.196 242.443 423.463 242.45C424.717 242.447 425.949 242.778 427.032 243.41C428.116 244.041 429.011 244.95 429.626 246.043L429.704 246.181C430.328 247.283 430.652 248.53 430.646 249.797C430.639 251.064 430.301 252.307 429.666 253.403C414.756 278.933 393.432 300.124 367.809 314.874C342.185 329.624 313.152 337.422 283.586 337.494Z" fill="#6C63FF"/>
<path id="Vector_3" d="M245.608 183.908C250.188 183.879 254.636 185.44 258.193 188.324C261.75 191.209 264.196 195.239 265.112 199.727C266.029 204.214 265.36 208.88 263.219 212.929C261.078 216.978 257.598 220.158 253.373 221.927C249.149 223.695 244.441 223.943 240.054 222.627C235.667 221.311 231.873 218.514 229.319 214.712C226.766 210.91 225.611 206.339 226.051 201.781C226.492 197.222 228.502 192.958 231.737 189.716C233.55 187.878 235.71 186.419 238.09 185.422C240.471 184.425 243.027 183.911 245.608 183.908ZM245.608 175.484C240.052 175.481 234.621 177.125 230 180.209C225.38 183.293 221.777 187.677 219.649 192.809C217.52 197.94 216.961 203.587 218.042 209.036C219.122 214.485 221.795 219.492 225.721 223.422C229.647 227.352 234.65 230.03 240.098 231.117C245.546 232.203 251.194 231.65 256.328 229.527C261.461 227.404 265.85 223.806 268.939 219.189C272.027 214.571 273.678 209.142 273.681 203.586C273.685 196.137 270.729 188.991 265.464 183.721C260.2 178.451 253.057 175.488 245.608 175.484ZM304.13 135.315C306.671 135.328 309.113 134.331 310.919 132.544C312.724 130.756 313.746 128.325 313.759 125.784C313.759 125.751 313.759 125.719 313.759 125.687C313.771 124.442 313.537 123.207 313.072 122.053C312.607 120.898 311.918 119.847 311.047 118.958C310.175 118.07 309.137 117.362 307.991 116.875C306.846 116.387 305.616 116.13 304.371 116.118C304.311 116.118 304.251 116.118 304.191 116.118C301.645 116.094 299.194 117.083 297.377 118.866C295.56 120.649 294.526 123.081 294.502 125.626C294.478 128.172 295.466 130.623 297.249 132.44C299.032 134.256 301.464 135.291 304.01 135.315C304.05 135.315 304.09 135.315 304.13 135.315ZM324.26 183.908C328.84 183.879 333.288 185.44 336.845 188.324C340.402 191.209 342.848 195.239 343.765 199.727C344.681 204.214 344.012 208.88 341.871 212.929C339.73 216.978 336.25 220.158 332.025 221.927C327.801 223.696 323.093 223.943 318.706 222.627C314.319 221.311 310.525 218.514 307.971 214.712C305.418 210.91 304.263 206.339 304.703 201.781C305.144 197.222 307.154 192.958 310.389 189.716C312.202 187.878 314.362 186.419 316.743 185.422C319.124 184.425 321.679 183.911 324.26 183.908ZM324.26 175.484C318.707 175.484 313.28 177.13 308.663 180.215C304.047 183.299 300.449 187.684 298.324 192.813C296.199 197.943 295.643 203.588 296.726 209.033C297.81 214.479 300.483 219.481 304.409 223.407C308.335 227.333 313.337 230.007 318.783 231.09C324.229 232.173 329.873 231.617 335.003 229.492C340.132 227.368 344.517 223.769 347.601 219.153C350.686 214.536 352.333 209.109 352.333 203.556C352.333 199.87 351.606 196.219 350.196 192.813C348.785 189.407 346.717 186.313 344.11 183.706C341.503 181.099 338.409 179.031 335.003 177.621C331.597 176.21 327.946 175.484 324.26 175.484Z" fill="#E6E6E6"/>
<path id="Vector_4" d="M318.633 154.632H304.191L295.314 136.549C294.598 135.281 293.598 134.196 292.391 133.38C291.185 132.564 289.806 132.04 288.362 131.847C286.918 131.655 285.45 131.8 284.072 132.271C282.694 132.742 281.444 133.527 280.421 134.563L258.847 155.354C257.081 157.157 256.079 159.571 256.049 162.094C256.049 167.33 259.84 169.195 261.615 170.248C275.305 178.131 280.12 179.004 280.12 182.946V202.774C280.12 204.051 280.627 205.275 281.53 206.178C282.432 207.081 283.657 207.588 284.934 207.588C286.211 207.588 287.435 207.081 288.338 206.178C289.241 205.275 289.748 204.051 289.748 202.774V175.694C289.748 171.723 280.601 168.473 275.215 164.261L289.928 148.765C295.555 157.34 298.143 164.261 301.362 164.261H318.633C319.91 164.263 321.135 163.757 322.04 162.856C322.944 161.955 323.453 160.731 323.455 159.454C323.457 158.177 322.952 156.952 322.051 156.048C321.149 155.143 319.925 154.634 318.649 154.632L318.633 154.632Z" fill="#E6E6E6"/>
<path id="Vector_5" d="M148.056 427.857C143.909 427.857 140.475 439.931 139.81 455.763H60.0264C59.3609 439.931 55.9274 427.857 51.7801 427.857C47.1566 427.857 43.4083 442.849 43.4083 461.344C43.4083 479.838 47.1566 494.831 51.7801 494.831C55.9274 494.831 59.3609 482.757 60.0264 466.925H139.81C140.475 482.757 143.909 494.831 148.056 494.831C152.68 494.831 156.428 479.838 156.428 461.344C156.428 442.849 152.68 427.857 148.056 427.857Z" fill="#E6E6E6"/>
<path id="Vector_6" d="M186.919 411.902C175.094 390.708 155.949 374.55 133.069 366.455C110.188 358.36 85.142 358.883 62.6192 367.925C40.0964 376.967 21.6417 393.909 10.7107 415.578C-0.220384 437.247 -2.87823 462.157 3.2348 485.645C9.34782 509.132 23.8125 529.586 43.9205 543.177C64.0285 556.768 88.4008 562.563 112.474 559.478C136.547 556.392 158.67 544.638 174.701 526.416C190.732 508.194 199.571 484.753 199.563 460.483C199.558 443.476 195.205 426.753 186.919 411.902ZM99.7591 552.294C75.5696 552.17 52.4164 542.458 35.3776 525.287C18.3387 508.117 8.80512 484.89 8.8677 460.7C8.93029 436.51 18.5839 413.333 35.7114 396.251C52.8389 379.168 76.042 369.576 100.232 369.578C124.422 369.579 147.624 379.175 164.749 396.259C181.874 413.343 191.525 436.522 191.584 460.712C191.644 484.902 182.107 508.128 165.066 525.296C148.025 542.464 124.87 552.173 100.681 552.294C100.374 552.295 100.066 552.295 99.7591 552.294Z" fill="#E6E6E6"/>
<path id="Vector_7" d="M99.8078 560.787C80.7911 560.796 62.1653 555.388 46.1109 545.196C45.3091 544.684 44.6903 543.932 44.3437 543.046L44.2934 542.916C43.9449 542.039 43.8876 541.073 44.1299 540.16C44.3723 539.248 44.9015 538.438 45.6394 537.849C46.3528 537.249 47.2401 536.895 48.1703 536.838C49.1005 536.781 50.0243 537.025 50.8054 537.533C67.8698 548.395 88.0591 553.28 108.202 551.421C128.344 549.563 147.298 541.065 162.087 527.264C176.875 513.463 186.66 495.139 189.903 475.173C193.147 455.207 189.666 434.729 180.007 416.956C179.554 416.141 179.375 415.202 179.496 414.278C179.617 413.354 180.032 412.493 180.679 411.822C181.319 411.126 182.165 410.654 183.093 410.476C184.02 410.298 184.981 410.422 185.833 410.831L185.958 410.889C186.813 411.29 187.518 411.951 187.973 412.778C196.241 428.047 200.402 445.201 200.048 462.562C199.695 479.922 194.839 496.893 185.956 511.813C177.074 526.733 164.469 539.09 149.376 547.675C134.282 556.26 117.218 560.778 99.8545 560.787H99.8078Z" fill="#6C63FF"/>
<path id="Vector_8" d="M467.366 360.697C454.258 360.691 441.276 363.268 429.164 368.28C417.051 373.292 406.044 380.64 396.772 389.907C387.5 399.173 380.144 410.175 375.125 422.285C370.105 434.394 367.52 447.374 367.518 460.483C367.516 473.591 370.096 486.572 375.111 498.684C380.126 510.795 387.478 521.8 396.746 531.069C406.015 540.339 417.019 547.692 429.13 552.708C441.241 557.725 454.221 560.306 467.33 560.305H467.366C468.013 560.305 468.647 560.305 469.294 560.278C495.592 559.772 520.627 548.904 538.955 530.039C557.283 511.173 567.422 485.834 567.168 459.533C566.914 433.231 556.287 408.093 537.598 389.585C518.909 371.077 493.669 360.695 467.366 360.697ZM487.707 550.033C475.11 552.894 462.05 553.065 449.382 550.533C436.714 548.002 424.723 542.826 414.192 535.343C403.662 527.861 394.828 518.241 388.27 507.111C381.711 495.982 377.575 483.593 376.131 470.756C374.687 457.918 375.969 444.921 379.892 432.613C383.814 420.304 390.291 408.962 398.896 399.328C407.502 389.693 418.044 381.983 429.834 376.702C441.623 371.42 454.394 368.685 467.312 368.677H467.366C489.947 368.675 511.736 376.995 528.57 392.045C545.404 407.095 556.101 427.821 558.618 450.261C561.135 472.701 555.295 495.282 542.214 513.687C529.132 532.093 509.727 545.033 487.707 550.033Z" fill="#E6E6E6"/>
<path id="Vector_9" d="M467.366 560.805C442.613 560.805 418.733 551.651 400.322 535.106C381.91 518.56 370.267 495.791 367.632 471.178C364.996 446.565 371.555 421.847 386.046 401.779C400.538 381.71 421.938 367.709 446.13 362.468C446.725 362.341 447.34 362.333 447.938 362.445L448.146 362.484C449.15 362.679 450.056 363.214 450.711 363.999C451.366 364.784 451.73 365.771 451.742 366.793C451.754 367.815 451.413 368.81 450.776 369.61C450.139 370.41 449.246 370.966 448.247 371.184C426.194 375.912 406.671 388.633 393.437 406.897C380.203 425.16 374.196 447.675 376.572 470.103C378.947 492.532 389.538 513.288 406.304 528.374C423.07 543.46 444.826 551.809 467.38 551.812C468.262 551.803 469.119 551.8 469.99 551.774C470.961 551.734 471.916 552.037 472.686 552.629C473.456 553.222 473.993 554.067 474.202 555.016C474.432 555.933 474.33 556.902 473.915 557.751C473.499 558.6 472.796 559.274 471.93 559.655C471.343 559.924 470.753 560.189 470.16 560.448C469.661 560.669 469.122 560.788 468.576 560.799C468.174 560.805 467.773 560.805 467.366 560.805Z" fill="#6C63FF"/>
<path id="Vector_10" d="M516.603 456.258C513.944 456.124 511.314 456.865 509.115 458.366C506.916 459.866 505.269 462.046 504.424 464.57H494.595L487.419 442.992C487.153 442.184 486.639 441.48 485.949 440.981C485.259 440.482 484.43 440.213 483.579 440.213H483.503C482.639 440.226 481.803 440.519 481.12 441.048C480.437 441.576 479.943 442.312 479.713 443.144L468.469 482.384L455.254 403.02C455.101 402.102 454.636 401.264 453.938 400.647C453.24 400.031 452.351 399.673 451.421 399.635C450.49 399.596 449.575 399.879 448.828 400.436C448.082 400.992 447.549 401.789 447.321 402.692L433.929 464.57H418.921C417.848 464.57 416.82 464.996 416.062 465.754C415.304 466.513 414.878 467.541 414.878 468.613C414.878 469.685 415.304 470.714 416.062 471.472C416.82 472.23 417.848 472.656 418.921 472.656H437.113C438.013 472.657 438.888 472.357 439.598 471.803C440.308 471.248 440.812 470.472 441.029 469.599L450.479 423.562L463.441 501.359C463.589 502.265 464.044 503.093 464.729 503.705C465.414 504.317 466.288 504.675 467.206 504.72H467.433C468.312 504.718 469.166 504.432 469.868 503.903C470.569 503.375 471.081 502.633 471.324 501.789L483.882 457.925L487.849 469.876C488.119 470.682 488.635 471.384 489.323 471.882C490.012 472.38 490.839 472.651 491.689 472.656H504.601C505.373 474.7 506.683 476.498 508.392 477.86C510.101 479.221 512.147 480.095 514.312 480.39C516.477 480.685 518.682 480.39 520.693 479.535C522.705 478.681 524.448 477.299 525.738 475.535C527.029 473.772 527.819 471.692 528.026 469.517C528.232 467.341 527.847 465.151 526.911 463.176C525.975 461.201 524.524 459.516 522.709 458.298C520.894 457.08 518.785 456.375 516.603 456.258Z" fill="#E6E6E6"/>
</g>
<defs>
<clipPath id="clip0_1_2">
<rect width="910.915" height="727.466" fill="white"/>
</clipPath>
</defs>
</svg>
