<svg width="855" height="650" viewBox="0 0 855 650" fill="none" xmlns="http://www.w3.org/2000/svg">
<g id="helpdesk 1" clip-path="url(#clip0_1_110)">
<path id="Vector" d="M804.392 179.402C796.387 168.107 787.506 157.205 777.799 146.758C770.997 139.429 763.81 132.345 756.237 125.505H756.218C742.516 113.122 727.614 101.584 711.644 90.9934C708.376 88.8221 705.063 86.6953 701.707 84.6129C671.406 65.7568 637.805 50.3982 601.928 39.0067L602.247 80.0156L605.68 547.494H308.132L291.398 80.8976L292.645 40.5436C146.766 88.5363 44.3378 201.376 44.3378 332.936C44.3107 360.09 48.7395 387.136 57.5158 413.408C61.2227 424.514 65.7105 435.451 70.9589 446.17C72.8536 450.061 74.8525 453.917 76.9556 457.738C77.9694 459.599 79.002 461.444 80.0725 463.282C81.4462 465.683 82.8767 468.076 84.3452 470.44C85.482 472.3 86.6504 474.148 87.8504 475.983C89.3946 478.392 90.9894 480.781 92.6347 483.15C93.9041 485.01 95.2115 486.855 96.5378 488.693C117.935 518.299 145.26 545.032 177.471 567.875C186.651 574.389 196.204 580.565 206.129 586.402C276.357 627.681 361.825 650 449.669 650C537.513 650 622.981 627.681 693.209 586.402C698.609 583.23 703.898 579.952 709.077 576.568C712.516 574.33 715.898 572.05 719.223 569.728C720.104 569.113 720.985 568.498 721.857 567.875C751.554 546.816 777.112 522.442 797.703 495.54C805.265 485.677 812.122 475.494 818.242 465.038C819.862 462.281 821.432 459.5 822.951 456.694C829.942 443.828 835.822 430.61 840.553 417.128C841.282 415.046 841.986 412.956 842.665 410.859V410.851C842.779 410.488 842.902 410.118 843.016 409.755C843.717 407.546 844.389 405.323 845.034 403.1V403.092C847.118 395.926 848.877 388.674 850.31 381.335C850.491 380.394 850.671 379.453 850.841 378.511C850.907 378.171 850.974 377.83 851.021 377.489V377.481C852.044 371.812 852.875 366.101 853.513 360.348C854.498 351.314 854.994 342.177 855 332.936C855.107 279.223 837.688 226.378 804.392 179.402Z" fill="#F2F2F2"/>
<path id="Vector_2" d="M764.586 524.33C788.577 498.972 797.803 463.255 779.141 435.29C761.639 466.745 730.477 492.344 691.169 507.558C675.982 513.382 658.316 518.623 651.286 530.657C646.912 538.144 647.745 546.986 651.261 554.745C654.778 562.504 660.758 569.408 666.676 576.216L666.987 578.256C704.241 566.174 740.594 549.687 764.586 524.33Z" fill="#E6E6E6"/>
<path id="Vector_3" d="M778.345 435.514C777.27 461.612 765.71 486.782 745.307 507.448C741.015 511.958 735.842 515.911 729.977 519.16C724.133 522.182 717.362 523.924 710.366 524.205C703.85 524.571 697.131 524.354 690.842 525.952C687.638 526.807 684.702 528.183 682.225 529.988C679.749 531.793 677.788 533.988 676.472 536.427C672.99 542.439 672.477 549.072 672.264 555.571C672.027 562.787 671.927 570.286 667.576 576.845C667.049 577.64 668.656 578.234 669.182 577.44C676.753 566.027 671.837 552.68 676.349 540.682C678.454 535.084 682.729 529.948 689.874 527.704C696.122 525.743 703.051 525.961 709.653 525.636C716.483 525.44 723.147 523.938 729.064 521.262C735.121 518.256 740.48 514.466 744.912 510.054C755.092 500.245 763.237 489.245 769.049 477.457C775.778 464.032 779.521 449.806 780.116 435.393C780.153 434.501 778.381 434.628 778.345 435.514Z" fill="white"/>
<path id="Vector_4" d="M752.377 501.096C757.275 503.303 763.015 504.077 768.574 503.278C774.133 502.48 779.149 500.162 782.725 496.738C783.445 496.044 782.099 495.135 781.377 495.831C778.055 499.024 773.383 501.183 768.205 501.918C763.026 502.653 757.682 501.916 753.137 499.839C752.149 499.389 751.395 500.648 752.377 501.096Z" fill="white"/>
<path id="Vector_5" d="M713.701 524.361C710.601 515.654 711.81 506.354 717.086 498.314C717.61 497.518 716.002 496.924 715.479 497.719C710.009 506.094 708.776 515.774 712.027 524.829C712.338 525.692 714.01 525.219 713.701 524.361Z" fill="white"/>
<path id="Vector_6" d="M773.422 464.096C771.3 463.551 769.384 462.602 767.846 461.335C766.308 460.067 765.197 458.521 764.613 456.834C764.316 455.969 762.644 456.443 762.939 457.303C763.596 459.164 764.826 460.87 766.521 462.274C768.216 463.677 770.324 464.734 772.662 465.353C772.876 465.426 773.118 465.432 773.337 465.371C773.557 465.309 773.739 465.185 773.845 465.022C773.945 464.855 773.956 464.664 773.877 464.491C773.798 464.318 773.634 464.176 773.422 464.096Z" fill="white"/>
<path id="Vector_7" d="M645.593 413.034C645.759 413.579 645.924 414.124 646.08 414.677C648.257 422.007 649.669 429.464 650.302 436.973C650.363 437.552 650.413 438.141 650.452 438.721C651.731 456.825 648.703 474.957 641.52 492.195C638.653 499.053 635.124 505.73 630.963 512.169C625.215 521.061 618.079 530.344 616.47 539.92C616.288 540.918 616.184 541.923 616.161 542.931L663.781 578.396C663.941 578.434 664.091 578.481 664.251 578.519L666.07 580.003C666.314 579.683 666.559 579.347 666.803 579.026C666.946 578.841 667.078 578.647 667.22 578.462C667.312 578.336 667.403 578.21 667.495 578.1C667.526 578.058 667.556 578.016 667.577 577.982C667.669 577.873 667.739 577.763 667.821 577.662C669.195 575.785 670.554 573.897 671.898 571.998C671.909 571.989 671.909 571.989 671.909 571.973C682.107 557.484 690.848 542.202 696.346 526.368C696.511 525.892 696.687 525.407 696.831 524.914C699.259 517.766 700.935 510.475 701.845 503.113C702.326 499.081 702.546 495.032 702.504 490.983C702.369 480.519 700.131 470.137 695.872 460.217C687.378 440.444 670.895 423.015 647.397 413.73C646.796 413.493 646.205 413.263 645.593 413.034Z" fill="#E6E6E6"/>
<path id="Vector_8" d="M645.125 413.587C664.353 434.931 674.496 460.472 674.111 486.582C674.156 492.204 673.068 497.796 670.886 503.153C668.546 508.318 664.48 512.898 659.111 516.417C654.189 519.778 648.658 522.769 644.866 527.007C642.966 529.199 641.681 531.68 641.093 534.288C640.505 536.896 640.628 539.571 641.455 542.139C643.302 548.579 647.998 554.116 652.83 559.406C658.195 565.279 663.887 571.313 665.461 578.6C665.652 579.483 667.392 579.2 667.202 578.318C664.462 565.64 650.265 557.299 644.632 545.594C642.004 540.133 641.464 534.018 645.442 528.862C648.921 524.353 654.622 521.264 659.643 517.896C664.945 514.522 669.11 510.184 671.774 505.262C674.297 500.009 675.659 494.458 675.802 488.848C676.381 476.222 674.417 463.603 669.985 451.454C665.024 437.566 657.063 424.444 646.446 412.656C645.788 411.927 644.472 412.862 645.125 413.587Z" fill="white"/>
<path id="Vector_9" d="M674.868 478.18C680.477 477.636 685.656 475.55 689.48 472.295C693.304 469.039 695.524 464.826 695.744 460.409C695.785 459.515 694.011 459.423 693.97 460.318C693.775 464.433 691.706 468.357 688.137 471.382C684.568 474.408 679.734 476.336 674.508 476.819C673.372 476.925 673.739 478.286 674.868 478.18Z" fill="white"/>
<path id="Vector_10" d="M661.893 514.971C652.717 509.479 646.524 501.484 644.548 492.58C644.354 491.697 642.613 491.98 642.808 492.861C644.886 502.125 651.352 510.435 660.917 516.133C661.83 516.675 662.801 515.51 661.893 514.971Z" fill="white"/>
<path id="Vector_11" d="M663.193 438.727C661.079 439.291 658.819 439.436 656.616 439.148C654.412 438.86 652.335 438.149 650.57 437.078C649.667 436.526 648.697 437.692 649.594 438.24C651.551 439.416 653.846 440.199 656.28 440.522C658.713 440.844 661.211 440.695 663.554 440.088C663.78 440.046 663.978 439.937 664.106 439.784C664.235 439.632 664.284 439.446 664.244 439.267C664.195 439.086 664.057 438.929 663.86 438.828C663.664 438.727 663.424 438.69 663.193 438.727Z" fill="white"/>
<path id="Vector_12" d="M18.9224 382.31C-2.35501 355.511 -7.84046 319.326 13.6654 292.639C27.8418 325.103 56.2411 352.599 93.8386 370.261C108.37 377.031 125.433 383.378 131.189 395.819C134.771 403.559 133.022 412.319 128.712 419.828C124.401 427.339 117.723 433.839 111.118 440.249L110.595 442.263C74.72 427.852 40.1998 409.109 18.9224 382.31Z" fill="#E6E6E6"/>
<path id="Vector_13" d="M14.4355 292.913C12.7956 318.994 21.7025 344.815 39.8912 366.71C43.6999 371.477 48.4455 375.746 53.9533 379.358C59.464 382.741 66.0322 384.907 72.9755 385.633C79.432 386.411 86.1515 386.622 92.2538 388.615C95.358 389.671 98.1418 391.229 100.423 393.185C102.703 395.142 104.43 397.454 105.488 399.969C108.334 406.183 108.156 412.825 107.693 419.317C107.179 426.524 106.5 434.004 110.155 440.819C110.598 441.645 108.934 442.134 108.492 441.31C102.132 429.453 108.418 416.463 105.168 404.218C103.652 398.504 99.9244 393.113 93.0361 390.423C87.0126 388.071 80.0835 387.848 73.5374 387.104C66.7508 386.474 60.2647 384.554 54.6456 381.511C48.9205 378.13 43.9725 374.011 40.0138 369.332C30.8865 358.908 23.9111 347.427 19.3432 335.308C14.0318 321.5 11.7793 307.083 12.683 292.68C12.7394 291.789 14.4916 292.028 14.4355 292.913Z" fill="white"/>
<path id="Vector_14" d="M33.5041 359.929C28.3937 361.818 22.5915 362.224 17.1338 361.075C11.6761 359.926 6.91822 357.297 3.70986 353.657C3.06392 352.919 4.50006 352.099 5.14686 352.838C8.12648 356.231 12.5588 358.68 17.6438 359.742C22.7288 360.804 28.1316 360.409 32.8769 358.628C33.9087 358.242 34.53 359.545 33.5041 359.929Z" fill="white"/>
<path id="Vector_15" d="M69.6353 385.576C73.6298 377.095 73.3914 367.749 68.9676 359.4C68.5284 358.573 70.1921 358.083 70.6307 358.909C75.2135 367.604 75.4364 377.331 71.2548 386.149C70.8555 386.989 69.2382 386.411 69.6353 385.576Z" fill="white"/>
<path id="Vector_16" d="M16.3727 321.714C18.5447 321.306 20.553 320.482 22.2172 319.316C23.8815 318.151 25.1496 316.68 25.9077 315.036C26.2932 314.193 27.9102 314.771 27.5272 315.609C26.6788 317.422 25.2758 319.045 23.4407 320.336C21.6055 321.627 19.3942 322.547 16.9998 323.015C16.7789 323.074 16.5375 323.065 16.3248 322.99C16.1121 322.914 15.944 322.779 15.8547 322.61C15.7728 322.437 15.7812 322.246 15.8782 322.079C15.9752 321.911 16.1529 321.78 16.3727 321.714Z" fill="white"/>
<path id="Vector_17" d="M149.084 278.947C148.862 279.48 148.641 280.012 148.428 280.554C145.497 287.721 143.315 295.063 141.904 302.507C141.783 303.081 141.672 303.664 141.572 304.24C138.417 322.202 139.552 340.467 144.92 358.105C147.064 365.122 149.888 372.002 153.366 378.684C158.171 387.912 164.319 397.618 164.929 407.265C165.007 408.271 165.005 409.279 164.923 410.285L113.777 442.605C113.613 442.633 113.459 442.67 113.295 442.699L111.328 444.062C111.118 443.727 110.909 443.376 110.699 443.042C110.576 442.848 110.465 442.647 110.342 442.453C110.263 442.321 110.185 442.19 110.105 442.074C110.079 442.031 110.053 441.987 110.036 441.952C109.956 441.837 109.897 441.723 109.826 441.617C108.652 439.659 107.494 437.691 106.351 435.713C106.341 435.704 106.341 435.704 106.343 435.687C97.6842 420.598 90.5594 404.811 86.7244 388.68C86.6093 388.194 86.4841 387.7 86.3923 387.2C84.7152 379.921 83.8015 372.548 83.6601 365.152C83.5994 361.103 83.8008 357.054 84.2636 353.02C85.4848 342.599 88.7938 332.394 94.0692 322.778C104.589 303.61 122.829 287.287 147.214 279.526C147.837 279.328 148.451 279.136 149.084 278.947Z" fill="#E6E6E6"/>
<path id="Vector_18" d="M149.493 279.528C128.111 299.579 115.348 324.391 113.019 350.439C112.39 356.039 112.894 361.682 114.512 367.16C116.308 372.456 119.885 377.28 124.87 381.129C129.426 384.791 134.629 388.124 137.968 392.589C139.633 394.895 140.657 397.449 140.972 400.086C141.287 402.722 140.886 405.381 139.795 407.888C137.285 414.189 132.03 419.409 126.664 424.374C120.707 429.887 114.407 435.539 112.081 442.702C111.799 443.57 110.094 443.177 110.375 442.311C114.423 429.849 129.44 422.437 136.27 411.13C139.456 405.853 140.63 399.794 137.201 394.401C134.202 389.686 128.841 386.245 124.186 382.568C119.253 378.869 115.552 374.281 113.408 369.205C111.439 363.809 110.658 358.191 111.098 352.59C111.834 339.969 115.101 327.516 120.781 315.689C127.168 302.163 136.467 289.59 148.273 278.516C149.004 277.831 150.22 278.847 149.493 279.528Z" fill="white"/>
<path id="Vector_19" d="M113.138 342.017C107.604 341.118 102.659 338.709 99.1856 335.221C95.7123 331.734 93.9369 327.394 94.1767 322.976C94.1886 322.796 94.2894 322.627 94.4578 322.504C94.6263 322.381 94.8492 322.314 95.0797 322.317C95.3101 322.32 95.5301 322.392 95.6933 322.52C95.8565 322.647 95.95 322.819 95.9543 322.999C95.7214 327.112 97.3756 331.155 100.618 334.398C103.861 337.64 108.479 339.869 113.638 340.683C114.759 340.86 114.252 342.193 113.138 342.017Z" fill="white"/>
<path id="Vector_20" d="M122.247 379.51C131.964 374.62 138.967 367.045 141.861 358.296C142.147 357.429 143.852 357.821 143.567 358.687C140.533 367.788 133.225 375.659 123.099 380.73C122.134 381.213 121.287 379.99 122.247 379.51Z" fill="white"/>
<path id="Vector_21" d="M128.873 303.436C130.921 304.133 133.159 304.421 135.385 304.274C137.611 304.127 139.755 303.55 141.626 302.595C142.583 302.102 143.429 303.326 142.478 303.815C140.405 304.863 138.036 305.498 135.577 305.664C133.118 305.831 130.644 305.524 128.372 304.77C128.15 304.713 127.965 304.592 127.853 304.432C127.741 304.271 127.711 304.084 127.77 303.907C127.837 303.731 127.991 303.582 128.197 303.494C128.404 303.406 128.647 303.385 128.873 303.436Z" fill="white"/>
<path id="Vector_22" d="M413.899 108.758C445 108.758 470.212 89.036 470.212 64.7077C470.212 40.3795 445 20.6575 413.899 20.6575C382.798 20.6575 357.586 40.3795 357.586 64.7077C357.586 89.036 382.798 108.758 413.899 108.758Z" fill="#FF6584"/>
<path id="Vector_23" d="M586.318 62.409C581.244 58.2159 575.887 54.2381 570.269 50.4927C559.299 43.2155 547.154 37.0276 533.616 33.1296C528.519 31.6572 523.252 30.5727 517.89 29.8911C517.245 29.8096 516.611 29.7281 515.966 29.6614C515.919 29.6577 515.871 29.6577 515.824 29.6614C515.725 29.6395 515.624 29.6246 515.521 29.6169C514.204 29.4835 512.887 29.3798 511.561 29.3057C504.418 28.9343 497.245 29.4394 490.302 30.8027C486.274 31.5977 482.343 32.669 478.555 34.004C474.76 35.4573 471.081 37.0881 467.537 38.8876C465.634 39.7919 463.673 40.6205 461.663 41.3702C455.795 43.5453 449.582 45.1003 443.19 45.9945C438.873 46.6003 434.501 46.9373 430.116 47.0023C426.308 47.0616 422.717 47.1653 419.108 48.2399C415.255 49.3721 411.795 51.1935 409.004 53.5586C406.212 55.9236 404.167 58.7667 403.031 61.8606C402.941 62.1354 402.966 62.4253 403.103 62.688C403.239 62.9507 403.479 63.1724 403.789 63.3205C404.764 63.8689 405.712 64.4914 406.744 64.9805C407.656 65.3058 408.628 65.5135 409.624 65.5956C411.254 65.8624 412.886 66.1218 414.522 66.3737C420.538 67.3074 426.579 68.1349 432.645 68.8563C444.847 70.3013 457.119 71.3191 469.46 71.9094C469.535 71.9181 469.611 71.923 469.687 71.9243C483.63 72.5825 497.605 72.6889 511.561 72.2429C513.674 72.1762 515.777 72.0947 517.889 71.9984C526.69 71.613 535.469 71.0053 544.226 70.1753C552.326 69.4046 560.395 68.4487 568.432 67.3074C574.173 66.4923 579.891 65.5832 585.588 64.5803C585.865 64.5163 586.116 64.3975 586.317 64.2355C586.518 64.0735 586.662 63.8737 586.735 63.6554C586.808 63.4371 586.809 63.2077 586.735 62.9894C586.662 62.7711 586.518 62.5712 586.318 62.409Z" fill="#E6E6E6"/>
<path id="Vector_24" d="M469.271 121.146C461.118 114.324 452.136 108.139 442.451 102.678C439.239 100.915 435.933 99.2547 432.532 97.7355C428.362 95.8527 424.032 94.1962 419.572 92.7778C418.577 92.4591 417.573 92.1553 416.569 91.8663C410.864 90.2134 404.946 89.0505 398.919 88.3981C398.872 88.3907 398.824 88.3981 398.777 88.3907C398.682 88.3759 398.578 88.3611 398.483 88.3462C395.562 88.0499 392.619 87.9088 389.673 87.9238C387.56 87.9238 385.438 88.0128 383.335 88.1758C379.937 88.4377 376.568 88.8934 373.255 89.5393C371.616 89.858 369.987 90.2285 368.386 90.6509C366.05 91.2521 363.758 91.9497 361.517 92.7407C361.479 92.7556 361.451 92.763 361.413 92.7778C357.652 94.2171 354.007 95.8357 350.499 97.6244C350.423 97.6614 350.338 97.6985 350.262 97.7355C346.278 99.5999 342.063 101.144 337.681 102.345C333.92 103.374 330.062 104.172 326.142 104.731C321.826 105.339 317.454 105.673 313.069 105.732C309.26 105.791 305.67 105.895 302.07 106.977C298.217 108.109 294.755 109.93 291.962 112.295C289.169 114.66 287.121 117.503 285.984 120.597C285.896 120.872 285.922 121.162 286.058 121.424C286.194 121.686 286.434 121.908 286.741 122.057C287.717 122.606 288.674 123.221 289.697 123.71C290.607 124.038 291.58 124.245 292.577 124.325C294.207 124.592 295.836 124.858 297.475 125.11C303.491 126.044 309.535 126.869 315.608 127.586C323.935 128.571 332.297 129.359 340.694 129.95C344.673 130.239 348.655 130.476 352.64 130.661C362.862 131.143 373.094 131.33 383.335 131.224C385.448 131.202 387.56 131.165 389.673 131.113C402.216 130.824 414.721 130.088 427.189 128.905C441.085 127.589 454.887 125.722 468.541 123.31C468.817 123.246 469.068 123.128 469.269 122.967C469.469 122.806 469.613 122.606 469.687 122.389C469.76 122.171 469.76 121.942 469.688 121.724C469.615 121.507 469.471 121.307 469.271 121.146Z" fill="#E6E6E6"/>
<path id="Vector_25" d="M328.905 2.92458L378.516 539.202L279.294 546.091V9.74755C291.118 2.52332 308.09 1.39307 328.905 2.92458Z" fill="#CCCCCC"/>
<path id="Vector_26" d="M573.792 2.92458L524.181 539.202L623.403 546.091V9.74755C611.579 2.52332 594.608 1.39307 573.792 2.92458Z" fill="#CCCCCC"/>
<path id="Vector_27" d="M625.737 9.98158C622.658 4.07659 616.112 -3.05176e-05 608.542 -3.05176e-05H293.098C282.572 -3.05176e-05 274.018 7.89952 274.018 17.6187V550.635C273.926 555.566 276.283 560.332 280.592 563.932C282.847 565.784 285.702 567.124 288.853 567.807C290.236 568.106 291.663 568.256 293.098 568.253H608.542C609.976 568.256 611.404 568.106 612.787 567.807C621.275 566.023 627.622 559.007 627.622 550.635V17.6187C627.631 15.0016 626.991 12.408 625.737 9.98158ZM621.294 550.635C621.294 557.126 615.572 562.409 608.542 562.409H293.098C287.271 562.409 282.335 558.779 280.829 553.836C280.507 552.788 280.345 551.713 280.346 550.635V17.6187C280.346 11.1276 286.068 5.85251 293.098 5.85251H608.542C609.836 5.85171 611.12 6.03244 612.332 6.38613C617.514 7.87333 621.294 12.3436 621.294 17.6187V550.635Z" fill="#CCCCCC"/>
<path id="Vector_28" d="M624.458 162.018H277.183V166.972H624.458V162.018Z" fill="#CCCCCC"/>
<path id="Vector_29" d="M624.458 59.7515H277.183V64.7056H624.458V59.7515Z" fill="#CCCCCC"/>
<path id="Vector_30" d="M624.458 244.587H277.183V249.541H624.458V244.587Z" fill="#CCCCCC"/>
<path id="Vector_31" d="M389.877 2.22318H383.544V314.77H389.877V2.22318Z" fill="#CCCCCC"/>
<path id="Vector_32" d="M518.097 2.22318H511.764V314.77H518.097V2.22318Z" fill="#CCCCCC"/>
<path id="Vector_33" d="M664.039 537.292H248.154C240.599 537.299 233.356 539.649 228.014 543.828C222.672 548.007 219.667 553.673 219.658 559.583C219.654 562.425 220.352 565.241 221.713 567.875C223.829 572.008 227.478 575.551 232.191 578.047C236.903 580.544 242.463 581.879 248.154 581.881H664.039C669.014 581.88 673.902 580.86 678.216 578.923C682.531 576.986 686.122 574.199 688.633 570.84C689.348 569.89 689.969 568.899 690.49 567.875C691.851 565.241 692.549 562.425 692.545 559.583C692.534 553.672 689.527 548.006 684.183 543.828C678.839 539.649 671.595 537.298 664.039 537.292Z" fill="#CCCCCC"/>
<path id="Vector_34" d="M624.458 303.21H279.294V319.724H624.458V303.21Z" fill="#CCCCCC"/>
<path id="Vector_35" d="M448.71 298.256H455.043C458.122 298.256 461.076 299.213 463.253 300.917C465.431 302.62 466.654 304.93 466.654 307.339H437.099C437.099 306.146 437.399 304.965 437.982 303.863C438.566 302.761 439.421 301.76 440.499 300.917C441.578 300.073 442.858 299.404 444.266 298.948C445.675 298.491 447.185 298.256 448.71 298.256Z" fill="#CCCCCC"/>
<path id="ab6171fa-7d69-4734-b81c-8dff60f9761b" d="M457.965 349.783C494.092 349.783 523.379 326.874 523.379 298.614C523.379 270.355 494.092 247.446 457.965 247.446C421.838 247.446 392.552 270.355 392.552 298.614C392.552 326.874 421.838 349.783 457.965 349.783Z" fill="#FFB8B8"/>
<path id="bf427902-b9bf-4946-b5d7-5c1c7e04535e" d="M384.995 249.39C385.489 243.514 390.457 237.501 406.24 234.359C406.24 234.359 433.326 207.265 470.134 221.473C470.134 221.473 487.978 219.072 501.21 233.554C501.21 233.554 514.328 227.502 519.863 238.229C519.863 238.229 535.249 260.111 529.585 282.431C523.92 304.75 521.021 307.535 521.021 307.535C521.021 307.535 528.241 261.368 486.655 264.569C445.069 267.771 411.588 256.331 402.171 281.378C394.351 302.176 395.336 312.977 395.336 312.977C395.336 312.977 369.185 292.23 378.077 275.892C382.624 267.536 384.232 258.451 384.995 249.39Z" fill="#2F2E41"/>
<path id="Vector_36" d="M280.08 578.25H641.901C639.482 556.661 637.902 474.134 637.902 468.702C637.902 444.746 612.842 418.602 612.842 418.602L603.872 414.724L528.963 396.442L509.577 376.744C507.547 374.676 504.931 373.004 501.935 371.859C498.94 370.715 495.645 370.13 492.312 370.15L431.074 370.509C425.685 370.542 420.506 372.147 416.551 375.011L378.631 402.529L323.013 423.305L322.918 423.231L322.337 423.569L314.083 428.218L308.774 431.22C308.774 431.22 294.846 444.292 283.714 483.497C282.039 489.393 280.864 565.728 280.08 578.25Z" fill="#6C63FF"/>
<path id="Vector_37" d="M725.646 567.875C724.775 568.498 723.894 569.113 723.013 569.728C719.678 572.047 716.296 574.328 712.866 576.568C707.684 579.947 702.395 583.225 696.998 586.402H209.919C200 580.577 190.447 574.402 181.261 567.875H725.646Z" fill="#CCCCCC"/>
<path id="Vector_38" d="M547.106 572.322H368.053L371.842 558.242H543.316L547.106 572.322Z" fill="#2F2E41"/>
<path id="Vector_39" d="M709.096 511.554H662.504C661.453 511.552 660.413 511.73 659.459 512.076C658.505 512.421 657.659 512.926 656.981 513.555C656.332 513.457 655.672 513.408 655.011 513.407C653.559 513.406 652.12 513.629 650.778 514.063C649.436 514.497 648.217 515.133 647.19 515.936C646.162 516.739 645.347 517.692 644.791 518.742C644.235 519.791 643.949 520.916 643.949 522.052C643.949 523.188 644.235 524.312 644.791 525.362C645.347 526.411 646.162 527.364 647.19 528.167C648.217 528.97 649.436 529.607 650.778 530.041C652.12 530.474 653.559 530.697 655.011 530.696C656.679 530.696 658.326 530.397 659.823 529.822L660.6 537.292L663.689 566.816C663.835 567.184 664.032 567.54 664.276 567.875C664.9 568.772 665.822 569.52 666.944 570.042C668.066 570.564 669.347 570.839 670.652 570.84H700.949C702.255 570.838 703.537 570.563 704.66 570.041C705.783 569.52 706.707 568.772 707.334 567.875C707.571 567.538 707.764 567.183 707.912 566.816L716.059 518.928C716.394 518.076 716.469 517.174 716.277 516.295C716.086 515.416 715.633 514.584 714.956 513.867C714.278 513.15 713.395 512.567 712.378 512.165C711.36 511.764 710.236 511.554 709.096 511.554ZM655.011 528.228C652.918 528.227 650.912 527.575 649.433 526.417C647.954 525.259 647.124 523.689 647.124 522.052C647.124 520.415 647.954 518.845 649.433 517.687C650.912 516.528 652.918 515.877 655.011 515.875C655.153 515.875 655.285 515.905 655.428 515.912C655.116 516.907 655.155 517.949 655.541 518.928L658.876 527.406C657.702 527.94 656.369 528.223 655.011 528.228Z" fill="#3F3D56"/>
<path id="Vector_40" d="M603.862 354.871H308.928C306.394 354.875 303.965 355.663 302.173 357.065C300.382 358.467 299.373 360.367 299.369 362.349V518.031C299.372 520.014 300.379 521.915 302.172 523.317C303.964 524.718 306.394 525.507 308.928 525.509H603.862C606.397 525.507 608.827 524.718 610.619 523.317C612.411 521.915 613.419 520.014 613.421 518.031V362.349C613.417 360.367 612.409 358.467 610.617 357.065C608.825 355.663 606.396 354.875 603.862 354.871Z" fill="#3F3D56"/>
<path id="Vector_41" d="M489.61 479.615H420.613C419.637 479.616 418.702 479.92 418.012 480.461C417.323 481.001 416.936 481.734 416.937 482.497V567.757H493.295V482.497C493.295 482.119 493.2 481.744 493.015 481.394C492.83 481.044 492.559 480.726 492.216 480.459C491.874 480.191 491.468 479.979 491.021 479.834C490.573 479.689 490.094 479.614 489.61 479.615ZM455.344 528.058C453.186 528.05 451.119 527.376 449.594 526.183C448.068 524.989 447.206 523.373 447.196 521.685V511.851C447.199 510.162 448.058 508.543 449.586 507.349C451.114 506.156 453.184 505.485 455.344 505.485C457.503 505.485 459.574 506.156 461.101 507.349C462.629 508.543 463.489 510.162 463.491 511.851V521.685C463.481 523.373 462.619 524.989 461.094 526.183C459.568 527.376 457.501 528.05 455.344 528.058Z" fill="#2F2E41"/>
<path id="Vector_42" d="M416.701 565.03V573.255C416.702 573.682 416.919 574.09 417.304 574.392C417.689 574.693 418.211 574.863 418.756 574.864H491.476C492.021 574.861 492.542 574.691 492.927 574.39C493.312 574.089 493.529 573.681 493.532 573.255V565.03H416.701Z" fill="#3F3D56"/>
<path id="Vector_43" d="M597.591 516.404C600.162 516.404 602.247 514.773 602.247 512.762C602.247 510.75 600.162 509.12 597.591 509.12C595.019 509.12 592.935 510.75 592.935 512.762C592.935 514.773 595.019 516.404 597.591 516.404Z" fill="#2F2E41"/>
<path id="Vector_44" d="M346.16 507.479C345.946 507.479 345.734 507.512 345.536 507.576C345.338 507.64 345.159 507.734 345.007 507.852C344.856 507.97 344.736 508.111 344.654 508.266C344.572 508.42 344.53 508.586 344.53 508.753V515.312C344.531 515.649 344.703 515.973 345.009 516.211C345.314 516.449 345.728 516.583 346.16 516.583C346.591 516.583 347.005 516.449 347.31 516.211C347.616 515.973 347.788 515.649 347.789 515.312V508.753C347.789 508.586 347.747 508.42 347.665 508.266C347.583 508.111 347.463 507.97 347.312 507.852C347.161 507.734 346.981 507.64 346.783 507.576C346.585 507.512 346.374 507.479 346.16 507.479Z" fill="#2F2E41"/>
<path id="Vector_45" d="M355.008 507.479C354.794 507.479 354.582 507.512 354.384 507.576C354.187 507.64 354.007 507.734 353.856 507.852C353.704 507.97 353.584 508.111 353.503 508.266C353.421 508.42 353.379 508.586 353.379 508.753V515.312C353.379 515.65 353.55 515.974 353.856 516.213C354.161 516.452 354.576 516.586 355.008 516.586C355.44 516.586 355.855 516.452 356.16 516.213C356.466 515.974 356.638 515.65 356.638 515.312V508.753C356.638 508.586 356.595 508.42 356.513 508.266C356.432 508.111 356.312 507.97 356.16 507.852C356.009 507.734 355.829 507.64 355.632 507.576C355.434 507.512 355.222 507.479 355.008 507.479Z" fill="#2F2E41"/>
<path id="Vector_46" d="M363.856 507.479C363.642 507.479 363.431 507.512 363.233 507.576C363.035 507.64 362.855 507.734 362.704 507.852C362.553 507.97 362.433 508.111 362.351 508.266C362.269 508.42 362.227 508.586 362.227 508.753V515.312C362.228 515.649 362.4 515.973 362.706 516.211C363.011 516.449 363.425 516.583 363.856 516.583C364.288 516.583 364.702 516.449 365.007 516.211C365.313 515.973 365.485 515.649 365.486 515.312V508.753C365.486 508.586 365.444 508.42 365.362 508.266C365.28 508.111 365.16 507.97 365.009 507.852C364.857 507.734 364.678 507.64 364.48 507.576C364.282 507.512 364.07 507.479 363.856 507.479Z" fill="#2F2E41"/>
<path id="Vector_47" d="M372.705 507.479C372.491 507.479 372.279 507.512 372.081 507.576C371.884 507.64 371.704 507.734 371.553 507.852C371.401 507.97 371.281 508.111 371.199 508.266C371.118 508.42 371.075 508.586 371.075 508.753V515.312C371.076 515.649 371.249 515.973 371.554 516.211C371.86 516.449 372.273 516.583 372.705 516.583C373.136 516.583 373.55 516.449 373.856 516.211C374.161 515.973 374.333 515.649 374.334 515.312V508.753C374.334 508.586 374.292 508.42 374.21 508.266C374.128 508.111 374.008 507.97 373.857 507.852C373.706 507.734 373.526 507.64 373.328 507.576C373.131 507.512 372.919 507.479 372.705 507.479Z" fill="#2F2E41"/>
<path id="Vector_48" d="M379.765 568.616C393.368 568.616 404.396 559.99 404.396 549.349C404.396 538.708 393.368 530.081 379.765 530.081C366.161 530.081 355.133 538.708 355.133 549.349C355.133 559.99 366.161 568.616 379.765 568.616Z" fill="#FFB8B8"/>
<path id="Vector_49" d="M551.842 572.322C565.446 572.322 576.474 563.695 576.474 553.054C576.474 542.413 565.446 533.786 551.842 533.786C538.239 533.786 527.211 542.413 527.211 553.054C527.211 563.695 538.239 572.322 551.842 572.322Z" fill="#FFB8B8"/>
<path id="Vector_50" d="M806.084 320.488C803.65 317.339 800.766 313.976 796.249 312.948C791.018 311.757 785.645 314.123 781.087 316.457C767.456 323.438 754.329 331.004 741.767 339.119L741.78 339.241C751.561 338.714 759.678 359.056 769.458 358.529C776.525 358.148 785.497 336.843 791.742 334.229C794.112 333.236 796.421 331.911 799.107 331.818C802.443 331.704 805.352 333.526 807.638 335.43C821.16 346.694 825.073 363.919 840.244 373.815C830.678 355.361 819.255 337.529 806.084 320.488Z" fill="#3F3D56"/>
<path id="Vector_51" d="M832.112 347.846C839.245 357.925 846.812 367.803 854.811 377.481V377.489C854.763 377.829 854.697 378.17 854.631 378.511C853.664 377.355 852.707 376.194 851.76 375.028C844.579 366.217 837.755 357.238 831.287 348.091C828.218 343.741 825.224 339.356 822.306 334.937C820.052 331.513 817.844 328.07 815.684 324.606C815.068 323.613 814.472 322.62 813.875 321.62C812.473 319.278 811.09 316.922 809.612 314.609C807.925 311.971 805.87 309.214 802.772 307.443C801.363 306.603 799.677 306.094 797.912 305.976C795.425 305.988 792.99 306.534 790.873 307.554C774.847 314.144 759.888 322.212 746.318 331.587C732.731 340.925 720.586 351.473 710.129 363.016C709.806 363.371 709.049 363.03 709.371 362.667C710.65 361.259 711.938 359.874 713.264 358.495C729.703 341.396 749.857 326.692 772.806 315.054C776.662 313.098 780.594 311.233 784.601 309.459C786.619 308.562 788.646 307.68 790.712 306.85C792.688 305.944 794.906 305.406 797.192 305.279C805.055 305.183 809.128 312.149 811.923 316.833C812.795 318.307 813.682 319.78 814.585 321.249C817.986 326.807 821.52 332.321 825.186 337.79C827.441 341.162 829.749 344.514 832.112 347.846Z" fill="#3F3D56"/>
<path id="Vector_52" d="M745.545 328.147C745.088 327.748 744.634 327.35 744.174 326.952C740.549 323.816 736.659 320.716 731.681 318.918C729.308 318.034 726.717 317.564 724.088 317.541C721.375 317.599 718.7 318.056 716.203 318.886C715.016 319.257 713.855 319.678 712.712 320.126C711.405 320.641 710.122 321.189 708.845 321.742C706.448 322.78 704.081 323.863 701.746 324.992C697.1 327.239 692.599 329.656 688.243 332.245C685.986 333.588 683.774 334.975 681.61 336.406C679.596 337.735 677.624 339.1 675.692 340.5C675.279 340.798 674.662 340.316 675.075 340.018C675.584 339.647 676.099 339.278 676.614 338.914C678.069 337.885 679.547 336.876 681.048 335.887C683.786 334.08 686.595 332.343 689.474 330.675C693.952 328.081 698.584 325.662 703.37 323.42C705.761 322.3 708.186 321.227 710.643 320.202C711.385 319.892 712.136 319.589 712.895 319.303C714.618 318.623 716.408 318.053 718.248 317.598C720.855 316.938 723.613 316.726 726.334 316.977C728.961 317.276 731.492 317.961 733.794 318.995C738.681 321.132 742.472 324.437 746.162 327.662C746.534 327.99 745.92 328.474 745.545 328.147Z" fill="#3F3D56"/>
<path id="Vector_53" d="M709.777 343.236C708.535 343.284 707.307 343.009 706.285 342.453C703.58 340.85 703.651 337 706.502 330.682C707.278 328.971 708.494 327.402 710.076 326.072C711.657 324.742 713.57 323.68 715.697 322.952C717.689 322.255 719.845 321.89 722.028 321.88C724.21 321.869 726.372 322.214 728.375 322.893C728.724 323.011 729.069 323.139 729.409 323.275C731.727 324.291 733.9 325.497 735.892 326.873C737.584 328.022 739.389 329.065 741.291 329.993L741.925 330.284L741.324 330.615C725.977 339.066 715.573 343.236 709.777 343.236Z" fill="#3F3D56"/>
<path id="Vector_54" d="M768.79 292.941C763.743 292.94 758.854 291.57 754.955 289.063C751.056 286.557 748.391 283.07 747.412 279.197C743.193 279.866 739.321 281.497 736.286 283.885C733.25 286.273 731.187 289.31 730.356 292.615C729.525 295.919 729.965 299.342 731.618 302.451C733.272 305.56 736.066 308.216 739.648 310.084C743.23 311.953 747.439 312.949 751.744 312.948C756.049 312.947 760.257 311.948 763.837 310.078C767.417 308.208 770.209 305.551 771.86 302.441C773.511 299.33 773.948 295.908 773.114 292.604C771.691 292.828 770.242 292.941 768.79 292.941Z" fill="#3F3D56"/>
<path id="Vector_55" opacity="0.74" d="M185.517 320.36C203.475 320.36 218.033 308.972 218.033 294.925C218.033 280.877 203.475 269.49 185.517 269.49C167.559 269.49 153.001 280.877 153.001 294.925C153.001 308.972 167.559 320.36 185.517 320.36Z" fill="#3F3D56"/>
<path id="Vector_56" opacity="0.74" d="M218.033 320.36C235.991 320.36 250.549 308.972 250.549 294.925C250.549 280.877 235.991 269.49 218.033 269.49C200.075 269.49 185.517 280.877 185.517 294.925C185.517 308.972 200.075 320.36 218.033 320.36Z" fill="#6C63FF"/>
<path id="Vector_57" opacity="0.74" d="M202.05 300.088C220.008 300.088 234.566 288.701 234.566 274.653C234.566 260.606 220.008 249.218 202.05 249.218C184.092 249.218 169.534 260.606 169.534 274.653C169.534 288.701 184.092 300.088 202.05 300.088Z" fill="#FF6584"/>
<path id="Vector_58" d="M287.076 267.365L203.555 287.89L204.123 289.304L287.644 268.779L287.076 267.365Z" fill="#3F3D56"/>
<path id="Vector_59" d="M287.607 270.799C289.7 270.799 291.397 269.472 291.397 267.834C291.397 266.197 289.7 264.87 287.607 264.87C285.515 264.87 283.818 266.197 283.818 267.834C283.818 269.472 285.515 270.799 287.607 270.799Z" fill="#3F3D56"/>
<path id="Vector_60" d="M829.819 401.217C835.371 404.278 840.704 407.398 846.805 409.755C846.692 410.118 846.568 410.488 846.455 410.851C845.706 410.577 844.977 410.288 844.247 409.992C838.061 407.457 832.737 404.011 826.93 401.017C824.05 399.461 820.906 398.229 817.589 397.357C814.13 396.544 810.516 396.213 806.912 396.378C791.877 396.956 778.993 403.974 765.019 407.509C758.179 409.243 750.903 410.17 743.77 409.08C736.636 407.991 730.298 405.027 723.998 402.344C717.783 399.691 711.01 397.023 703.753 397.023C697.841 397.03 691.627 398.883 688.462 402.974C688.364 403.096 688.209 403.183 688.029 403.217C687.85 403.252 687.661 403.23 687.502 403.156C687.343 403.083 687.226 402.964 687.178 402.825C687.129 402.686 687.151 402.537 687.24 402.411C687.948 401.478 688.818 400.628 689.827 399.884C693.957 396.823 700.03 395.615 705.61 395.971C712.829 396.43 719.413 399.098 725.656 401.781C732.278 404.626 739.061 407.687 746.716 408.309C754.276 408.932 761.76 407.383 768.771 405.301C782.346 401.262 795.742 394.533 810.843 395.282C817.967 395.637 824.068 398.053 829.819 401.217Z" fill="#3F3D56"/>
<path id="Vector_61" d="M235.592 186.894V188.399C234.956 188.3 234.309 188.251 233.66 188.251H223.75V204.895C223.748 207.359 222.496 209.722 220.269 211.464C218.041 213.207 215.02 214.186 211.87 214.188H197.224V216.752C197.224 217.78 197.485 218.797 197.991 219.746H195.964C195.54 218.783 195.326 217.771 195.329 216.752V214.188H187.277V212.706H195.329V196.061C195.331 193.597 196.583 191.234 198.811 189.492C201.038 187.749 204.059 186.77 207.209 186.768H221.855V184.175H223.75V186.768H233.66C234.307 186.769 234.954 186.811 235.592 186.894Z" fill="#6C63FF"/>
<path id="Vector_62" d="M211.87 174.911H185.42C182.27 174.913 179.249 175.892 177.021 177.635C174.794 179.377 173.542 181.74 173.54 184.204V204.895C173.542 207.359 174.794 209.722 177.021 211.464C179.249 213.207 182.27 214.186 185.42 214.188H211.87C215.02 214.186 218.041 213.207 220.269 211.464C222.496 209.722 223.748 207.359 223.75 204.895V184.175C223.739 181.716 222.482 179.36 220.256 177.624C218.029 175.888 215.014 174.912 211.87 174.911ZM221.856 204.895C221.852 206.966 220.799 208.951 218.927 210.415C217.055 211.879 214.517 212.703 211.87 212.706H185.42C182.773 212.703 180.235 211.879 178.363 210.415C176.491 208.951 175.438 206.966 175.435 204.895V184.204C175.438 182.134 176.491 180.149 178.363 178.684C180.235 177.22 182.773 176.396 185.42 176.394H211.87C214.511 176.396 217.043 177.216 218.914 178.674C220.785 180.131 221.842 182.109 221.856 184.175V204.895Z" fill="#3F3D56"/>
<path id="Vector_63" d="M195.329 212.706V214.188H197.224V212.706H195.329ZM195.329 212.706V214.188H197.224V212.706H195.329ZM235.592 186.894C234.954 186.811 234.307 186.769 233.66 186.768H207.209C204.059 186.77 201.038 187.749 198.811 189.492C196.583 191.234 195.331 193.597 195.329 196.061V216.752C195.326 217.771 195.54 218.783 195.964 219.746C196.764 221.582 198.278 223.177 200.294 224.307C202.311 225.436 204.729 226.044 207.209 226.045H233.66C236.81 226.043 239.831 225.064 242.058 223.321C244.286 221.579 245.538 219.216 245.54 216.752V196.061C245.539 193.859 244.538 191.729 242.717 190.05C240.895 188.371 238.37 187.253 235.592 186.894ZM243.645 216.752C243.641 218.823 242.588 220.808 240.716 222.272C238.845 223.736 236.307 224.56 233.66 224.563H207.209C204.562 224.56 202.024 223.736 200.153 222.272C198.281 220.808 197.228 218.823 197.224 216.752V196.061C197.228 193.991 198.281 192.006 200.152 190.541C202.024 189.077 204.562 188.253 207.209 188.251H233.66C236.308 188.251 238.847 189.075 240.719 190.539C242.592 192.004 243.644 193.99 243.645 196.061V216.752ZM195.329 212.706V214.188H197.224V212.706H195.329Z" fill="#3F3D56"/>
<path id="Vector_64" d="M176.619 405.894H64.261C63.4789 405.894 62.7288 406.137 62.1748 406.569C61.6209 407.001 61.3082 407.586 61.3052 408.198V413.408C65.0121 424.514 69.5 435.451 74.7484 446.17H176.619C177.006 446.171 177.389 446.111 177.747 445.996C178.104 445.88 178.429 445.71 178.703 445.496C178.977 445.282 179.194 445.028 179.342 444.748C179.489 444.468 179.565 444.168 179.565 443.866V408.198C179.564 407.587 179.254 407.001 178.701 406.569C178.149 406.137 177.4 405.894 176.619 405.894Z" fill="#6C63FF"/>
<path id="Vector_65" d="M165.914 457.738H80.7452C81.7589 459.599 82.7915 461.444 83.8621 463.282H165.914C170.537 463.333 170.489 457.687 165.914 457.738Z" fill="#E4E4E4"/>
<path id="Vector_66" d="M165.913 470.44H88.1347C89.2715 472.3 90.4399 474.148 91.6399 475.983H165.913C170.537 476.035 170.489 470.396 165.913 470.44Z" fill="#E4E4E4"/>
<path id="Vector_67" d="M165.913 483.149H96.4241C97.6936 485.01 99.0009 486.855 100.327 488.693H165.913C170.537 488.745 170.489 483.098 165.913 483.149Z" fill="#E4E4E4"/>
<path id="Vector_68" d="M748.404 141.545H747.864C749.544 141.546 751.201 141.853 752.704 142.44H750.248C747.6 142.443 745.062 143.266 743.191 144.731C741.319 146.195 740.266 148.18 740.263 150.251V170.942C740.266 173.013 741.319 174.998 743.191 176.462C745.062 177.927 747.6 178.75 750.248 178.753H751.814C750.555 179.139 749.216 179.338 747.864 179.339H748.404C751.302 179.337 754.081 178.435 756.13 176.832C758.18 175.228 759.333 173.055 759.336 170.788V150.096C759.333 147.829 758.18 145.656 756.13 144.052C754.081 142.449 751.302 141.548 748.404 141.545Z" fill="#3F3D56"/>
<path id="Vector_69" opacity="0.21" d="M748.404 141.545H747.864C749.544 141.546 751.201 141.853 752.704 142.44H750.248C747.6 142.443 745.062 143.266 743.191 144.731C741.319 146.195 740.266 148.18 740.263 150.251V170.942C740.266 173.013 741.319 174.998 743.191 176.462C745.062 177.927 747.6 178.75 750.248 178.753H751.814C750.555 179.139 749.216 179.338 747.864 179.339H748.404C751.302 179.337 754.081 178.435 756.13 176.832C758.18 175.228 759.333 173.055 759.336 170.788V150.096C759.333 147.829 758.18 145.656 756.13 144.052C754.081 142.449 751.302 141.548 748.404 141.545Z" fill="black"/>
<path id="Vector_70" d="M678.299 141.545H677.759C679.439 141.546 681.096 141.853 682.599 142.44H680.142C677.495 142.443 674.957 143.266 673.085 144.731C671.214 146.195 670.161 148.18 670.158 150.251V170.942C670.161 173.013 671.214 174.998 673.085 176.462C674.957 177.927 677.495 178.75 680.142 178.753H681.709C680.45 179.139 679.111 179.338 677.759 179.339H678.299C681.197 179.337 683.976 178.435 686.025 176.832C688.075 175.228 689.227 173.055 689.231 170.788V150.096C689.227 147.829 688.075 145.656 686.025 144.052C683.976 142.449 681.197 141.548 678.299 141.545Z" fill="#6C63FF"/>
<path id="Vector_71" opacity="0.21" d="M678.299 141.545H677.759C679.439 141.546 681.096 141.853 682.599 142.44H680.142C677.495 142.443 674.957 143.266 673.085 144.731C671.214 146.195 670.161 148.18 670.158 150.251V170.942C670.161 173.013 671.214 174.998 673.085 176.462C674.957 177.927 677.495 178.75 680.142 178.753H681.709C680.45 179.139 679.111 179.338 677.759 179.339H678.299C681.197 179.337 683.976 178.435 686.025 176.832C688.075 175.228 689.227 173.055 689.231 170.788V150.096C689.227 147.829 688.075 145.656 686.025 144.052C683.976 142.449 681.197 141.548 678.299 141.545Z" fill="black"/>
<path id="Vector_72" d="M680.248 178.817C677.601 178.815 675.063 177.991 673.191 176.527C671.319 175.062 670.266 173.077 670.263 171.006V150.315C670.266 148.245 671.319 146.259 673.191 144.795C675.063 143.331 677.601 142.507 680.248 142.505H682.705C681.202 141.917 679.545 141.611 677.864 141.609H651.413C648.515 141.612 645.736 142.514 643.687 144.117C641.637 145.72 640.484 147.894 640.481 150.161V170.852C640.484 173.119 641.637 175.293 643.687 176.896C645.736 178.499 648.515 179.401 651.413 179.404H677.864C679.216 179.402 680.556 179.203 681.814 178.817L680.248 178.817Z" fill="#6C63FF"/>
<path id="Vector_73" d="M750.353 178.817C747.706 178.815 745.168 177.991 743.296 176.527C741.424 175.062 740.371 173.077 740.368 171.006V150.315C740.371 148.245 741.424 146.259 743.296 144.795C745.168 143.331 747.706 142.507 750.353 142.505H752.81C751.307 141.917 749.65 141.611 747.97 141.609H721.518C718.62 141.612 715.841 142.514 713.792 144.117C711.742 145.72 710.59 147.894 710.586 150.161V170.852C710.59 173.119 711.742 175.293 713.792 176.896C715.841 178.499 718.62 179.401 721.518 179.404H747.97C749.322 179.402 750.661 179.203 751.92 178.817L750.353 178.817Z" fill="#3F3D56"/>
<path id="Vector_74" d="M781.589 146.758C791.296 157.205 800.177 168.107 808.181 179.402H791.621C788.723 179.399 785.945 178.497 783.895 176.894C781.846 175.291 780.693 173.118 780.688 170.85V150.16C780.688 148.99 780.994 147.832 781.589 146.758Z" fill="#FF6584"/>
<path id="Vector_75" d="M748.383 190.259L739.118 179.402L732.344 171.465C731.949 171.002 731.394 170.635 730.744 170.409C730.093 170.182 729.373 170.104 728.668 170.183C727.963 170.263 727.302 170.498 726.76 170.86C726.219 171.222 725.819 171.697 725.609 172.229L722.757 179.402L717.016 193.816C716.789 194.39 716.792 195.005 717.023 195.578C717.255 196.151 717.704 196.655 718.311 197.023C718.919 197.391 719.655 197.606 720.423 197.638C721.19 197.67 721.951 197.518 722.605 197.203L724.642 196.217C725.052 196.019 725.52 195.907 726.001 195.89C726.482 195.873 726.961 195.953 727.392 196.121C727.822 196.29 728.191 196.542 728.463 196.853C728.734 197.164 728.9 197.524 728.943 197.899L730.81 213.832C730.897 214.564 731.33 215.244 732.023 215.74C732.717 216.236 733.622 216.512 734.561 216.515C734.675 216.515 734.789 216.507 734.912 216.5L737.773 216.3C738.266 216.265 738.746 216.154 739.185 215.974C739.624 215.793 740.012 215.547 740.329 215.249C740.646 214.951 740.885 214.607 741.031 214.237C741.178 213.866 741.229 213.477 741.183 213.091L739.26 196.639C739.215 196.253 739.3 195.864 739.508 195.511C739.715 195.159 740.038 194.856 740.443 194.632C740.849 194.408 741.322 194.271 741.816 194.236C742.31 194.201 742.808 194.268 743.258 194.431L743.675 194.579C744.421 194.848 745.26 194.919 746.062 194.781C746.865 194.642 747.587 194.303 748.121 193.814C748.654 193.325 748.968 192.713 749.015 192.071C749.063 191.429 748.841 190.793 748.383 190.259Z" fill="#CCCCCC"/>
</g>
<defs>
<clipPath id="clip0_1_110">
<rect width="855" height="650" fill="white"/>
</clipPath>
</defs>
</svg>
