<svg width="1009" height="712" viewBox="0 0 1009 712" fill="none" xmlns="http://www.w3.org/2000/svg">
<g id="movie 1" clip-path="url(#clip0_5_55)">
<path id="Vector" d="M699.22 46.9362H266V48.8111H699.22V46.9362Z" fill="#B1060F"/>
<path id="Vector_2" d="M395.411 66.6222C405.293 66.6222 413.305 58.6479 413.305 48.8111C413.305 38.9743 405.293 31 395.411 31C385.528 31 377.517 38.9743 377.517 48.8111C377.517 58.6479 385.528 66.6222 395.411 66.6222Z" fill="black"/>
<path id="Vector_3" d="M512.473 652.396C744.142 652.396 931.947 648.054 931.947 642.698C931.947 637.342 744.142 633 512.473 633C280.805 633 93 637.342 93 642.698C93 648.054 280.805 652.396 512.473 652.396Z" fill="#3F3D56"/>
<path id="Vector_4" d="M494.405 678.428C654.791 678.428 784.809 675.422 784.809 671.714C784.809 668.006 654.791 665 494.405 665C334.019 665 204 668.006 204 671.714C204 675.422 334.019 678.428 494.405 678.428Z" fill="#3F3D56"/>
<path id="Vector_5" d="M511.896 711.954C642.73 711.954 748.792 709.502 748.792 706.477C748.792 703.452 642.73 701 511.896 701C381.062 701 275 703.452 275 706.477C275 709.502 381.062 711.954 511.896 711.954Z" fill="#3F3D56"/>
<path id="path4155" d="M336.579 146.391L336.382 255.958L336.186 365.524L327.144 340.089V340.023L315.416 583.939C326.947 616.287 333.106 633.569 333.172 633.635C333.237 633.7 339.79 634.091 347.718 634.482C371.698 635.656 401.445 638.2 424.05 641.004C429.291 641.656 433.747 641.982 434.074 641.722C434.402 641.461 434.467 529.938 434.402 393.828L434.205 146.391L336.579 146.391Z" fill="#B1060F"/>
<path id="path4157" d="M160 146.065V393.763C160 530.003 160.131 641.591 160.328 641.787C160.524 641.982 168.976 641.135 179.198 640.026C189.419 638.917 203.506 637.482 210.517 636.895C221.262 635.982 253.498 633.961 257.168 633.895C258.281 633.895 258.347 628.352 258.478 528.96L258.675 424.024L266.472 445.937C267.651 449.329 268.044 450.372 269.223 453.698L280.952 209.848C278.462 202.87 279.772 206.522 276.955 198.566C267.389 171.631 259.264 148.87 258.937 147.826L258.281 146H160L160 146.065Z" fill="#B1060F"/>
<path id="path5721" d="M160 146.065L258.609 424.22V424.089L266.406 446.003C309.715 568.025 332.975 633.504 333.106 633.635C333.172 633.7 339.724 634.091 347.652 634.482C371.633 635.656 401.379 638.2 423.984 641.004C429.16 641.656 433.681 641.982 433.943 641.722L336.186 365.458V365.524L327.144 340.089C318.299 315.241 312.402 298.61 276.824 198.566C267.258 171.631 259.133 148.87 258.806 147.826L258.15 146H209.075L160 146.065Z" fill="#E50914"/>
<g id="reading 2">
<g id="reading 1">
<path id="Vector_6" d="M668.423 570.129C660.492 569.565 658.423 571.129 646.423 570.129H624.423L627.285 517.481L661.92 531.359L834.034 535.584L833.933 535.876C833.855 536.101 826.213 558.453 832.186 566.918L832.434 567.268L831.951 567.273L674.063 568.72C672.339 568.736 670.134 570.251 668.423 570.129Z" fill="#F2F2F2"/>
<path id="Vector_2_2" d="M677.351 570.817C662.029 569.727 646.164 575.683 632.923 568.959L622.338 569.6L622.308 569.511C622.226 569.267 617.226 529.925 627.334 514.672L627.779 514L628.127 517.613L624.795 566.621L632.18 564.156C650.117 572.599 671.45 567.023 691.98 566.945L831.694 566.429C834.621 566.419 837.059 568.419 837.137 570.888L837.144 571.129L685.79 571.117C682.967 571.117 680.154 571.017 677.351 570.817Z" fill="#CCCCCC"/>
<path id="Vector_3_2" d="M824.33 546.202L667.103 543.077L666.942 543.017L629.795 529.095L630.497 527.222L667.484 541.085L824.37 544.202L824.33 546.202Z" fill="#E6E6E6"/>
<path id="Vector_4_2" d="M823.491 554.621L666.264 551.496L666.104 551.436L628.956 537.514L629.658 535.641L666.646 549.504L823.531 552.621L823.491 554.621Z" fill="#E6E6E6"/>
<path id="Vector_5_2" d="M822.652 563.041L665.425 559.915L665.265 559.855L628.117 545.932L628.819 544.059L665.807 557.923L822.692 561.041L822.652 563.041Z" fill="#E6E6E6"/>
<path id="Vector_6_2" d="M678.437 536.128C663.859 535.143 649.646 531.133 636.703 524.352L625.806 518.572L626.09 515.715C626.17 515.295 626.401 514.92 626.741 514.661C627.08 514.403 627.503 514.278 627.929 514.313L628.891 514.325L775.519 516.483C785.116 516.602 794.625 518.327 803.652 521.588L835.6 533.187L835.583 533.356C835.314 536.048 832.6 538.128 829.403 538.091L684.969 536.399C682.784 536.373 680.607 536.283 678.437 536.128Z" fill="#E6E6E6"/>
<path id="Vector_7" d="M835.293 533.806L835.26 533.804L659.426 529.775L659.304 529.719L627.602 515.038L627.924 514.547L628.887 514.559L659.72 528.845L833.924 532.833L835.32 532.866L835.293 533.806Z" fill="#CCCCCC"/>
<path id="Vector_8" d="M698.597 515.587L696.365 515.555L645.973 514.81L643.586 514.776C655.099 527.034 680.558 530.101 717.874 525.352L698.597 515.587Z" fill="#CCCCCC"/>
<path id="f02c4e45-f306-4b42-b3ad-5ddd3016d7d2" d="M521.247 572.842H910.528C910.859 572.842 911.176 572.711 911.41 572.477C911.644 572.243 911.775 571.926 911.775 571.595C911.775 571.264 911.644 570.947 911.41 570.713C911.176 570.479 910.859 570.348 910.528 570.348H521.247C520.916 570.348 520.599 570.479 520.365 570.713C520.131 570.947 520 571.264 520 571.595C520 571.926 520.131 572.243 520.365 572.477C520.599 572.711 520.916 572.842 521.247 572.842Z" fill="#CCCCCC"/>
<path id="Vector_9" d="M851.032 364.769V365.421C849.63 363.778 848.199 362.149 846.783 360.52C846.188 359.84 845.593 359.16 844.998 358.48C842.477 355.619 839.941 352.768 837.392 349.925C834.828 347.092 832.264 344.26 829.672 341.441C829.049 340.761 828.426 340.081 827.789 339.401C827.278 338.83 826.724 338.3 826.131 337.815C825.533 337.317 824.846 336.937 824.106 336.696C823.254 336.46 822.356 336.45 821.5 336.668C820.522 336.894 819.587 337.249 818.639 337.546C817.661 337.872 816.698 338.183 815.721 338.495C813.766 339.132 811.826 339.77 809.871 340.407C809.847 340.417 809.822 340.422 809.797 340.421C809.771 340.421 809.746 340.416 809.723 340.406C809.699 340.396 809.678 340.382 809.66 340.364C809.642 340.346 809.628 340.324 809.619 340.301L809.616 340.294C809.605 340.267 809.6 340.238 809.601 340.209C809.602 340.18 809.61 340.152 809.623 340.126C809.637 340.1 809.656 340.078 809.679 340.06C809.702 340.043 809.729 340.031 809.758 340.025C810.239 339.869 810.735 339.713 811.231 339.557C813.199 338.906 815.154 338.268 817.123 337.631C818.1 337.305 819.077 336.994 820.055 336.682C820.961 336.338 821.919 336.146 822.888 336.115C824.47 336.229 825.954 336.926 827.052 338.07C827.661 338.637 828.214 339.231 828.766 339.841C829.417 340.549 830.069 341.257 830.721 341.965C833.341 344.826 835.942 347.697 838.525 350.577C841.117 353.466 843.685 356.361 846.23 359.26C846.414 359.472 846.598 359.685 846.783 359.897C848.213 361.511 849.615 363.141 851.032 364.769Z" fill="white"/>
<path id="Vector_10" d="M825.911 340.425C825.376 339.735 824.663 339.205 823.849 338.892L823.043 338.92C829.365 348.757 837.647 357.185 847.373 363.678C840.219 355.927 833.065 348.176 825.911 340.425Z" fill="white"/>
<path id="Vector_11" d="M957.841 442.655L925.754 270.845C925.205 268.013 923.71 265.451 921.514 263.58C919.318 261.709 916.551 260.64 913.668 260.547C913.408 260.541 913.149 260.541 912.889 260.547L891.031 261.331L888.678 261.418L877.769 261.81L875.416 261.891L868.399 262.144L726.901 267.224C726.688 267.236 726.469 267.236 726.256 267.23L694.548 266.567L682.814 266.325L682.44 266.319L673.779 266.134L598.314 264.566L578.306 264.145L568.44 263.943L566.076 263.891L554.826 263.661L552.468 263.609L540.959 263.372L538.601 263.32L525.956 263.055L523.972 263.015L512.694 262.778L510.913 262.744H510.653C507.659 262.756 504.765 263.826 502.484 265.766C500.203 267.705 498.681 270.389 498.187 273.342L469.167 451.627C468.872 453.433 468.973 455.281 469.464 457.044C469.955 458.807 470.823 460.442 472.008 461.836C473.193 463.231 474.667 464.35 476.328 465.118C477.989 465.886 479.797 466.284 481.627 466.284H648.288C650.741 466.291 653.128 467.078 655.103 468.533L658.263 470.874C660.441 472.476 663.072 473.345 665.776 473.353C697.964 464.857 731.806 464.857 763.994 473.353C765.654 473.357 767.297 473.032 768.831 472.397C770.364 471.761 771.756 470.828 772.926 469.651C774.926 467.651 777.596 466.462 780.421 466.313L946.09 457.583C947.887 457.489 949.642 457.012 951.24 456.185C952.837 455.357 954.239 454.198 955.352 452.784C956.464 451.371 957.262 449.736 957.692 447.989C958.121 446.242 958.172 444.423 957.841 442.655Z" fill="#CCCCCC"/>
<path id="Vector_12" d="M912.441 415.863C912.228 421.685 909.712 427.185 905.446 431.152C901.18 435.12 895.513 437.232 889.691 437.023C880.071 436.683 868.591 436.513 856.131 436.773C815.441 437.643 764.321 443.243 733.571 463.383C729.706 465.92 725.139 467.172 720.521 466.963C720.181 466.943 719.851 466.923 719.511 466.893C714.723 466.455 710.211 464.456 706.671 461.203C689.731 445.703 650.881 426.933 561.951 425.613C561.581 425.613 561.221 425.593 560.861 425.573C557.98 425.392 555.164 424.644 552.573 423.374C549.981 422.104 547.665 420.335 545.758 418.17C543.85 416.004 542.388 413.483 541.455 410.752C540.522 408.021 540.137 405.133 540.321 402.253L549.061 263.543L550.371 242.753L552.671 206.383C552.903 202.72 554.52 199.283 557.195 196.77C559.87 194.257 563.401 192.856 567.071 192.853H567.161L620.141 193.163C642.461 194.173 660.947 197.016 675.601 201.693C680.606 203.245 685.476 205.205 690.161 207.553C696.56 210.655 702.309 214.948 707.101 220.203C710.086 223.559 714.157 225.758 718.601 226.413C719.29 226.516 719.984 226.579 720.681 226.603C724.779 226.772 728.823 225.615 732.211 223.303C766.821 200.113 837.351 198.353 876.301 199.353C881.748 199.48 886.953 201.63 890.901 205.385C894.85 209.139 897.26 214.229 897.661 219.663L899.241 240.353L900.811 260.983L909.871 380.213L912.391 413.383C912.452 414.208 912.469 415.036 912.441 415.863Z" fill="#F2F2F2"/>
<path id="Vector_13" d="M575.131 241.663C607.058 231.476 642.677 234.173 672.924 248.523C681.554 252.597 689.704 257.617 697.225 263.491C699.353 265.161 702.38 262.174 700.23 260.487C672.449 238.939 637.543 228.703 602.525 231.835C592.837 232.702 583.273 234.623 574.002 237.565C571.406 238.393 572.516 242.497 575.131 241.663Z" fill="#3F3D56"/>
<path id="Vector_14" d="M750.815 265.14C780.499 249.537 816.045 246.135 848.319 254.992C857.52 257.51 866.412 261.046 874.831 265.533C877.243 266.82 879.392 263.153 876.976 261.864C846.216 245.45 809.292 241.672 775.701 250.821C766.331 253.378 757.267 256.949 748.67 261.47C746.249 262.743 748.394 266.412 750.815 265.14Z" fill="#3F3D56"/>
<path id="Vector_15" d="M750.815 293.468C780.499 277.866 816.045 274.463 848.319 283.32C857.52 285.839 866.412 289.374 874.831 293.861C877.243 295.148 879.392 291.481 876.976 290.192C846.216 273.779 809.292 270 775.701 279.15C766.331 281.707 757.267 285.277 748.67 289.799C746.249 291.071 748.394 294.74 750.815 293.468Z" fill="#3F3D56"/>
<path id="Vector_16" d="M878.015 320.276C878.038 319.912 877.95 319.549 877.763 319.234C877.576 318.92 877.299 318.67 876.968 318.515C852.327 305.612 824.387 300.379 796.746 303.489C796.573 303.502 796.413 303.53 796.226 303.544H796.219C796.049 303.559 795.88 303.585 795.713 303.62C779.273 305.512 763.324 310.428 748.671 318.12C748.352 318.31 748.087 318.58 747.904 318.904C747.72 319.227 747.624 319.592 747.624 319.964V372.81C747.629 373.135 747.709 373.455 747.856 373.745C748.003 374.035 748.214 374.288 748.473 374.484C748.732 374.681 749.033 374.816 749.352 374.879C749.671 374.942 750 374.932 750.315 374.849C750.966 374.662 751.618 374.481 752.284 374.308C767.097 370.298 782.304 367.919 797.634 367.214C797.96 367.2 798.286 367.186 798.625 367.172C811.111 366.636 823.62 367.086 836.036 368.518C836.296 368.532 836.555 368.56 836.812 368.601C837.45 368.67 838.102 368.746 838.74 368.83C838.996 368.857 839.239 368.885 839.475 368.927C841.957 369.239 844.419 369.592 846.888 369.974C850.452 370.542 854.016 371.176 857.58 371.874C857.802 371.915 858.031 371.971 858.26 372.013C863.98 373.15 869.673 374.467 875.339 375.923C875.654 376.005 875.984 376.014 876.303 375.949C876.623 375.884 876.923 375.748 877.182 375.55C877.441 375.353 877.652 375.099 877.799 374.808C877.946 374.517 878.024 374.197 878.029 373.871V320.359C878.031 320.331 878.027 320.302 878.015 320.276Z" fill="#3F3D56"/>
<path id="Vector_17" d="M800.078 306.37C798.521 305.608 796.736 305.451 795.071 305.93C794.335 306.206 793.661 306.625 793.089 307.164C792.516 307.702 792.056 308.349 791.736 309.067C791.159 310.442 790.789 311.896 790.638 313.381C790.55 313.965 790.545 314.701 791.132 314.974C791.345 315.051 791.575 315.069 791.797 315.025C792.019 314.981 792.225 314.877 792.393 314.724C792.696 314.425 792.946 314.077 793.131 313.694C794.15 312.108 795.553 310.805 797.209 309.905C798.864 309.005 800.72 308.536 802.605 308.543L804.174 309.168C802.94 308.057 801.562 307.116 800.078 306.37Z" fill="#FF6582"/>
<path id="Vector_18" d="M817.056 318.55C815.839 316.758 814.396 314.844 812.137 314.259C809.521 313.582 806.833 314.928 804.553 316.256C797.774 320.204 791.209 324.51 784.887 329.154L784.894 329.224L799.569 328.323C803.103 328.106 806.759 327.859 809.883 326.371C811.004 325.668 812.258 325.201 813.566 324.999C814.378 325.043 815.173 325.248 815.905 325.6C816.637 325.953 817.293 326.448 817.833 327.055C824.596 333.466 826.554 343.269 834.141 348.901C829.313 338.32 823.597 328.167 817.056 318.55Z" fill="white"/>
<path id="Vector_19" d="M798.628 367.171C798.288 367.186 797.962 367.2 797.636 367.214C795.271 366.364 792.849 365.613 790.399 364.962C788.812 364.537 787.198 364.155 785.583 363.829C783.755 363.432 781.914 363.121 780.073 362.851C776.567 362.342 773.034 362.044 769.492 361.959C769.466 361.962 769.438 361.959 769.413 361.951C769.387 361.943 769.363 361.929 769.343 361.911C769.323 361.893 769.307 361.871 769.296 361.846C769.285 361.822 769.279 361.795 769.279 361.768C769.279 361.741 769.285 361.714 769.296 361.69C769.307 361.665 769.323 361.643 769.343 361.625C769.363 361.607 769.387 361.593 769.413 361.585C769.438 361.577 769.466 361.574 769.492 361.577C769.945 361.577 770.399 361.591 770.838 361.619C774.387 361.75 777.925 362.096 781.433 362.653C783.26 362.951 785.087 363.305 786.9 363.701C788.543 364.07 790.186 364.481 791.801 364.934C794.109 365.585 796.385 366.331 798.628 367.171Z" fill="white"/>
<path id="Vector_20" d="M839.477 368.928C839.237 368.885 838.996 368.857 838.741 368.829C837.763 368.021 836.772 367.257 835.738 366.506C834.449 365.571 833.118 364.693 831.758 363.871C828.746 362.043 825.603 360.443 822.353 359.084C817.215 356.944 811.896 355.266 806.461 354.07C800.26 352.711 793.984 351.728 787.665 351.124C781.348 350.472 775.002 350.076 768.657 349.679C768.388 349.665 768.373 349.268 768.657 349.282C769.45 349.339 770.243 349.381 771.05 349.438C777.467 349.835 783.883 350.288 790.257 351.01C796.577 351.688 802.846 352.776 809.024 354.268C814.299 355.568 819.447 357.336 824.407 359.551C827.259 360.833 830.023 362.305 832.678 363.956C834.364 365.019 835.993 366.152 837.551 367.356C838.203 367.866 838.854 368.376 839.477 368.928Z" fill="white"/>
<path id="Vector_21" d="M836.814 368.602C836.556 368.561 836.296 368.532 836.035 368.517C835.738 368.276 835.426 368.05 835.115 367.823C832.934 366.262 830.659 364.838 828.302 363.56C826.161 362.396 823.963 361.342 821.715 360.401C816.58 358.255 811.261 356.577 805.823 355.387C799.623 354.029 793.346 353.045 787.027 352.441C780.71 351.789 774.365 351.393 768.019 350.996C767.75 350.968 767.75 350.585 768.019 350.6C768.827 350.656 769.62 350.699 770.413 350.755C776.829 351.152 783.246 351.605 789.619 352.328C795.939 353.005 802.209 354.093 808.387 355.585C813.662 356.883 818.81 358.651 823.769 360.869C825.639 361.718 827.466 362.639 829.251 363.645C831.897 365.098 834.426 366.755 836.814 368.602Z" fill="white"/>
<path id="Vector_22" d="M858.259 372.016C858.032 371.973 857.805 371.917 857.579 371.874C857.324 371.605 857.083 371.322 856.842 371.038C855.624 369.636 854.42 368.22 853.23 366.789C848.542 361.208 844.095 355.458 839.902 349.594C836.304 344.58 832.891 339.467 829.662 334.254C828.118 331.79 826.63 329.297 825.172 326.775C824.038 324.821 822.934 322.862 821.857 320.897C821.545 320.331 821.248 319.764 820.951 319.198C820.256 317.866 819.562 316.521 818.826 315.203C818.025 313.59 816.85 312.191 815.398 311.124C814.673 310.638 813.833 310.35 812.962 310.288C811.734 310.293 810.526 310.605 809.449 311.195C801.525 314.885 794.049 319.471 787.169 324.863C780.449 330.09 774.373 336.095 769.067 342.753C768.898 342.951 768.529 342.767 768.685 342.554C769.322 341.761 769.974 340.968 770.625 340.189C775.724 334.157 781.467 328.7 787.75 323.914C787.764 323.9 787.792 323.886 787.806 323.872C788.359 323.433 788.911 323.008 789.478 322.597C792.986 320.014 796.636 317.631 800.413 315.458C802.339 314.339 804.308 313.277 806.319 312.271C806.815 312.017 807.325 311.762 807.834 311.521C808.344 311.266 808.854 311.025 809.364 310.784C810.374 310.269 811.477 309.966 812.608 309.892C816.545 309.835 818.571 313.801 819.973 316.478C820.412 317.314 820.866 318.15 821.305 318.985C823.004 322.144 824.775 325.288 826.616 328.39C827.735 330.317 828.896 332.229 830.072 334.127C831.758 336.832 833.486 339.509 835.285 342.172C835.285 342.174 835.285 342.177 835.285 342.177C835.286 342.179 835.288 342.182 835.288 342.182C835.29 342.183 835.291 342.184 835.293 342.185C835.295 342.186 835.296 342.186 835.298 342.186C837.38 345.331 839.548 348.418 841.786 351.492C845.624 356.747 849.647 361.884 853.854 366.903C855.299 368.63 856.767 370.335 858.259 372.016Z" fill="white"/>
<path id="Vector_23" d="M807.726 309.46L807.334 309.631C806.436 308.116 805.178 306.846 803.672 305.934C802.165 305.021 800.456 304.496 798.697 304.403C792.899 303.991 787.805 307.856 787.342 313.017C787.154 315.142 787.769 317.261 789.066 318.955L788.702 319.17C787.351 317.406 786.711 315.199 786.906 312.986C787.388 307.611 792.693 303.587 798.732 304.016C800.564 304.112 802.343 304.66 803.912 305.609C805.481 306.559 806.791 307.882 807.726 309.46Z" fill="#FF6582"/>
<path id="Vector_24" d="M779.072 319.903C777.55 319.241 775.892 318.951 774.236 319.056C772.58 319.162 770.972 319.66 769.547 320.509C774.751 321.308 779.911 322.38 785.003 323.72C782.894 322.62 781.245 320.897 779.072 319.903Z" fill="white"/>
<path id="Vector_25" d="M769.517 320.505L768.944 320.919C769.138 320.774 769.34 320.638 769.547 320.509L769.517 320.505Z" fill="white"/>
<path id="Vector_26" d="M786.777 322.909C786.548 322.683 786.321 322.456 786.091 322.229C784.328 320.311 782.205 318.757 779.843 317.657C778.64 317.15 777.35 316.884 776.045 316.873C774.696 316.905 773.363 317.164 772.101 317.639C771.507 317.85 770.927 318.09 770.355 318.345C769.702 318.637 769.06 318.95 768.421 319.264C767.222 319.855 766.038 320.472 764.87 321.114C762.546 322.393 760.295 323.769 758.117 325.242C756.987 326.006 755.881 326.796 754.799 327.61C753.792 328.366 752.805 329.143 751.839 329.94C751.632 330.11 751.324 329.835 751.53 329.666C751.785 329.454 752.043 329.245 752.3 329.037C753.028 328.452 753.767 327.878 754.518 327.315C755.887 326.286 757.292 325.297 758.732 324.348C760.972 322.872 763.288 321.495 765.682 320.219C766.878 319.582 768.091 318.971 769.32 318.387C769.691 318.211 770.067 318.039 770.446 317.876C771.314 317.487 772.209 317.163 773.124 316.906C774.437 316.529 775.81 316.409 777.168 316.552C778.468 316.718 779.731 317.107 780.899 317.701C783.215 318.999 785.304 320.665 787.085 322.633C787.271 322.82 786.964 323.096 786.777 322.909Z" fill="white"/>
<path id="Vector_27" d="M575.131 269.991C607.058 259.805 642.677 262.501 672.924 276.852C681.554 280.925 689.704 285.945 697.225 291.819C699.353 293.489 702.38 290.502 700.23 288.815C672.449 267.267 637.543 257.031 602.525 260.163C592.837 261.03 583.273 262.951 574.002 265.893C571.406 266.721 572.516 270.825 575.131 269.991Z" fill="#3F3D56"/>
<path id="Vector_28" d="M575.131 298.319C607.058 288.133 642.677 290.83 672.924 305.18C681.554 309.253 689.704 314.273 697.225 320.148C699.353 321.817 702.38 318.831 700.23 317.143C672.449 295.595 637.543 285.359 602.525 288.491C592.837 289.358 583.273 291.28 574.002 294.222C571.406 295.05 572.516 299.154 575.131 298.319Z" fill="#3F3D56"/>
<path id="Vector_29" d="M575.131 326.647C607.058 316.461 642.677 319.158 672.924 333.508C681.554 337.581 689.704 342.601 697.225 348.476C699.353 350.146 702.38 347.159 700.23 345.471C672.449 323.923 637.543 313.687 602.525 316.819C592.837 317.686 583.273 319.608 574.002 322.55C571.406 323.378 572.516 327.482 575.131 326.647Z" fill="#3F3D56"/>
<path id="Vector_30" d="M575.131 354.976C607.058 344.789 642.677 347.486 672.924 361.836C681.554 365.91 689.704 370.93 697.225 376.804C699.353 378.474 702.38 375.487 700.23 373.799C672.449 352.252 637.543 342.016 602.525 345.148C592.837 346.015 583.273 347.936 574.002 350.878C571.406 351.706 572.516 355.81 575.131 354.976Z" fill="#3F3D56"/>
<path id="Vector_31" d="M575.131 383.304C607.058 373.117 642.677 375.814 672.924 390.165C681.554 394.238 689.704 399.258 697.225 405.132C699.353 406.802 702.38 403.815 700.23 402.128C672.449 380.58 637.543 370.344 602.525 373.476C592.837 374.343 583.273 376.264 574.002 379.206C571.406 380.034 572.516 384.138 575.131 383.304Z" fill="#3F3D56"/>
<path id="Vector_32" d="M690.161 207.553V275.483C690.161 276.833 687.801 277.963 684.621 278.273C684.594 278.271 684.567 278.275 684.541 278.283C684.011 278.323 683.451 278.353 682.881 278.353C681.128 278.385 679.383 278.1 677.731 277.513C677.581 277.453 677.431 277.383 677.281 277.323C677.141 277.243 676.991 277.173 676.851 277.093C676.061 276.623 675.601 276.073 675.601 275.483V201.693C680.606 203.245 685.476 205.205 690.161 207.553Z" fill="#6C63FF"/>
<path id="Vector_33" d="M720.679 223.308H718.599V465.543H720.679V223.308Z" fill="#E6E6E6"/>
</g>
</g>
</g>
<defs>
<clipPath id="clip0_5_55">
<rect width="1009" height="712" fill="white"/>
</clipPath>
</defs>
</svg>
