<svg width="1009" height="712" viewBox="0 0 1009 712" fill="none" xmlns="http://www.w3.org/2000/svg">
<g id="movie 1">
<path id="Vector" d="M699.22 46.9362H266V48.8111H699.22V46.9362Z" fill="#B1060F"/>
<path id="Vector_2" d="M395.411 66.6222C405.293 66.6222 413.305 58.6479 413.305 48.8111C413.305 38.9743 405.293 31 395.411 31C385.528 31 377.517 38.9743 377.517 48.8111C377.517 58.6479 385.528 66.6222 395.411 66.6222Z" fill="black"/>
<path id="Vector_3" d="M512.473 652.396C744.142 652.396 931.947 648.054 931.947 642.698C931.947 637.342 744.142 633 512.473 633C280.805 633 93 637.342 93 642.698C93 648.054 280.805 652.396 512.473 652.396Z" fill="#3F3D56"/>
<path id="Vector_4" d="M494.405 678.428C654.791 678.428 784.809 675.422 784.809 671.714C784.809 668.006 654.791 665 494.405 665C334.019 665 204 668.006 204 671.714C204 675.422 334.019 678.428 494.405 678.428Z" fill="#3F3D56"/>
<path id="Vector_5" d="M511.896 711.954C642.73 711.954 748.792 709.502 748.792 706.477C748.792 703.452 642.73 701 511.896 701C381.062 701 275 703.452 275 706.477C275 709.502 381.062 711.954 511.896 711.954Z" fill="#3F3D56"/>
<path id="Vector_6" d="M518.399 596.77L512.194 620.789H541.152V596.77H518.399Z" fill="#FFB8B8"/>
<path id="Vector_7" d="M517.02 611.868C517.02 611.868 516.33 603.632 512.193 607.064C508.057 610.495 493.577 623.535 493.577 623.535C493.577 623.535 441.177 629.26 472.893 642.3C487.378 644.468 502.183 642.566 515.641 636.809C515.641 636.809 550.881 645.815 550.154 637.077C549.426 628.339 541.152 613.746 541.152 613.746C541.152 613.746 531.499 620.79 520.467 611.182L517.02 611.868Z" fill="#2F2E41"/>
<path id="path4155" d="M522.579 147.391L522.382 256.958L522.186 366.524L513.144 341.089V341.023L501.416 584.939C512.947 617.287 519.106 634.569 519.172 634.635C519.237 634.7 525.79 635.091 533.718 635.482C557.698 636.656 587.445 639.2 610.05 642.004C615.291 642.656 619.747 642.982 620.074 642.722C620.402 642.461 620.467 530.938 620.402 394.828L620.205 147.391L522.579 147.391Z" fill="#B1060F"/>
<path id="path4157" d="M346 147.065V394.763C346 531.003 346.131 642.591 346.328 642.787C346.524 642.982 354.976 642.135 365.198 641.026C375.419 639.917 389.506 638.482 396.517 637.895C407.262 636.982 439.498 634.961 443.168 634.895C444.281 634.895 444.347 629.352 444.478 529.96L444.675 425.024L452.472 446.937C453.651 450.329 454.044 451.372 455.223 454.698L466.952 210.848C464.462 203.87 465.772 207.522 462.955 199.566C453.389 172.631 445.264 149.87 444.937 148.826L444.281 147H346L346 147.065Z" fill="#B1060F"/>
<path id="path5721" d="M346 147.065L444.609 425.22V425.089L452.406 447.003C495.715 569.025 518.975 634.504 519.106 634.635C519.172 634.7 525.724 635.091 533.652 635.482C557.633 636.656 587.379 639.2 609.984 642.004C615.16 642.656 619.681 642.982 619.943 642.722L522.186 366.458V366.524L513.144 341.089C504.299 316.241 498.402 299.61 462.824 199.566C453.258 172.631 445.133 149.87 444.806 148.826L444.15 147H395.075L346 147.065Z" fill="#E50914"/>
</g>
</svg>
