<svg width="820" height="611" viewBox="0 0 820 611" fill="none" xmlns="http://www.w3.org/2000/svg">
<g id="study 1" clip-path="url(#clip0_1_2)">
<path id="Vector" d="M278.882 391.707C314.272 391.707 342.962 363.017 342.962 327.626C342.962 292.236 314.272 263.546 278.882 263.546C243.491 263.546 214.801 292.236 214.801 327.626C214.801 363.017 243.491 391.707 278.882 391.707Z" fill="#E5E5E5"/>
<path id="Vector_2" opacity="0.2" d="M231.567 284.826C225.589 298.808 224.778 314.459 229.279 328.984C233.779 343.509 243.298 355.96 256.134 364.113C268.969 372.266 284.286 375.589 299.346 373.488C314.406 371.388 328.229 364 338.344 352.647C334.692 361.189 329.228 368.835 322.328 375.056C315.428 381.277 307.258 385.923 298.384 388.673C289.51 391.422 280.145 392.21 270.937 390.981C261.728 389.752 252.897 386.535 245.055 381.555C237.213 376.574 230.548 369.947 225.521 362.135C220.495 354.322 217.226 345.51 215.943 336.309C214.66 327.108 215.393 317.738 218.091 308.849C220.788 299.959 225.387 291.762 231.567 284.826Z" fill="black"/>
<path id="Vector_3" d="M279.058 327.626H279.234L282.403 509.305H275.713L279.058 327.626Z" fill="#CBCBCB"/>
<path id="Vector_4" d="M390.528 301.259C433.155 301.259 467.712 266.703 467.712 224.075C467.712 181.447 433.155 146.891 390.528 146.891C347.9 146.891 313.344 181.447 313.344 224.075C313.344 266.703 347.9 301.259 390.528 301.259Z" fill="#E5E5E5"/>
<path id="Vector_5" opacity="0.2" d="M447.518 172.522C454.718 189.363 455.694 208.215 450.274 225.71C444.853 243.205 433.388 258.202 417.928 268.022C402.467 277.842 384.019 281.845 365.879 279.315C347.739 276.785 331.09 267.887 318.906 254.212C323.304 264.501 329.887 273.711 338.198 281.203C346.508 288.696 356.349 294.292 367.037 297.604C377.726 300.916 389.006 301.865 400.098 300.385C411.189 298.904 421.826 295.03 431.271 289.031C440.717 283.031 448.745 275.05 454.8 265.64C460.854 256.23 464.791 245.616 466.336 234.533C467.882 223.451 466.999 212.165 463.75 201.457C460.5 190.75 454.962 180.877 447.518 172.522Z" fill="black"/>
<path id="Vector_6" d="M390.316 224.075H390.104L386.287 442.905H394.345L390.316 224.075Z" fill="#CBCBCB"/>
<path id="Vector_7" d="M247.244 151.776L257.724 143.394C249.583 142.496 246.238 146.936 244.869 150.451C238.508 147.81 231.584 151.271 231.584 151.271L252.552 158.883C251.495 156.058 249.653 153.592 247.244 151.776Z" fill="#CBCBCB"/>
<path id="Vector_8" d="M192.66 107.499L203.14 99.1174C194.998 98.2192 191.653 102.659 190.284 106.174C183.924 103.533 177 106.994 177 106.994L197.968 114.606C196.91 111.781 195.069 109.315 192.66 107.499Z" fill="#CBCBCB"/>
<path id="Vector_9" d="M369.285 126.211L379.765 117.829C371.624 116.931 368.279 121.371 366.91 124.886C360.55 122.245 353.626 125.706 353.626 125.706L374.594 133.318C373.536 130.493 371.695 128.027 369.285 126.211Z" fill="#CBCBCB"/>
<path id="Vector_10" d="M358.93 442.57C358.93 442.57 359.331 434.168 367.551 435.144Z" fill="#CBCBCB"/>
<path id="Vector_11" d="M414.77 442.57C414.77 442.57 415.171 434.168 423.392 435.144Z" fill="#CBCBCB"/>
<path id="Vector_12" d="M398.511 442.57C398.511 442.57 398.912 434.168 407.133 435.144Z" fill="#CBCBCB"/>
<path id="Vector_13" d="M343.972 442.57C343.972 442.57 343.571 434.168 335.351 435.144Z" fill="#CBCBCB"/>
<path id="Vector_14" d="M378.813 443.151C378.813 443.151 378.412 434.748 370.191 435.725Z" fill="#CBCBCB"/>
<path id="Vector_15" d="M250.93 508.57C250.93 508.57 251.331 500.168 259.551 501.144Z" fill="#CBCBCB"/>
<path id="Vector_16" d="M306.77 508.57C306.77 508.57 307.171 500.168 315.392 501.144Z" fill="#CBCBCB"/>
<path id="Vector_17" d="M290.511 508.57C290.511 508.57 290.912 500.168 299.133 501.144Z" fill="#CBCBCB"/>
<path id="Vector_18" d="M235.972 508.57C235.972 508.57 235.571 500.168 227.351 501.144Z" fill="#CBCBCB"/>
<path id="Vector_19" d="M270.813 509.151C270.813 509.151 270.412 500.748 262.191 501.725Z" fill="#CBCBCB"/>
<path id="Vector_20" d="M674.637 114.705H567.182V124.28H674.637V114.705Z" fill="#3F3D56"/>
<path id="Vector_21" d="M674.637 149.979H567.182V159.554H674.637V149.979Z" fill="#3F3D56"/>
<path id="Vector_22" d="M674.637 181.578H567.182V191.154H674.637V181.578Z" fill="#3F3D56"/>
<path id="Vector_23" d="M526.764 119.493C526.764 117.022 527.496 114.607 528.869 112.552C530.242 110.498 532.193 108.897 534.476 107.951C536.759 107.005 539.27 106.758 541.694 107.24C544.117 107.722 546.343 108.912 548.09 110.659C549.837 112.406 551.027 114.632 551.509 117.056C551.991 119.479 551.744 121.991 550.798 124.274C549.853 126.556 548.252 128.508 546.197 129.88C544.143 131.253 541.727 131.986 539.257 131.986C535.944 131.982 532.769 130.665 530.427 128.322C528.085 125.98 526.767 122.805 526.764 119.493Z" fill="#6C63FF"/>
<path id="Vector_24" d="M526.764 154.767C526.764 152.296 527.496 149.88 528.869 147.826C530.242 145.772 532.193 144.17 534.476 143.225C536.759 142.279 539.27 142.032 541.694 142.514C544.117 142.996 546.343 144.186 548.09 145.933C549.837 147.68 551.027 149.906 551.509 152.329C551.991 154.753 551.744 157.265 550.798 159.547C549.853 161.83 548.252 163.781 546.197 165.154C544.143 166.527 541.727 167.259 539.257 167.259C535.944 167.256 532.769 165.938 530.427 163.596C528.085 161.254 526.767 158.079 526.764 154.767Z" fill="#6C63FF"/>
<path id="Vector_25" d="M526.764 186.366C526.764 183.895 527.496 181.48 528.869 179.425C530.242 177.371 532.193 175.77 534.476 174.824C536.759 173.879 539.27 173.631 541.694 174.113C544.117 174.595 546.343 175.785 548.09 177.532C549.837 179.279 551.027 181.505 551.509 183.929C551.991 186.352 551.744 188.864 550.798 191.147C549.853 193.43 548.252 195.381 546.197 196.753C544.143 198.126 541.727 198.859 539.257 198.859C535.944 198.855 532.769 197.538 530.427 195.196C528.085 192.854 526.767 189.678 526.764 186.366Z" fill="#6C63FF"/>
<path id="Vector_26" d="M421.459 203.592L419.88 202.366L460.329 150.284H513.23V152.284H461.308L421.459 203.592Z" fill="#3F3D56"/>
<path id="Vector_27" d="M107.456 228.705H0V238.28H107.456V228.705Z" fill="#3F3D56"/>
<path id="Vector_28" d="M107.456 263.979H0V273.554H107.456V263.979Z" fill="#3F3D56"/>
<path id="Vector_29" d="M107.456 295.578H0V305.154H107.456V295.578Z" fill="#3F3D56"/>
<path id="Vector_30" d="M135.381 245.986C132.91 245.986 130.495 245.253 128.44 243.88C126.386 242.507 124.785 240.556 123.839 238.274C122.893 235.991 122.646 233.479 123.128 231.056C123.61 228.632 124.8 226.406 126.547 224.659C128.294 222.912 130.52 221.722 132.944 221.24C135.367 220.758 137.879 221.005 140.162 221.951C142.444 222.896 144.396 224.498 145.768 226.552C147.141 228.607 147.874 231.022 147.874 233.493C147.874 235.133 147.551 236.758 146.923 238.274C146.295 239.789 145.375 241.167 144.215 242.327C143.055 243.487 141.677 244.407 140.162 245.035C138.646 245.662 137.021 245.986 135.381 245.986Z" fill="#6C63FF"/>
<path id="Vector_31" d="M135.381 281.259C132.91 281.259 130.495 280.527 128.44 279.154C126.386 277.781 124.785 275.83 123.839 273.547C122.893 271.265 122.646 268.753 123.128 266.329C123.61 263.906 124.8 261.68 126.547 259.933C128.294 258.186 130.52 256.996 132.944 256.514C135.367 256.032 137.879 256.279 140.162 257.225C142.444 258.17 144.396 259.772 145.768 261.826C147.141 263.88 147.874 266.296 147.874 268.767C147.874 270.407 147.551 272.032 146.923 273.547C146.295 275.063 145.375 276.44 144.215 277.6C143.055 278.76 141.677 279.681 140.162 280.308C138.646 280.936 137.021 281.259 135.381 281.259Z" fill="#6C63FF"/>
<path id="Vector_32" d="M135.381 312.859C132.91 312.859 130.495 312.126 128.44 310.753C126.386 309.381 124.785 307.43 123.839 305.147C122.893 302.864 122.646 300.352 123.128 297.929C123.61 295.505 124.8 293.279 126.547 291.532C128.294 289.785 130.52 288.595 132.944 288.113C135.367 287.631 137.879 287.879 140.162 288.824C142.444 289.77 144.396 291.371 145.768 293.425C147.141 295.48 147.874 297.895 147.874 300.366C147.874 302.007 147.551 303.631 146.923 305.147C146.295 306.663 145.375 308.04 144.215 309.2C143.055 310.36 141.677 311.28 140.162 311.908C138.646 312.536 137.021 312.859 135.381 312.859Z" fill="#6C63FF"/>
<path id="Vector_33" d="M253.179 317.592L213.329 266.284H161.408V264.284H214.308L214.608 264.671L254.758 316.366L253.179 317.592Z" fill="#3F3D56"/>
<path id="Vector_34" d="M480.637 37.5785H373.182V47.1537H480.637V37.5785Z" fill="#3F3D56"/>
<path id="Vector_35" d="M332.764 42.3661C332.764 39.8952 333.497 37.4799 334.869 35.4255C336.242 33.371 338.193 31.7698 340.476 30.8242C342.759 29.8787 345.27 29.6313 347.694 30.1133C350.117 30.5953 352.343 31.7852 354.09 33.5323C355.838 35.2795 357.027 37.5055 357.509 39.9288C357.991 42.3522 357.744 44.8641 356.798 47.1469C355.853 49.4296 354.252 51.3807 352.197 52.7535C350.143 54.1262 347.727 54.8589 345.257 54.8589C341.944 54.8552 338.769 53.5378 336.427 51.1958C334.085 48.8537 332.767 45.6783 332.764 42.3661Z" fill="#6C63FF"/>
<path id="Vector_36" d="M219.579 95.308L218 94.082L258.449 42H311.35V44H259.428L219.579 95.308Z" fill="#3F3D56"/>
<path id="Vector_37" d="M757.434 566.319H750.685L747.474 540.284H757.436L757.434 566.319Z" fill="#FFB7B7"/>
<path id="Vector_38" d="M759.156 572.862L737.392 572.861V572.586C737.392 570.339 738.284 568.185 739.873 566.596C741.462 565.008 743.616 564.115 745.863 564.115L759.156 564.115L759.156 572.862Z" fill="#2F2E41"/>
<path id="Vector_39" d="M728.434 566.319H721.685L718.474 540.284H728.436L728.434 566.319Z" fill="#FFB7B7"/>
<path id="Vector_40" d="M730.156 572.862L708.392 572.861V572.586C708.392 570.339 709.284 568.185 710.873 566.596C712.462 565.008 714.616 564.115 716.863 564.115L730.156 564.115L730.156 572.862Z" fill="#2F2E41"/>
<path id="Vector_41" d="M713.069 395.511L703.923 410.055L719.275 556.813L735.319 557.784L738.693 431.032L744.319 498.784L742.096 557.784L758.614 558.585L768.429 472.985L775.819 405.284L761.319 391.784L713.069 395.511Z" fill="#1B1B24"/>
<path id="Vector_42" d="M755.819 284.284L730.819 285.284L707.653 399.567C707.653 399.567 745.307 418.252 760.563 401.268L769.732 394.55L755.819 284.284Z" fill="black"/>
<path id="Vector_43" d="M755.819 284.284L777.819 297.105L769.691 350.784L776.818 405.515L753.67 401.743C753.67 401.743 748.931 350.784 752.007 334.784C755.082 318.784 755.819 284.284 755.819 284.284Z" fill="#2D043C"/>
<path id="Vector_44" d="M730.819 285.284L704.494 298.795L706.499 358.243L692.913 403.283C692.913 403.283 720.004 411.952 724.661 398.368C729.319 384.784 730.819 285.284 730.819 285.284Z" fill="#2D043C"/>
<path id="Vector_45" d="M766.37 419.06C767.248 418.632 768.022 418.016 768.636 417.257C769.25 416.498 769.691 415.613 769.926 414.665C770.162 413.717 770.186 412.729 769.999 411.77C769.811 410.812 769.415 409.906 768.84 409.117L776.784 396.08L770.039 389.32L759.078 407.888C757.817 408.943 756.986 410.424 756.744 412.051C756.501 413.677 756.864 415.336 757.762 416.713C758.661 418.09 760.034 419.089 761.621 419.522C763.207 419.954 764.897 419.79 766.37 419.06Z" fill="#FFB7B7"/>
<path id="Vector_46" d="M766.401 304.417L776.89 296.105C776.89 296.105 786.808 304.223 786.563 312.003C786.319 319.784 789.288 361.231 789.288 361.231L772.921 410.495L760.732 400.743L775.01 362.284L763.759 329.466L766.401 304.417Z" fill="#2D043C"/>
<path id="Vector_47" d="M698.594 421.381C697.785 420.834 697.106 420.115 696.605 419.277C696.103 418.439 695.792 417.501 695.692 416.529C695.593 415.558 695.707 414.576 696.028 413.654C696.349 412.731 696.868 411.89 697.549 411.19L691.519 397.164L699.149 391.421L707.386 411.348C708.487 412.57 709.101 414.153 709.112 415.797C709.123 417.442 708.53 419.033 707.447 420.27C706.363 421.506 704.863 422.303 703.231 422.508C701.6 422.712 699.95 422.312 698.594 421.381Z" fill="#FFB7B7"/>
<path id="Vector_48" d="M714.706 307.877L705.492 298.171C705.492 298.171 694.53 304.811 693.677 312.548C692.823 320.285 684.047 360.901 684.047 360.901L693.315 411.979L706.755 404.041L698.035 363.954L713.795 333.048L714.706 307.877Z" fill="#2D043C"/>
<path id="Vector_49" d="M744.116 276.814C753.547 276.814 761.192 269.169 761.192 259.738C761.192 250.308 753.547 242.663 744.116 242.663C734.686 242.663 727.041 250.308 727.041 259.738C727.041 269.169 734.686 276.814 744.116 276.814Z" fill="#FFB7B7"/>
<path id="Vector_50" d="M739.987 244.576C738.263 244.272 736.556 245.056 734.958 245.772C733.361 246.488 731.575 247.166 729.901 246.653C729.129 246.361 728.438 245.889 727.885 245.276C727.332 244.663 726.934 243.927 726.723 243.13C726.317 241.532 726.171 239.878 726.292 238.234L728.111 239.285L726.869 237.197L744.589 235.238C749.95 234.646 755.962 234.233 760.132 237.654C762.257 239.584 763.805 242.066 764.602 244.824C768.139 255.653 772.155 271.432 754 274.651C751.469 273.951 755.596 264.635 755.554 262.01C755.512 259.385 754.067 256.434 751.473 256.031L749.573 258.673C750.789 256.982 746.473 251.491 745.399 250.419C744.434 249.6 743.563 248.677 742.801 247.665C741.944 246.351 741.934 244.92 739.987 244.576Z" fill="#3D2D2D"/>
<path id="Vector_51" d="M818.327 573.284H639.327C639.061 573.284 638.807 573.178 638.619 572.991C638.432 572.803 638.327 572.549 638.327 572.284C638.327 572.019 638.432 571.764 638.619 571.577C638.807 571.389 639.061 571.284 639.327 571.284H818.327C818.592 571.284 818.846 571.389 819.034 571.577C819.221 571.764 819.327 572.019 819.327 572.284C819.327 572.549 819.221 572.803 819.034 572.991C818.846 573.178 818.592 573.284 818.327 573.284Z" fill="#CBCBCB"/>
</g>
<defs>
<clipPath id="clip0_1_2">
<rect width="819.327" height="610.284" fill="white"/>
</clipPath>
</defs>
</svg>
